%TF.GenerationSoftware,KiCad,Pcbnew,9.0.5*%
%TF.CreationDate,2026-02-07T16:21:02+05:30*%
%TF.ProjectId,ESP S3 _ MONITOR,45535020-5333-4205-9f20-4d4f4e49544f,rev?*%
%TF.SameCoordinates,Original*%
%TF.FileFunction,Profile,NP*%
%FSLAX46Y46*%
G04 Gerber Fmt 4.6, Leading zero omitted, Abs format (unit mm)*
G04 Created by KiCad (PCBNEW 9.0.5) date 2026-02-07 16:21:02*
%MOMM*%
%LPD*%
G01*
G04 APERTURE LIST*
%TA.AperFunction,Profile*%
%ADD10C,0.200000*%
%TD*%
%ADD11C,0.350000*%
%ADD12C,0.200000*%
%ADD13O,0.600000X1.700000*%
%ADD14O,0.600000X1.400000*%
G04 APERTURE END LIST*
D10*
X163208509Y-39887425D02*
X162920589Y-40123714D01*
X164991191Y-43222588D02*
X165319675Y-43047009D01*
X88647995Y-42809920D02*
X88884284Y-42522000D01*
X89143684Y-86082945D02*
X89035563Y-85726518D01*
X85441000Y-41837089D02*
X85549121Y-42193516D01*
X88623695Y-85110114D02*
X88335775Y-84873825D01*
X85441000Y-41095745D02*
X85404492Y-41466417D01*
X86933820Y-39602925D02*
X86577393Y-39711046D01*
X88360075Y-39886625D02*
X88031591Y-39711046D01*
X86909520Y-88317109D02*
X87280192Y-88353617D01*
X89035563Y-87180716D02*
X89143684Y-86824289D01*
X163184209Y-84874625D02*
X162896289Y-85110914D01*
X166103284Y-86825089D02*
X166139792Y-86454417D01*
X165319675Y-43047009D02*
X165607595Y-42810720D01*
X163512693Y-84699046D02*
X163184209Y-84874625D01*
X162376300Y-86825089D02*
X162484421Y-87181516D01*
X163184209Y-88034209D02*
X163512693Y-88209788D01*
X88360075Y-43046209D02*
X88647995Y-42809920D01*
X85724700Y-40410834D02*
X85549121Y-40739318D01*
X89180192Y-86453617D02*
X89143684Y-86082945D01*
X89204492Y-41466417D02*
X89167984Y-41095745D01*
X88623695Y-87797120D02*
X88859984Y-87509200D01*
X164610464Y-84590925D02*
X164239792Y-84554417D01*
X166019463Y-40740118D02*
X165843884Y-40411634D01*
X164264092Y-43367217D02*
X164634764Y-43330709D01*
X85724700Y-42522000D02*
X85960989Y-42809920D01*
X85960989Y-40122914D02*
X85724700Y-40410834D01*
X164634764Y-39603725D02*
X164264092Y-39567217D01*
X164634764Y-43330709D02*
X164991191Y-43222588D01*
X162920589Y-42810720D02*
X163208509Y-43047009D01*
X162400600Y-41096545D02*
X162364092Y-41467217D01*
X166103284Y-86083745D02*
X165995163Y-85727318D01*
X89059863Y-42193516D02*
X89167984Y-41837089D01*
X163512693Y-88209788D02*
X163869120Y-88317909D01*
X87650864Y-88317109D02*
X88007291Y-88208988D01*
X165295375Y-88034209D02*
X165583295Y-87797920D01*
X87304492Y-39566417D02*
X86933820Y-39602925D01*
X164239792Y-88354417D02*
X164610464Y-88317909D01*
X89167984Y-41837089D02*
X89204492Y-41466417D01*
X165819584Y-87510000D02*
X165995163Y-87181516D01*
X88031591Y-43221788D02*
X88360075Y-43046209D01*
X86248909Y-39886625D02*
X85960989Y-40122914D01*
X89035563Y-85726518D02*
X88859984Y-85398034D01*
X84780292Y-88967317D02*
X166780292Y-88967317D01*
X162508721Y-42194316D02*
X162684300Y-42522800D01*
X85936689Y-87797120D02*
X86224609Y-88033409D01*
X162508721Y-40740118D02*
X162400600Y-41096545D01*
X88859984Y-87509200D02*
X89035563Y-87180716D01*
X85524821Y-85726518D02*
X85416700Y-86082945D01*
X88884284Y-40410834D02*
X88647995Y-40122914D01*
X86553093Y-88208988D02*
X86909520Y-88317109D01*
X88859984Y-85398034D02*
X88623695Y-85110114D01*
X86224609Y-84873825D02*
X85936689Y-85110114D01*
X88335775Y-88033409D02*
X88623695Y-87797120D01*
X85416700Y-86824289D02*
X85524821Y-87180716D01*
X165583295Y-85110914D02*
X165295375Y-84874625D01*
X85936689Y-85110114D02*
X85700400Y-85398034D01*
X162660000Y-85398834D02*
X162484421Y-85727318D01*
X165995163Y-85727318D02*
X165819584Y-85398834D01*
X85524821Y-87180716D02*
X85700400Y-87509200D01*
X85700400Y-87509200D02*
X85936689Y-87797120D01*
X162364092Y-41467217D02*
X162400600Y-41837889D01*
X88647995Y-40122914D02*
X88360075Y-39886625D01*
X162896289Y-85110914D02*
X162660000Y-85398834D01*
X89059863Y-40739318D02*
X88884284Y-40410834D01*
X164610464Y-88317909D02*
X164966891Y-88209788D01*
X86248909Y-43046209D02*
X86577393Y-43221788D01*
X86909520Y-84590125D02*
X86553093Y-84698246D01*
X165819584Y-85398834D02*
X165583295Y-85110914D01*
X164991191Y-39711846D02*
X164634764Y-39603725D01*
X166164092Y-41467217D02*
X166127584Y-41096545D01*
X85960989Y-42809920D02*
X86248909Y-43046209D01*
X165843884Y-40411634D02*
X165607595Y-40123714D01*
X88335775Y-84873825D02*
X88007291Y-84698246D01*
X163893420Y-43330709D02*
X164264092Y-43367217D01*
X164264092Y-39567217D02*
X163893420Y-39603725D01*
X89143684Y-86824289D02*
X89180192Y-86453617D01*
X87280192Y-84553617D02*
X86909520Y-84590125D01*
X87304492Y-43366417D02*
X87675164Y-43329909D01*
X166780292Y-88967317D02*
X166780292Y-38967317D01*
X165843884Y-42522800D02*
X166019463Y-42194316D01*
X85700400Y-85398034D02*
X85524821Y-85726518D01*
X86224609Y-88033409D02*
X86553093Y-88208988D01*
X164966891Y-84699046D02*
X164610464Y-84590925D01*
X162684300Y-40411634D02*
X162508721Y-40740118D01*
X162484421Y-85727318D02*
X162376300Y-86083745D01*
X165319675Y-39887425D02*
X164991191Y-39711846D01*
X87675164Y-43329909D02*
X88031591Y-43221788D01*
X88007291Y-84698246D02*
X87650864Y-84590125D01*
X166139792Y-86454417D02*
X166103284Y-86083745D01*
X166019463Y-42194316D02*
X166127584Y-41837889D01*
X86933820Y-43329909D02*
X87304492Y-43366417D01*
X165607595Y-42810720D02*
X165843884Y-42522800D01*
X162484421Y-87181516D02*
X162660000Y-87510000D01*
X165295375Y-84874625D02*
X164966891Y-84699046D01*
X85404492Y-41466417D02*
X85441000Y-41837089D01*
X163536993Y-39711846D02*
X163208509Y-39887425D01*
X163893420Y-39603725D02*
X163536993Y-39711846D01*
X88884284Y-42522000D02*
X89059863Y-42193516D01*
X85416700Y-86082945D02*
X85380192Y-86453617D01*
X162660000Y-87510000D02*
X162896289Y-87797920D01*
X166127584Y-41837889D02*
X166164092Y-41467217D01*
X87650864Y-84590125D02*
X87280192Y-84553617D01*
X166780292Y-38967317D02*
X84780292Y-38967317D01*
X166127584Y-41096545D02*
X166019463Y-40740118D01*
X162376300Y-86083745D02*
X162339792Y-86454417D01*
X162896289Y-87797920D02*
X163184209Y-88034209D01*
X86553093Y-84698246D02*
X86224609Y-84873825D01*
X164966891Y-88209788D02*
X165295375Y-88034209D01*
X163869120Y-88317909D02*
X164239792Y-88354417D01*
X85549121Y-42193516D02*
X85724700Y-42522000D01*
X88007291Y-88208988D02*
X88335775Y-88033409D01*
X165607595Y-40123714D02*
X165319675Y-39887425D01*
X163536993Y-43222588D02*
X163893420Y-43330709D01*
X163208509Y-43047009D02*
X163536993Y-43222588D01*
X85549121Y-40739318D02*
X85441000Y-41095745D01*
X162339792Y-86454417D02*
X162376300Y-86825089D01*
X86577393Y-43221788D02*
X86933820Y-43329909D01*
X165583295Y-87797920D02*
X165819584Y-87510000D01*
X85380192Y-86453617D02*
X85416700Y-86824289D01*
X164239792Y-84554417D02*
X163869120Y-84590925D01*
X162684300Y-42522800D02*
X162920589Y-42810720D01*
X88031591Y-39711046D02*
X87675164Y-39602925D01*
X87280192Y-88353617D02*
X87650864Y-88317109D01*
X162400600Y-41837889D02*
X162508721Y-42194316D01*
X86577393Y-39711046D02*
X86248909Y-39886625D01*
X165995163Y-87181516D02*
X166103284Y-86825089D01*
X162920589Y-40123714D02*
X162684300Y-40411634D01*
X163869120Y-84590925D02*
X163512693Y-84699046D01*
X87675164Y-39602925D02*
X87304492Y-39566417D01*
X84780292Y-38967317D02*
X84780292Y-88967317D01*
X89167984Y-41095745D02*
X89059863Y-40739318D01*
D11*
X163820000Y-67650000D03*
X163820000Y-69650000D03*
X163820000Y-71650000D03*
X163820000Y-73650000D03*
X160015000Y-47800000D03*
X162555000Y-47800000D03*
X160015000Y-50340000D03*
X162555000Y-50340000D03*
X160015000Y-52880000D03*
X162555000Y-52880000D03*
X88770000Y-60620000D03*
X88770000Y-63160000D03*
X115860000Y-71805000D03*
X113860000Y-65805000D03*
X101660000Y-65805000D03*
X101660000Y-77805000D03*
X113860000Y-77805000D03*
X112540000Y-41980000D03*
X110540000Y-41980000D03*
X108540000Y-41980000D03*
X114640000Y-41980000D03*
X106440000Y-41980000D03*
X121910000Y-75620000D03*
X121910000Y-68000000D03*
D12*
X143870000Y-47460000D03*
X143870000Y-48860000D03*
X144570000Y-46760000D03*
X144570000Y-48160000D03*
X144570000Y-49560000D03*
X145270000Y-47460000D03*
X145270000Y-48860000D03*
X145970000Y-46760000D03*
X145970000Y-48160000D03*
X145970000Y-49560000D03*
X146670000Y-47460000D03*
X146670000Y-48860000D03*
D11*
X140375000Y-82960000D03*
X140375000Y-85500000D03*
X142915000Y-82960000D03*
X142915000Y-85500000D03*
X145455000Y-82960000D03*
X145455000Y-85500000D03*
X147995000Y-82960000D03*
X147995000Y-85500000D03*
X150535000Y-82960000D03*
X150535000Y-85500000D03*
X153075000Y-82960000D03*
X153075000Y-85500000D03*
X158690000Y-61950000D03*
X158690000Y-63950000D03*
X158690000Y-65950000D03*
X158690000Y-67950000D03*
X158690000Y-69950000D03*
X158690000Y-71950000D03*
X158690000Y-73950000D03*
X158690000Y-75950000D03*
X158690000Y-77950000D03*
X99360000Y-45675000D03*
X93580000Y-45675000D03*
D13*
X100790000Y-46195000D03*
D14*
X100790000Y-41995000D03*
D13*
X92150000Y-46195000D03*
D14*
X92150000Y-41995000D03*
D11*
X90475000Y-74325000D03*
X90475000Y-71785000D03*
X90475000Y-69245000D03*
M02*
