%TF.GenerationSoftware,KiCad,Pcbnew,9.0.5*%
%TF.CreationDate,2026-02-07T16:21:02+05:30*%
%TF.ProjectId,ESP S3 _ MONITOR,45535020-5333-4205-9f20-4d4f4e49544f,rev?*%
%TF.SameCoordinates,Original*%
%TF.FileFunction,Legend,Top*%
%TF.FilePolarity,Positive*%
%FSLAX46Y46*%
G04 Gerber Fmt 4.6, Leading zero omitted, Abs format (unit mm)*
G04 Created by KiCad (PCBNEW 9.0.5) date 2026-02-07 16:21:02*
%MOMM*%
%LPD*%
G01*
G04 APERTURE LIST*
%ADD10C,0.100000*%
%ADD11C,0.112500*%
%ADD12C,0.175000*%
%ADD13C,0.150000*%
%ADD14C,0.120000*%
%ADD15C,0.127000*%
%ADD16C,0.200000*%
%ADD17C,0.152400*%
%ADD18C,0.350000*%
%ADD19C,0.200000*%
%ADD20O,0.600000X1.700000*%
%ADD21O,0.600000X1.400000*%
G04 APERTURE END LIST*
D10*
X133790000Y-59880000D02*
X128750000Y-59880000D01*
X128750000Y-59880000D02*
X128750000Y-63920000D01*
D11*
X113863778Y-46548298D02*
X113842350Y-46526870D01*
X113842350Y-46526870D02*
X113820921Y-46462584D01*
X113820921Y-46462584D02*
X113820921Y-46419727D01*
X113820921Y-46419727D02*
X113842350Y-46355441D01*
X113842350Y-46355441D02*
X113885207Y-46312584D01*
X113885207Y-46312584D02*
X113928064Y-46291155D01*
X113928064Y-46291155D02*
X114013778Y-46269727D01*
X114013778Y-46269727D02*
X114078064Y-46269727D01*
X114078064Y-46269727D02*
X114163778Y-46291155D01*
X114163778Y-46291155D02*
X114206635Y-46312584D01*
X114206635Y-46312584D02*
X114249492Y-46355441D01*
X114249492Y-46355441D02*
X114270921Y-46419727D01*
X114270921Y-46419727D02*
X114270921Y-46462584D01*
X114270921Y-46462584D02*
X114249492Y-46526870D01*
X114249492Y-46526870D02*
X114228064Y-46548298D01*
X114078064Y-46805441D02*
X114099492Y-46762584D01*
X114099492Y-46762584D02*
X114120921Y-46741155D01*
X114120921Y-46741155D02*
X114163778Y-46719727D01*
X114163778Y-46719727D02*
X114185207Y-46719727D01*
X114185207Y-46719727D02*
X114228064Y-46741155D01*
X114228064Y-46741155D02*
X114249492Y-46762584D01*
X114249492Y-46762584D02*
X114270921Y-46805441D01*
X114270921Y-46805441D02*
X114270921Y-46891155D01*
X114270921Y-46891155D02*
X114249492Y-46934013D01*
X114249492Y-46934013D02*
X114228064Y-46955441D01*
X114228064Y-46955441D02*
X114185207Y-46976870D01*
X114185207Y-46976870D02*
X114163778Y-46976870D01*
X114163778Y-46976870D02*
X114120921Y-46955441D01*
X114120921Y-46955441D02*
X114099492Y-46934013D01*
X114099492Y-46934013D02*
X114078064Y-46891155D01*
X114078064Y-46891155D02*
X114078064Y-46805441D01*
X114078064Y-46805441D02*
X114056635Y-46762584D01*
X114056635Y-46762584D02*
X114035207Y-46741155D01*
X114035207Y-46741155D02*
X113992350Y-46719727D01*
X113992350Y-46719727D02*
X113906635Y-46719727D01*
X113906635Y-46719727D02*
X113863778Y-46741155D01*
X113863778Y-46741155D02*
X113842350Y-46762584D01*
X113842350Y-46762584D02*
X113820921Y-46805441D01*
X113820921Y-46805441D02*
X113820921Y-46891155D01*
X113820921Y-46891155D02*
X113842350Y-46934013D01*
X113842350Y-46934013D02*
X113863778Y-46955441D01*
X113863778Y-46955441D02*
X113906635Y-46976870D01*
X113906635Y-46976870D02*
X113992350Y-46976870D01*
X113992350Y-46976870D02*
X114035207Y-46955441D01*
X114035207Y-46955441D02*
X114056635Y-46934013D01*
X114056635Y-46934013D02*
X114078064Y-46891155D01*
X95040921Y-75588298D02*
X94590921Y-75888298D01*
X95040921Y-75888298D02*
X94590921Y-75588298D01*
X94998064Y-76038298D02*
X95019492Y-76059726D01*
X95019492Y-76059726D02*
X95040921Y-76102584D01*
X95040921Y-76102584D02*
X95040921Y-76209726D01*
X95040921Y-76209726D02*
X95019492Y-76252584D01*
X95019492Y-76252584D02*
X94998064Y-76274012D01*
X94998064Y-76274012D02*
X94955207Y-76295441D01*
X94955207Y-76295441D02*
X94912350Y-76295441D01*
X94912350Y-76295441D02*
X94848064Y-76274012D01*
X94848064Y-76274012D02*
X94590921Y-76016869D01*
X94590921Y-76016869D02*
X94590921Y-76295441D01*
X123156870Y-62869078D02*
X123414013Y-62869078D01*
X123285441Y-63319078D02*
X123285441Y-62869078D01*
X123521155Y-62869078D02*
X123799727Y-62869078D01*
X123799727Y-62869078D02*
X123649727Y-63040507D01*
X123649727Y-63040507D02*
X123714012Y-63040507D01*
X123714012Y-63040507D02*
X123756870Y-63061935D01*
X123756870Y-63061935D02*
X123778298Y-63083364D01*
X123778298Y-63083364D02*
X123799727Y-63126221D01*
X123799727Y-63126221D02*
X123799727Y-63233364D01*
X123799727Y-63233364D02*
X123778298Y-63276221D01*
X123778298Y-63276221D02*
X123756870Y-63297650D01*
X123756870Y-63297650D02*
X123714012Y-63319078D01*
X123714012Y-63319078D02*
X123585441Y-63319078D01*
X123585441Y-63319078D02*
X123542584Y-63297650D01*
X123542584Y-63297650D02*
X123521155Y-63276221D01*
X116878298Y-62069078D02*
X116728298Y-61854792D01*
X116621155Y-62069078D02*
X116621155Y-61619078D01*
X116621155Y-61619078D02*
X116792584Y-61619078D01*
X116792584Y-61619078D02*
X116835441Y-61640507D01*
X116835441Y-61640507D02*
X116856870Y-61661935D01*
X116856870Y-61661935D02*
X116878298Y-61704792D01*
X116878298Y-61704792D02*
X116878298Y-61769078D01*
X116878298Y-61769078D02*
X116856870Y-61811935D01*
X116856870Y-61811935D02*
X116835441Y-61833364D01*
X116835441Y-61833364D02*
X116792584Y-61854792D01*
X116792584Y-61854792D02*
X116621155Y-61854792D01*
X117306870Y-62069078D02*
X117049727Y-62069078D01*
X117178298Y-62069078D02*
X117178298Y-61619078D01*
X117178298Y-61619078D02*
X117135441Y-61683364D01*
X117135441Y-61683364D02*
X117092584Y-61726221D01*
X117092584Y-61726221D02*
X117049727Y-61747650D01*
X117456869Y-61619078D02*
X117756869Y-61619078D01*
X117756869Y-61619078D02*
X117564012Y-62069078D01*
X131956870Y-77499078D02*
X132214013Y-77499078D01*
X132085441Y-77949078D02*
X132085441Y-77499078D01*
X132599727Y-77949078D02*
X132342584Y-77949078D01*
X132471155Y-77949078D02*
X132471155Y-77499078D01*
X132471155Y-77499078D02*
X132428298Y-77563364D01*
X132428298Y-77563364D02*
X132385441Y-77606221D01*
X132385441Y-77606221D02*
X132342584Y-77627650D01*
X158348298Y-79839078D02*
X158648298Y-80289078D01*
X158648298Y-79839078D02*
X158348298Y-80289078D01*
X158776869Y-79839078D02*
X159055441Y-79839078D01*
X159055441Y-79839078D02*
X158905441Y-80010507D01*
X158905441Y-80010507D02*
X158969726Y-80010507D01*
X158969726Y-80010507D02*
X159012584Y-80031935D01*
X159012584Y-80031935D02*
X159034012Y-80053364D01*
X159034012Y-80053364D02*
X159055441Y-80096221D01*
X159055441Y-80096221D02*
X159055441Y-80203364D01*
X159055441Y-80203364D02*
X159034012Y-80246221D01*
X159034012Y-80246221D02*
X159012584Y-80267650D01*
X159012584Y-80267650D02*
X158969726Y-80289078D01*
X158969726Y-80289078D02*
X158841155Y-80289078D01*
X158841155Y-80289078D02*
X158798298Y-80267650D01*
X158798298Y-80267650D02*
X158776869Y-80246221D01*
X85616635Y-60261155D02*
X85595207Y-60325441D01*
X85595207Y-60325441D02*
X85573778Y-60346870D01*
X85573778Y-60346870D02*
X85530921Y-60368298D01*
X85530921Y-60368298D02*
X85466635Y-60368298D01*
X85466635Y-60368298D02*
X85423778Y-60346870D01*
X85423778Y-60346870D02*
X85402350Y-60325441D01*
X85402350Y-60325441D02*
X85380921Y-60282584D01*
X85380921Y-60282584D02*
X85380921Y-60111155D01*
X85380921Y-60111155D02*
X85830921Y-60111155D01*
X85830921Y-60111155D02*
X85830921Y-60261155D01*
X85830921Y-60261155D02*
X85809492Y-60304013D01*
X85809492Y-60304013D02*
X85788064Y-60325441D01*
X85788064Y-60325441D02*
X85745207Y-60346870D01*
X85745207Y-60346870D02*
X85702350Y-60346870D01*
X85702350Y-60346870D02*
X85659492Y-60325441D01*
X85659492Y-60325441D02*
X85638064Y-60304013D01*
X85638064Y-60304013D02*
X85616635Y-60261155D01*
X85616635Y-60261155D02*
X85616635Y-60111155D01*
X85509492Y-60539727D02*
X85509492Y-60754013D01*
X85380921Y-60496870D02*
X85830921Y-60646870D01*
X85830921Y-60646870D02*
X85380921Y-60796870D01*
X85830921Y-60882584D02*
X85830921Y-61139727D01*
X85380921Y-61011155D02*
X85830921Y-61011155D01*
X85830921Y-61225441D02*
X85830921Y-61482584D01*
X85380921Y-61354012D02*
X85830921Y-61354012D01*
X85616635Y-61632583D02*
X85616635Y-61782583D01*
X85380921Y-61846869D02*
X85380921Y-61632583D01*
X85380921Y-61632583D02*
X85830921Y-61632583D01*
X85830921Y-61632583D02*
X85830921Y-61846869D01*
X85380921Y-62296869D02*
X85595207Y-62146869D01*
X85380921Y-62039726D02*
X85830921Y-62039726D01*
X85830921Y-62039726D02*
X85830921Y-62211155D01*
X85830921Y-62211155D02*
X85809492Y-62254012D01*
X85809492Y-62254012D02*
X85788064Y-62275441D01*
X85788064Y-62275441D02*
X85745207Y-62296869D01*
X85745207Y-62296869D02*
X85680921Y-62296869D01*
X85680921Y-62296869D02*
X85638064Y-62275441D01*
X85638064Y-62275441D02*
X85616635Y-62254012D01*
X85616635Y-62254012D02*
X85595207Y-62211155D01*
X85595207Y-62211155D02*
X85595207Y-62039726D01*
X85595207Y-62575441D02*
X85380921Y-62575441D01*
X85830921Y-62425441D02*
X85595207Y-62575441D01*
X85595207Y-62575441D02*
X85830921Y-62725441D01*
X85338064Y-62768298D02*
X85338064Y-63111155D01*
X85830921Y-63154012D02*
X85830921Y-63411155D01*
X85380921Y-63282583D02*
X85830921Y-63282583D01*
X85616635Y-63561154D02*
X85616635Y-63711154D01*
X85380921Y-63775440D02*
X85380921Y-63561154D01*
X85380921Y-63561154D02*
X85830921Y-63561154D01*
X85830921Y-63561154D02*
X85830921Y-63775440D01*
X85380921Y-64225440D02*
X85595207Y-64075440D01*
X85380921Y-63968297D02*
X85830921Y-63968297D01*
X85830921Y-63968297D02*
X85830921Y-64139726D01*
X85830921Y-64139726D02*
X85809492Y-64182583D01*
X85809492Y-64182583D02*
X85788064Y-64204012D01*
X85788064Y-64204012D02*
X85745207Y-64225440D01*
X85745207Y-64225440D02*
X85680921Y-64225440D01*
X85680921Y-64225440D02*
X85638064Y-64204012D01*
X85638064Y-64204012D02*
X85616635Y-64182583D01*
X85616635Y-64182583D02*
X85595207Y-64139726D01*
X85595207Y-64139726D02*
X85595207Y-63968297D01*
X85423778Y-64418297D02*
X85402350Y-64439726D01*
X85402350Y-64439726D02*
X85380921Y-64418297D01*
X85380921Y-64418297D02*
X85402350Y-64396869D01*
X85402350Y-64396869D02*
X85423778Y-64418297D01*
X85423778Y-64418297D02*
X85380921Y-64418297D01*
X161979078Y-72398844D02*
X161529078Y-72398844D01*
X161529078Y-72398844D02*
X161850507Y-72248844D01*
X161850507Y-72248844D02*
X161529078Y-72098844D01*
X161529078Y-72098844D02*
X161979078Y-72098844D01*
X161529078Y-71798843D02*
X161529078Y-71713129D01*
X161529078Y-71713129D02*
X161550507Y-71670272D01*
X161550507Y-71670272D02*
X161593364Y-71627415D01*
X161593364Y-71627415D02*
X161679078Y-71605986D01*
X161679078Y-71605986D02*
X161829078Y-71605986D01*
X161829078Y-71605986D02*
X161914792Y-71627415D01*
X161914792Y-71627415D02*
X161957650Y-71670272D01*
X161957650Y-71670272D02*
X161979078Y-71713129D01*
X161979078Y-71713129D02*
X161979078Y-71798843D01*
X161979078Y-71798843D02*
X161957650Y-71841701D01*
X161957650Y-71841701D02*
X161914792Y-71884558D01*
X161914792Y-71884558D02*
X161829078Y-71905986D01*
X161829078Y-71905986D02*
X161679078Y-71905986D01*
X161679078Y-71905986D02*
X161593364Y-71884558D01*
X161593364Y-71884558D02*
X161550507Y-71841701D01*
X161550507Y-71841701D02*
X161529078Y-71798843D01*
X161957650Y-71434557D02*
X161979078Y-71370272D01*
X161979078Y-71370272D02*
X161979078Y-71263129D01*
X161979078Y-71263129D02*
X161957650Y-71220272D01*
X161957650Y-71220272D02*
X161936221Y-71198843D01*
X161936221Y-71198843D02*
X161893364Y-71177414D01*
X161893364Y-71177414D02*
X161850507Y-71177414D01*
X161850507Y-71177414D02*
X161807650Y-71198843D01*
X161807650Y-71198843D02*
X161786221Y-71220272D01*
X161786221Y-71220272D02*
X161764792Y-71263129D01*
X161764792Y-71263129D02*
X161743364Y-71348843D01*
X161743364Y-71348843D02*
X161721935Y-71391700D01*
X161721935Y-71391700D02*
X161700507Y-71413129D01*
X161700507Y-71413129D02*
X161657650Y-71434557D01*
X161657650Y-71434557D02*
X161614792Y-71434557D01*
X161614792Y-71434557D02*
X161571935Y-71413129D01*
X161571935Y-71413129D02*
X161550507Y-71391700D01*
X161550507Y-71391700D02*
X161529078Y-71348843D01*
X161529078Y-71348843D02*
X161529078Y-71241700D01*
X161529078Y-71241700D02*
X161550507Y-71177414D01*
X161979078Y-70984558D02*
X161529078Y-70984558D01*
X157201154Y-47913364D02*
X157351154Y-47913364D01*
X157415440Y-48149078D02*
X157201154Y-48149078D01*
X157201154Y-48149078D02*
X157201154Y-47699078D01*
X157201154Y-47699078D02*
X157415440Y-47699078D01*
X157608297Y-48149078D02*
X157608297Y-47699078D01*
X157608297Y-47699078D02*
X157865440Y-48149078D01*
X157865440Y-48149078D02*
X157865440Y-47699078D01*
X117371155Y-81343364D02*
X117435441Y-81364792D01*
X117435441Y-81364792D02*
X117456870Y-81386221D01*
X117456870Y-81386221D02*
X117478298Y-81429078D01*
X117478298Y-81429078D02*
X117478298Y-81493364D01*
X117478298Y-81493364D02*
X117456870Y-81536221D01*
X117456870Y-81536221D02*
X117435441Y-81557650D01*
X117435441Y-81557650D02*
X117392584Y-81579078D01*
X117392584Y-81579078D02*
X117221155Y-81579078D01*
X117221155Y-81579078D02*
X117221155Y-81129078D01*
X117221155Y-81129078D02*
X117371155Y-81129078D01*
X117371155Y-81129078D02*
X117414013Y-81150507D01*
X117414013Y-81150507D02*
X117435441Y-81171935D01*
X117435441Y-81171935D02*
X117456870Y-81214792D01*
X117456870Y-81214792D02*
X117456870Y-81257650D01*
X117456870Y-81257650D02*
X117435441Y-81300507D01*
X117435441Y-81300507D02*
X117414013Y-81321935D01*
X117414013Y-81321935D02*
X117371155Y-81343364D01*
X117371155Y-81343364D02*
X117221155Y-81343364D01*
X117628298Y-81129078D02*
X117906870Y-81129078D01*
X117906870Y-81129078D02*
X117756870Y-81300507D01*
X117756870Y-81300507D02*
X117821155Y-81300507D01*
X117821155Y-81300507D02*
X117864013Y-81321935D01*
X117864013Y-81321935D02*
X117885441Y-81343364D01*
X117885441Y-81343364D02*
X117906870Y-81386221D01*
X117906870Y-81386221D02*
X117906870Y-81493364D01*
X117906870Y-81493364D02*
X117885441Y-81536221D01*
X117885441Y-81536221D02*
X117864013Y-81557650D01*
X117864013Y-81557650D02*
X117821155Y-81579078D01*
X117821155Y-81579078D02*
X117692584Y-81579078D01*
X117692584Y-81579078D02*
X117649727Y-81557650D01*
X117649727Y-81557650D02*
X117628298Y-81536221D01*
X144931155Y-80689078D02*
X144931155Y-80239078D01*
X144931155Y-80239078D02*
X145038298Y-80239078D01*
X145038298Y-80239078D02*
X145102584Y-80260507D01*
X145102584Y-80260507D02*
X145145441Y-80303364D01*
X145145441Y-80303364D02*
X145166870Y-80346221D01*
X145166870Y-80346221D02*
X145188298Y-80431935D01*
X145188298Y-80431935D02*
X145188298Y-80496221D01*
X145188298Y-80496221D02*
X145166870Y-80581935D01*
X145166870Y-80581935D02*
X145145441Y-80624792D01*
X145145441Y-80624792D02*
X145102584Y-80667650D01*
X145102584Y-80667650D02*
X145038298Y-80689078D01*
X145038298Y-80689078D02*
X144931155Y-80689078D01*
X145359727Y-80281935D02*
X145381155Y-80260507D01*
X145381155Y-80260507D02*
X145424013Y-80239078D01*
X145424013Y-80239078D02*
X145531155Y-80239078D01*
X145531155Y-80239078D02*
X145574013Y-80260507D01*
X145574013Y-80260507D02*
X145595441Y-80281935D01*
X145595441Y-80281935D02*
X145616870Y-80324792D01*
X145616870Y-80324792D02*
X145616870Y-80367650D01*
X145616870Y-80367650D02*
X145595441Y-80431935D01*
X145595441Y-80431935D02*
X145338298Y-80689078D01*
X145338298Y-80689078D02*
X145616870Y-80689078D01*
X146045441Y-80689078D02*
X145788298Y-80689078D01*
X145916869Y-80689078D02*
X145916869Y-80239078D01*
X145916869Y-80239078D02*
X145874012Y-80303364D01*
X145874012Y-80303364D02*
X145831155Y-80346221D01*
X145831155Y-80346221D02*
X145788298Y-80367650D01*
X161936221Y-73811701D02*
X161957650Y-73833129D01*
X161957650Y-73833129D02*
X161979078Y-73897415D01*
X161979078Y-73897415D02*
X161979078Y-73940272D01*
X161979078Y-73940272D02*
X161957650Y-74004558D01*
X161957650Y-74004558D02*
X161914792Y-74047415D01*
X161914792Y-74047415D02*
X161871935Y-74068844D01*
X161871935Y-74068844D02*
X161786221Y-74090272D01*
X161786221Y-74090272D02*
X161721935Y-74090272D01*
X161721935Y-74090272D02*
X161636221Y-74068844D01*
X161636221Y-74068844D02*
X161593364Y-74047415D01*
X161593364Y-74047415D02*
X161550507Y-74004558D01*
X161550507Y-74004558D02*
X161529078Y-73940272D01*
X161529078Y-73940272D02*
X161529078Y-73897415D01*
X161529078Y-73897415D02*
X161550507Y-73833129D01*
X161550507Y-73833129D02*
X161571935Y-73811701D01*
X161957650Y-73640272D02*
X161979078Y-73575987D01*
X161979078Y-73575987D02*
X161979078Y-73468844D01*
X161979078Y-73468844D02*
X161957650Y-73425987D01*
X161957650Y-73425987D02*
X161936221Y-73404558D01*
X161936221Y-73404558D02*
X161893364Y-73383129D01*
X161893364Y-73383129D02*
X161850507Y-73383129D01*
X161850507Y-73383129D02*
X161807650Y-73404558D01*
X161807650Y-73404558D02*
X161786221Y-73425987D01*
X161786221Y-73425987D02*
X161764792Y-73468844D01*
X161764792Y-73468844D02*
X161743364Y-73554558D01*
X161743364Y-73554558D02*
X161721935Y-73597415D01*
X161721935Y-73597415D02*
X161700507Y-73618844D01*
X161700507Y-73618844D02*
X161657650Y-73640272D01*
X161657650Y-73640272D02*
X161614792Y-73640272D01*
X161614792Y-73640272D02*
X161571935Y-73618844D01*
X161571935Y-73618844D02*
X161550507Y-73597415D01*
X161550507Y-73597415D02*
X161529078Y-73554558D01*
X161529078Y-73554558D02*
X161529078Y-73447415D01*
X161529078Y-73447415D02*
X161550507Y-73383129D01*
X111549078Y-55831701D02*
X111334792Y-55981701D01*
X111549078Y-56088844D02*
X111099078Y-56088844D01*
X111099078Y-56088844D02*
X111099078Y-55917415D01*
X111099078Y-55917415D02*
X111120507Y-55874558D01*
X111120507Y-55874558D02*
X111141935Y-55853129D01*
X111141935Y-55853129D02*
X111184792Y-55831701D01*
X111184792Y-55831701D02*
X111249078Y-55831701D01*
X111249078Y-55831701D02*
X111291935Y-55853129D01*
X111291935Y-55853129D02*
X111313364Y-55874558D01*
X111313364Y-55874558D02*
X111334792Y-55917415D01*
X111334792Y-55917415D02*
X111334792Y-56088844D01*
X111549078Y-55403129D02*
X111549078Y-55660272D01*
X111549078Y-55531701D02*
X111099078Y-55531701D01*
X111099078Y-55531701D02*
X111163364Y-55574558D01*
X111163364Y-55574558D02*
X111206221Y-55617415D01*
X111206221Y-55617415D02*
X111227650Y-55660272D01*
X111099078Y-54995987D02*
X111099078Y-55210273D01*
X111099078Y-55210273D02*
X111313364Y-55231701D01*
X111313364Y-55231701D02*
X111291935Y-55210273D01*
X111291935Y-55210273D02*
X111270507Y-55167416D01*
X111270507Y-55167416D02*
X111270507Y-55060273D01*
X111270507Y-55060273D02*
X111291935Y-55017416D01*
X111291935Y-55017416D02*
X111313364Y-54995987D01*
X111313364Y-54995987D02*
X111356221Y-54974558D01*
X111356221Y-54974558D02*
X111463364Y-54974558D01*
X111463364Y-54974558D02*
X111506221Y-54995987D01*
X111506221Y-54995987D02*
X111527650Y-55017416D01*
X111527650Y-55017416D02*
X111549078Y-55060273D01*
X111549078Y-55060273D02*
X111549078Y-55167416D01*
X111549078Y-55167416D02*
X111527650Y-55210273D01*
X111527650Y-55210273D02*
X111506221Y-55231701D01*
X86969078Y-54861701D02*
X86754792Y-55011701D01*
X86969078Y-55118844D02*
X86519078Y-55118844D01*
X86519078Y-55118844D02*
X86519078Y-54947415D01*
X86519078Y-54947415D02*
X86540507Y-54904558D01*
X86540507Y-54904558D02*
X86561935Y-54883129D01*
X86561935Y-54883129D02*
X86604792Y-54861701D01*
X86604792Y-54861701D02*
X86669078Y-54861701D01*
X86669078Y-54861701D02*
X86711935Y-54883129D01*
X86711935Y-54883129D02*
X86733364Y-54904558D01*
X86733364Y-54904558D02*
X86754792Y-54947415D01*
X86754792Y-54947415D02*
X86754792Y-55118844D01*
X86519078Y-54454558D02*
X86519078Y-54668844D01*
X86519078Y-54668844D02*
X86733364Y-54690272D01*
X86733364Y-54690272D02*
X86711935Y-54668844D01*
X86711935Y-54668844D02*
X86690507Y-54625987D01*
X86690507Y-54625987D02*
X86690507Y-54518844D01*
X86690507Y-54518844D02*
X86711935Y-54475987D01*
X86711935Y-54475987D02*
X86733364Y-54454558D01*
X86733364Y-54454558D02*
X86776221Y-54433129D01*
X86776221Y-54433129D02*
X86883364Y-54433129D01*
X86883364Y-54433129D02*
X86926221Y-54454558D01*
X86926221Y-54454558D02*
X86947650Y-54475987D01*
X86947650Y-54475987D02*
X86969078Y-54518844D01*
X86969078Y-54518844D02*
X86969078Y-54625987D01*
X86969078Y-54625987D02*
X86947650Y-54668844D01*
X86947650Y-54668844D02*
X86926221Y-54690272D01*
X130306870Y-72749078D02*
X130564013Y-72749078D01*
X130435441Y-73199078D02*
X130435441Y-72749078D01*
X130692584Y-72791935D02*
X130714012Y-72770507D01*
X130714012Y-72770507D02*
X130756870Y-72749078D01*
X130756870Y-72749078D02*
X130864012Y-72749078D01*
X130864012Y-72749078D02*
X130906870Y-72770507D01*
X130906870Y-72770507D02*
X130928298Y-72791935D01*
X130928298Y-72791935D02*
X130949727Y-72834792D01*
X130949727Y-72834792D02*
X130949727Y-72877650D01*
X130949727Y-72877650D02*
X130928298Y-72941935D01*
X130928298Y-72941935D02*
X130671155Y-73199078D01*
X130671155Y-73199078D02*
X130949727Y-73199078D01*
X142471155Y-80689078D02*
X142471155Y-80239078D01*
X142471155Y-80239078D02*
X142578298Y-80239078D01*
X142578298Y-80239078D02*
X142642584Y-80260507D01*
X142642584Y-80260507D02*
X142685441Y-80303364D01*
X142685441Y-80303364D02*
X142706870Y-80346221D01*
X142706870Y-80346221D02*
X142728298Y-80431935D01*
X142728298Y-80431935D02*
X142728298Y-80496221D01*
X142728298Y-80496221D02*
X142706870Y-80581935D01*
X142706870Y-80581935D02*
X142685441Y-80624792D01*
X142685441Y-80624792D02*
X142642584Y-80667650D01*
X142642584Y-80667650D02*
X142578298Y-80689078D01*
X142578298Y-80689078D02*
X142471155Y-80689078D01*
X143156870Y-80689078D02*
X142899727Y-80689078D01*
X143028298Y-80689078D02*
X143028298Y-80239078D01*
X143028298Y-80239078D02*
X142985441Y-80303364D01*
X142985441Y-80303364D02*
X142942584Y-80346221D01*
X142942584Y-80346221D02*
X142899727Y-80367650D01*
X143328298Y-80281935D02*
X143349726Y-80260507D01*
X143349726Y-80260507D02*
X143392584Y-80239078D01*
X143392584Y-80239078D02*
X143499726Y-80239078D01*
X143499726Y-80239078D02*
X143542584Y-80260507D01*
X143542584Y-80260507D02*
X143564012Y-80281935D01*
X143564012Y-80281935D02*
X143585441Y-80324792D01*
X143585441Y-80324792D02*
X143585441Y-80367650D01*
X143585441Y-80367650D02*
X143564012Y-80431935D01*
X143564012Y-80431935D02*
X143306869Y-80689078D01*
X143306869Y-80689078D02*
X143585441Y-80689078D01*
X96708298Y-58476221D02*
X96686870Y-58497650D01*
X96686870Y-58497650D02*
X96622584Y-58519078D01*
X96622584Y-58519078D02*
X96579727Y-58519078D01*
X96579727Y-58519078D02*
X96515441Y-58497650D01*
X96515441Y-58497650D02*
X96472584Y-58454792D01*
X96472584Y-58454792D02*
X96451155Y-58411935D01*
X96451155Y-58411935D02*
X96429727Y-58326221D01*
X96429727Y-58326221D02*
X96429727Y-58261935D01*
X96429727Y-58261935D02*
X96451155Y-58176221D01*
X96451155Y-58176221D02*
X96472584Y-58133364D01*
X96472584Y-58133364D02*
X96515441Y-58090507D01*
X96515441Y-58090507D02*
X96579727Y-58069078D01*
X96579727Y-58069078D02*
X96622584Y-58069078D01*
X96622584Y-58069078D02*
X96686870Y-58090507D01*
X96686870Y-58090507D02*
X96708298Y-58111935D01*
X96879727Y-58111935D02*
X96901155Y-58090507D01*
X96901155Y-58090507D02*
X96944013Y-58069078D01*
X96944013Y-58069078D02*
X97051155Y-58069078D01*
X97051155Y-58069078D02*
X97094013Y-58090507D01*
X97094013Y-58090507D02*
X97115441Y-58111935D01*
X97115441Y-58111935D02*
X97136870Y-58154792D01*
X97136870Y-58154792D02*
X97136870Y-58197650D01*
X97136870Y-58197650D02*
X97115441Y-58261935D01*
X97115441Y-58261935D02*
X96858298Y-58519078D01*
X96858298Y-58519078D02*
X97136870Y-58519078D01*
X139961155Y-88079078D02*
X139961155Y-87629078D01*
X139961155Y-87629078D02*
X140068298Y-87629078D01*
X140068298Y-87629078D02*
X140132584Y-87650507D01*
X140132584Y-87650507D02*
X140175441Y-87693364D01*
X140175441Y-87693364D02*
X140196870Y-87736221D01*
X140196870Y-87736221D02*
X140218298Y-87821935D01*
X140218298Y-87821935D02*
X140218298Y-87886221D01*
X140218298Y-87886221D02*
X140196870Y-87971935D01*
X140196870Y-87971935D02*
X140175441Y-88014792D01*
X140175441Y-88014792D02*
X140132584Y-88057650D01*
X140132584Y-88057650D02*
X140068298Y-88079078D01*
X140068298Y-88079078D02*
X139961155Y-88079078D01*
X140604013Y-87779078D02*
X140604013Y-88079078D01*
X140496870Y-87607650D02*
X140389727Y-87929078D01*
X140389727Y-87929078D02*
X140668298Y-87929078D01*
X140818298Y-87671935D02*
X140839726Y-87650507D01*
X140839726Y-87650507D02*
X140882584Y-87629078D01*
X140882584Y-87629078D02*
X140989726Y-87629078D01*
X140989726Y-87629078D02*
X141032584Y-87650507D01*
X141032584Y-87650507D02*
X141054012Y-87671935D01*
X141054012Y-87671935D02*
X141075441Y-87714792D01*
X141075441Y-87714792D02*
X141075441Y-87757650D01*
X141075441Y-87757650D02*
X141054012Y-87821935D01*
X141054012Y-87821935D02*
X140796869Y-88079078D01*
X140796869Y-88079078D02*
X141075441Y-88079078D01*
X105228298Y-59776221D02*
X105206870Y-59797650D01*
X105206870Y-59797650D02*
X105142584Y-59819078D01*
X105142584Y-59819078D02*
X105099727Y-59819078D01*
X105099727Y-59819078D02*
X105035441Y-59797650D01*
X105035441Y-59797650D02*
X104992584Y-59754792D01*
X104992584Y-59754792D02*
X104971155Y-59711935D01*
X104971155Y-59711935D02*
X104949727Y-59626221D01*
X104949727Y-59626221D02*
X104949727Y-59561935D01*
X104949727Y-59561935D02*
X104971155Y-59476221D01*
X104971155Y-59476221D02*
X104992584Y-59433364D01*
X104992584Y-59433364D02*
X105035441Y-59390507D01*
X105035441Y-59390507D02*
X105099727Y-59369078D01*
X105099727Y-59369078D02*
X105142584Y-59369078D01*
X105142584Y-59369078D02*
X105206870Y-59390507D01*
X105206870Y-59390507D02*
X105228298Y-59411935D01*
X105614013Y-59519078D02*
X105614013Y-59819078D01*
X105506870Y-59347650D02*
X105399727Y-59669078D01*
X105399727Y-59669078D02*
X105678298Y-59669078D01*
X103828298Y-82249078D02*
X103678298Y-82034792D01*
X103571155Y-82249078D02*
X103571155Y-81799078D01*
X103571155Y-81799078D02*
X103742584Y-81799078D01*
X103742584Y-81799078D02*
X103785441Y-81820507D01*
X103785441Y-81820507D02*
X103806870Y-81841935D01*
X103806870Y-81841935D02*
X103828298Y-81884792D01*
X103828298Y-81884792D02*
X103828298Y-81949078D01*
X103828298Y-81949078D02*
X103806870Y-81991935D01*
X103806870Y-81991935D02*
X103785441Y-82013364D01*
X103785441Y-82013364D02*
X103742584Y-82034792D01*
X103742584Y-82034792D02*
X103571155Y-82034792D01*
X103999727Y-81841935D02*
X104021155Y-81820507D01*
X104021155Y-81820507D02*
X104064013Y-81799078D01*
X104064013Y-81799078D02*
X104171155Y-81799078D01*
X104171155Y-81799078D02*
X104214013Y-81820507D01*
X104214013Y-81820507D02*
X104235441Y-81841935D01*
X104235441Y-81841935D02*
X104256870Y-81884792D01*
X104256870Y-81884792D02*
X104256870Y-81927650D01*
X104256870Y-81927650D02*
X104235441Y-81991935D01*
X104235441Y-81991935D02*
X103978298Y-82249078D01*
X103978298Y-82249078D02*
X104256870Y-82249078D01*
X104642584Y-81949078D02*
X104642584Y-82249078D01*
X104535441Y-81777650D02*
X104428298Y-82099078D01*
X104428298Y-82099078D02*
X104706869Y-82099078D01*
X121948298Y-79099078D02*
X121798298Y-78884792D01*
X121691155Y-79099078D02*
X121691155Y-78649078D01*
X121691155Y-78649078D02*
X121862584Y-78649078D01*
X121862584Y-78649078D02*
X121905441Y-78670507D01*
X121905441Y-78670507D02*
X121926870Y-78691935D01*
X121926870Y-78691935D02*
X121948298Y-78734792D01*
X121948298Y-78734792D02*
X121948298Y-78799078D01*
X121948298Y-78799078D02*
X121926870Y-78841935D01*
X121926870Y-78841935D02*
X121905441Y-78863364D01*
X121905441Y-78863364D02*
X121862584Y-78884792D01*
X121862584Y-78884792D02*
X121691155Y-78884792D01*
X122119727Y-78691935D02*
X122141155Y-78670507D01*
X122141155Y-78670507D02*
X122184013Y-78649078D01*
X122184013Y-78649078D02*
X122291155Y-78649078D01*
X122291155Y-78649078D02*
X122334013Y-78670507D01*
X122334013Y-78670507D02*
X122355441Y-78691935D01*
X122355441Y-78691935D02*
X122376870Y-78734792D01*
X122376870Y-78734792D02*
X122376870Y-78777650D01*
X122376870Y-78777650D02*
X122355441Y-78841935D01*
X122355441Y-78841935D02*
X122098298Y-79099078D01*
X122098298Y-79099078D02*
X122376870Y-79099078D01*
X122548298Y-78691935D02*
X122569726Y-78670507D01*
X122569726Y-78670507D02*
X122612584Y-78649078D01*
X122612584Y-78649078D02*
X122719726Y-78649078D01*
X122719726Y-78649078D02*
X122762584Y-78670507D01*
X122762584Y-78670507D02*
X122784012Y-78691935D01*
X122784012Y-78691935D02*
X122805441Y-78734792D01*
X122805441Y-78734792D02*
X122805441Y-78777650D01*
X122805441Y-78777650D02*
X122784012Y-78841935D01*
X122784012Y-78841935D02*
X122526869Y-79099078D01*
X122526869Y-79099078D02*
X122805441Y-79099078D01*
X128233364Y-49128844D02*
X128254792Y-49064558D01*
X128254792Y-49064558D02*
X128276221Y-49043129D01*
X128276221Y-49043129D02*
X128319078Y-49021701D01*
X128319078Y-49021701D02*
X128383364Y-49021701D01*
X128383364Y-49021701D02*
X128426221Y-49043129D01*
X128426221Y-49043129D02*
X128447650Y-49064558D01*
X128447650Y-49064558D02*
X128469078Y-49107415D01*
X128469078Y-49107415D02*
X128469078Y-49278844D01*
X128469078Y-49278844D02*
X128019078Y-49278844D01*
X128019078Y-49278844D02*
X128019078Y-49128844D01*
X128019078Y-49128844D02*
X128040507Y-49085987D01*
X128040507Y-49085987D02*
X128061935Y-49064558D01*
X128061935Y-49064558D02*
X128104792Y-49043129D01*
X128104792Y-49043129D02*
X128147650Y-49043129D01*
X128147650Y-49043129D02*
X128190507Y-49064558D01*
X128190507Y-49064558D02*
X128211935Y-49085987D01*
X128211935Y-49085987D02*
X128233364Y-49128844D01*
X128233364Y-49128844D02*
X128233364Y-49278844D01*
X128019078Y-48614558D02*
X128019078Y-48828844D01*
X128019078Y-48828844D02*
X128233364Y-48850272D01*
X128233364Y-48850272D02*
X128211935Y-48828844D01*
X128211935Y-48828844D02*
X128190507Y-48785987D01*
X128190507Y-48785987D02*
X128190507Y-48678844D01*
X128190507Y-48678844D02*
X128211935Y-48635987D01*
X128211935Y-48635987D02*
X128233364Y-48614558D01*
X128233364Y-48614558D02*
X128276221Y-48593129D01*
X128276221Y-48593129D02*
X128383364Y-48593129D01*
X128383364Y-48593129D02*
X128426221Y-48614558D01*
X128426221Y-48614558D02*
X128447650Y-48635987D01*
X128447650Y-48635987D02*
X128469078Y-48678844D01*
X128469078Y-48678844D02*
X128469078Y-48785987D01*
X128469078Y-48785987D02*
X128447650Y-48828844D01*
X128447650Y-48828844D02*
X128426221Y-48850272D01*
X157629727Y-59551935D02*
X157651155Y-59530507D01*
X157651155Y-59530507D02*
X157694013Y-59509078D01*
X157694013Y-59509078D02*
X157801155Y-59509078D01*
X157801155Y-59509078D02*
X157844013Y-59530507D01*
X157844013Y-59530507D02*
X157865441Y-59551935D01*
X157865441Y-59551935D02*
X157886870Y-59594792D01*
X157886870Y-59594792D02*
X157886870Y-59637650D01*
X157886870Y-59637650D02*
X157865441Y-59701935D01*
X157865441Y-59701935D02*
X157608298Y-59959078D01*
X157608298Y-59959078D02*
X157886870Y-59959078D01*
X158079726Y-59916221D02*
X158101155Y-59937650D01*
X158101155Y-59937650D02*
X158079726Y-59959078D01*
X158079726Y-59959078D02*
X158058298Y-59937650D01*
X158058298Y-59937650D02*
X158079726Y-59916221D01*
X158079726Y-59916221D02*
X158079726Y-59959078D01*
X158358298Y-59701935D02*
X158315441Y-59680507D01*
X158315441Y-59680507D02*
X158294012Y-59659078D01*
X158294012Y-59659078D02*
X158272584Y-59616221D01*
X158272584Y-59616221D02*
X158272584Y-59594792D01*
X158272584Y-59594792D02*
X158294012Y-59551935D01*
X158294012Y-59551935D02*
X158315441Y-59530507D01*
X158315441Y-59530507D02*
X158358298Y-59509078D01*
X158358298Y-59509078D02*
X158444012Y-59509078D01*
X158444012Y-59509078D02*
X158486870Y-59530507D01*
X158486870Y-59530507D02*
X158508298Y-59551935D01*
X158508298Y-59551935D02*
X158529727Y-59594792D01*
X158529727Y-59594792D02*
X158529727Y-59616221D01*
X158529727Y-59616221D02*
X158508298Y-59659078D01*
X158508298Y-59659078D02*
X158486870Y-59680507D01*
X158486870Y-59680507D02*
X158444012Y-59701935D01*
X158444012Y-59701935D02*
X158358298Y-59701935D01*
X158358298Y-59701935D02*
X158315441Y-59723364D01*
X158315441Y-59723364D02*
X158294012Y-59744792D01*
X158294012Y-59744792D02*
X158272584Y-59787650D01*
X158272584Y-59787650D02*
X158272584Y-59873364D01*
X158272584Y-59873364D02*
X158294012Y-59916221D01*
X158294012Y-59916221D02*
X158315441Y-59937650D01*
X158315441Y-59937650D02*
X158358298Y-59959078D01*
X158358298Y-59959078D02*
X158444012Y-59959078D01*
X158444012Y-59959078D02*
X158486870Y-59937650D01*
X158486870Y-59937650D02*
X158508298Y-59916221D01*
X158508298Y-59916221D02*
X158529727Y-59873364D01*
X158529727Y-59873364D02*
X158529727Y-59787650D01*
X158529727Y-59787650D02*
X158508298Y-59744792D01*
X158508298Y-59744792D02*
X158486870Y-59723364D01*
X158486870Y-59723364D02*
X158444012Y-59701935D01*
X158615441Y-60001935D02*
X158958298Y-60001935D01*
X159001155Y-59509078D02*
X159258298Y-59509078D01*
X159129726Y-59959078D02*
X159129726Y-59509078D01*
X159558297Y-59723364D02*
X159408297Y-59723364D01*
X159408297Y-59959078D02*
X159408297Y-59509078D01*
X159408297Y-59509078D02*
X159622583Y-59509078D01*
X159729726Y-59509078D02*
X159986869Y-59509078D01*
X159858297Y-59959078D02*
X159858297Y-59509078D01*
X163558298Y-45349078D02*
X163858298Y-45799078D01*
X163858298Y-45349078D02*
X163558298Y-45799078D01*
X164222584Y-45349078D02*
X164136869Y-45349078D01*
X164136869Y-45349078D02*
X164094012Y-45370507D01*
X164094012Y-45370507D02*
X164072584Y-45391935D01*
X164072584Y-45391935D02*
X164029726Y-45456221D01*
X164029726Y-45456221D02*
X164008298Y-45541935D01*
X164008298Y-45541935D02*
X164008298Y-45713364D01*
X164008298Y-45713364D02*
X164029726Y-45756221D01*
X164029726Y-45756221D02*
X164051155Y-45777650D01*
X164051155Y-45777650D02*
X164094012Y-45799078D01*
X164094012Y-45799078D02*
X164179726Y-45799078D01*
X164179726Y-45799078D02*
X164222584Y-45777650D01*
X164222584Y-45777650D02*
X164244012Y-45756221D01*
X164244012Y-45756221D02*
X164265441Y-45713364D01*
X164265441Y-45713364D02*
X164265441Y-45606221D01*
X164265441Y-45606221D02*
X164244012Y-45563364D01*
X164244012Y-45563364D02*
X164222584Y-45541935D01*
X164222584Y-45541935D02*
X164179726Y-45520507D01*
X164179726Y-45520507D02*
X164094012Y-45520507D01*
X164094012Y-45520507D02*
X164051155Y-45541935D01*
X164051155Y-45541935D02*
X164029726Y-45563364D01*
X164029726Y-45563364D02*
X164008298Y-45606221D01*
X156769078Y-70238844D02*
X156319078Y-70238844D01*
X156319078Y-70238844D02*
X156319078Y-70131701D01*
X156319078Y-70131701D02*
X156340507Y-70067415D01*
X156340507Y-70067415D02*
X156383364Y-70024558D01*
X156383364Y-70024558D02*
X156426221Y-70003129D01*
X156426221Y-70003129D02*
X156511935Y-69981701D01*
X156511935Y-69981701D02*
X156576221Y-69981701D01*
X156576221Y-69981701D02*
X156661935Y-70003129D01*
X156661935Y-70003129D02*
X156704792Y-70024558D01*
X156704792Y-70024558D02*
X156747650Y-70067415D01*
X156747650Y-70067415D02*
X156769078Y-70131701D01*
X156769078Y-70131701D02*
X156769078Y-70238844D01*
X156726221Y-69531701D02*
X156747650Y-69553129D01*
X156747650Y-69553129D02*
X156769078Y-69617415D01*
X156769078Y-69617415D02*
X156769078Y-69660272D01*
X156769078Y-69660272D02*
X156747650Y-69724558D01*
X156747650Y-69724558D02*
X156704792Y-69767415D01*
X156704792Y-69767415D02*
X156661935Y-69788844D01*
X156661935Y-69788844D02*
X156576221Y-69810272D01*
X156576221Y-69810272D02*
X156511935Y-69810272D01*
X156511935Y-69810272D02*
X156426221Y-69788844D01*
X156426221Y-69788844D02*
X156383364Y-69767415D01*
X156383364Y-69767415D02*
X156340507Y-69724558D01*
X156340507Y-69724558D02*
X156319078Y-69660272D01*
X156319078Y-69660272D02*
X156319078Y-69617415D01*
X156319078Y-69617415D02*
X156340507Y-69553129D01*
X156340507Y-69553129D02*
X156361935Y-69531701D01*
X127798298Y-52079078D02*
X127905441Y-52529078D01*
X127905441Y-52529078D02*
X127991155Y-52207650D01*
X127991155Y-52207650D02*
X128076870Y-52529078D01*
X128076870Y-52529078D02*
X128184013Y-52079078D01*
X128569727Y-52529078D02*
X128355441Y-52529078D01*
X128355441Y-52529078D02*
X128355441Y-52079078D01*
X128719727Y-52293364D02*
X128869727Y-52293364D01*
X128934013Y-52529078D02*
X128719727Y-52529078D01*
X128719727Y-52529078D02*
X128719727Y-52079078D01*
X128719727Y-52079078D02*
X128934013Y-52079078D01*
X129126870Y-52529078D02*
X129126870Y-52079078D01*
X129126870Y-52079078D02*
X129234013Y-52079078D01*
X129234013Y-52079078D02*
X129298299Y-52100507D01*
X129298299Y-52100507D02*
X129341156Y-52143364D01*
X129341156Y-52143364D02*
X129362585Y-52186221D01*
X129362585Y-52186221D02*
X129384013Y-52271935D01*
X129384013Y-52271935D02*
X129384013Y-52336221D01*
X129384013Y-52336221D02*
X129362585Y-52421935D01*
X129362585Y-52421935D02*
X129341156Y-52464792D01*
X129341156Y-52464792D02*
X129298299Y-52507650D01*
X129298299Y-52507650D02*
X129234013Y-52529078D01*
X129234013Y-52529078D02*
X129126870Y-52529078D01*
X164966870Y-50330507D02*
X164924013Y-50309078D01*
X164924013Y-50309078D02*
X164859727Y-50309078D01*
X164859727Y-50309078D02*
X164795441Y-50330507D01*
X164795441Y-50330507D02*
X164752584Y-50373364D01*
X164752584Y-50373364D02*
X164731155Y-50416221D01*
X164731155Y-50416221D02*
X164709727Y-50501935D01*
X164709727Y-50501935D02*
X164709727Y-50566221D01*
X164709727Y-50566221D02*
X164731155Y-50651935D01*
X164731155Y-50651935D02*
X164752584Y-50694792D01*
X164752584Y-50694792D02*
X164795441Y-50737650D01*
X164795441Y-50737650D02*
X164859727Y-50759078D01*
X164859727Y-50759078D02*
X164902584Y-50759078D01*
X164902584Y-50759078D02*
X164966870Y-50737650D01*
X164966870Y-50737650D02*
X164988298Y-50716221D01*
X164988298Y-50716221D02*
X164988298Y-50566221D01*
X164988298Y-50566221D02*
X164902584Y-50566221D01*
X165181155Y-50759078D02*
X165181155Y-50309078D01*
X165181155Y-50309078D02*
X165438298Y-50759078D01*
X165438298Y-50759078D02*
X165438298Y-50309078D01*
X165652584Y-50759078D02*
X165652584Y-50309078D01*
X165652584Y-50309078D02*
X165759727Y-50309078D01*
X165759727Y-50309078D02*
X165824013Y-50330507D01*
X165824013Y-50330507D02*
X165866870Y-50373364D01*
X165866870Y-50373364D02*
X165888299Y-50416221D01*
X165888299Y-50416221D02*
X165909727Y-50501935D01*
X165909727Y-50501935D02*
X165909727Y-50566221D01*
X165909727Y-50566221D02*
X165888299Y-50651935D01*
X165888299Y-50651935D02*
X165866870Y-50694792D01*
X165866870Y-50694792D02*
X165824013Y-50737650D01*
X165824013Y-50737650D02*
X165759727Y-50759078D01*
X165759727Y-50759078D02*
X165652584Y-50759078D01*
X103248298Y-43199078D02*
X103098298Y-42984792D01*
X102991155Y-43199078D02*
X102991155Y-42749078D01*
X102991155Y-42749078D02*
X103162584Y-42749078D01*
X103162584Y-42749078D02*
X103205441Y-42770507D01*
X103205441Y-42770507D02*
X103226870Y-42791935D01*
X103226870Y-42791935D02*
X103248298Y-42834792D01*
X103248298Y-42834792D02*
X103248298Y-42899078D01*
X103248298Y-42899078D02*
X103226870Y-42941935D01*
X103226870Y-42941935D02*
X103205441Y-42963364D01*
X103205441Y-42963364D02*
X103162584Y-42984792D01*
X103162584Y-42984792D02*
X102991155Y-42984792D01*
X103634013Y-42899078D02*
X103634013Y-43199078D01*
X103526870Y-42727650D02*
X103419727Y-43049078D01*
X103419727Y-43049078D02*
X103698298Y-43049078D01*
X121465441Y-39779078D02*
X121251155Y-39779078D01*
X121251155Y-39779078D02*
X121251155Y-39329078D01*
X121594013Y-39371935D02*
X121615441Y-39350507D01*
X121615441Y-39350507D02*
X121658299Y-39329078D01*
X121658299Y-39329078D02*
X121765441Y-39329078D01*
X121765441Y-39329078D02*
X121808299Y-39350507D01*
X121808299Y-39350507D02*
X121829727Y-39371935D01*
X121829727Y-39371935D02*
X121851156Y-39414792D01*
X121851156Y-39414792D02*
X121851156Y-39457650D01*
X121851156Y-39457650D02*
X121829727Y-39521935D01*
X121829727Y-39521935D02*
X121572584Y-39779078D01*
X121572584Y-39779078D02*
X121851156Y-39779078D01*
X98746221Y-58371701D02*
X98767650Y-58393129D01*
X98767650Y-58393129D02*
X98789078Y-58457415D01*
X98789078Y-58457415D02*
X98789078Y-58500272D01*
X98789078Y-58500272D02*
X98767650Y-58564558D01*
X98767650Y-58564558D02*
X98724792Y-58607415D01*
X98724792Y-58607415D02*
X98681935Y-58628844D01*
X98681935Y-58628844D02*
X98596221Y-58650272D01*
X98596221Y-58650272D02*
X98531935Y-58650272D01*
X98531935Y-58650272D02*
X98446221Y-58628844D01*
X98446221Y-58628844D02*
X98403364Y-58607415D01*
X98403364Y-58607415D02*
X98360507Y-58564558D01*
X98360507Y-58564558D02*
X98339078Y-58500272D01*
X98339078Y-58500272D02*
X98339078Y-58457415D01*
X98339078Y-58457415D02*
X98360507Y-58393129D01*
X98360507Y-58393129D02*
X98381935Y-58371701D01*
X98746221Y-57921701D02*
X98767650Y-57943129D01*
X98767650Y-57943129D02*
X98789078Y-58007415D01*
X98789078Y-58007415D02*
X98789078Y-58050272D01*
X98789078Y-58050272D02*
X98767650Y-58114558D01*
X98767650Y-58114558D02*
X98724792Y-58157415D01*
X98724792Y-58157415D02*
X98681935Y-58178844D01*
X98681935Y-58178844D02*
X98596221Y-58200272D01*
X98596221Y-58200272D02*
X98531935Y-58200272D01*
X98531935Y-58200272D02*
X98446221Y-58178844D01*
X98446221Y-58178844D02*
X98403364Y-58157415D01*
X98403364Y-58157415D02*
X98360507Y-58114558D01*
X98360507Y-58114558D02*
X98339078Y-58050272D01*
X98339078Y-58050272D02*
X98339078Y-58007415D01*
X98339078Y-58007415D02*
X98360507Y-57943129D01*
X98360507Y-57943129D02*
X98381935Y-57921701D01*
X98789078Y-57493129D02*
X98789078Y-57750272D01*
X98789078Y-57621701D02*
X98339078Y-57621701D01*
X98339078Y-57621701D02*
X98403364Y-57664558D01*
X98403364Y-57664558D02*
X98446221Y-57707415D01*
X98446221Y-57707415D02*
X98467650Y-57750272D01*
X92126870Y-48459078D02*
X92384013Y-48459078D01*
X92255441Y-48909078D02*
X92255441Y-48459078D01*
X92726870Y-48609078D02*
X92726870Y-48909078D01*
X92619727Y-48437650D02*
X92512584Y-48759078D01*
X92512584Y-48759078D02*
X92791155Y-48759078D01*
X116678298Y-57726221D02*
X116656870Y-57747650D01*
X116656870Y-57747650D02*
X116592584Y-57769078D01*
X116592584Y-57769078D02*
X116549727Y-57769078D01*
X116549727Y-57769078D02*
X116485441Y-57747650D01*
X116485441Y-57747650D02*
X116442584Y-57704792D01*
X116442584Y-57704792D02*
X116421155Y-57661935D01*
X116421155Y-57661935D02*
X116399727Y-57576221D01*
X116399727Y-57576221D02*
X116399727Y-57511935D01*
X116399727Y-57511935D02*
X116421155Y-57426221D01*
X116421155Y-57426221D02*
X116442584Y-57383364D01*
X116442584Y-57383364D02*
X116485441Y-57340507D01*
X116485441Y-57340507D02*
X116549727Y-57319078D01*
X116549727Y-57319078D02*
X116592584Y-57319078D01*
X116592584Y-57319078D02*
X116656870Y-57340507D01*
X116656870Y-57340507D02*
X116678298Y-57361935D01*
X117064013Y-57319078D02*
X116978298Y-57319078D01*
X116978298Y-57319078D02*
X116935441Y-57340507D01*
X116935441Y-57340507D02*
X116914013Y-57361935D01*
X116914013Y-57361935D02*
X116871155Y-57426221D01*
X116871155Y-57426221D02*
X116849727Y-57511935D01*
X116849727Y-57511935D02*
X116849727Y-57683364D01*
X116849727Y-57683364D02*
X116871155Y-57726221D01*
X116871155Y-57726221D02*
X116892584Y-57747650D01*
X116892584Y-57747650D02*
X116935441Y-57769078D01*
X116935441Y-57769078D02*
X117021155Y-57769078D01*
X117021155Y-57769078D02*
X117064013Y-57747650D01*
X117064013Y-57747650D02*
X117085441Y-57726221D01*
X117085441Y-57726221D02*
X117106870Y-57683364D01*
X117106870Y-57683364D02*
X117106870Y-57576221D01*
X117106870Y-57576221D02*
X117085441Y-57533364D01*
X117085441Y-57533364D02*
X117064013Y-57511935D01*
X117064013Y-57511935D02*
X117021155Y-57490507D01*
X117021155Y-57490507D02*
X116935441Y-57490507D01*
X116935441Y-57490507D02*
X116892584Y-57511935D01*
X116892584Y-57511935D02*
X116871155Y-57533364D01*
X116871155Y-57533364D02*
X116849727Y-57576221D01*
X149958298Y-87629078D02*
X150236870Y-87629078D01*
X150236870Y-87629078D02*
X150086870Y-87800507D01*
X150086870Y-87800507D02*
X150151155Y-87800507D01*
X150151155Y-87800507D02*
X150194013Y-87821935D01*
X150194013Y-87821935D02*
X150215441Y-87843364D01*
X150215441Y-87843364D02*
X150236870Y-87886221D01*
X150236870Y-87886221D02*
X150236870Y-87993364D01*
X150236870Y-87993364D02*
X150215441Y-88036221D01*
X150215441Y-88036221D02*
X150194013Y-88057650D01*
X150194013Y-88057650D02*
X150151155Y-88079078D01*
X150151155Y-88079078D02*
X150022584Y-88079078D01*
X150022584Y-88079078D02*
X149979727Y-88057650D01*
X149979727Y-88057650D02*
X149958298Y-88036221D01*
X150429726Y-88036221D02*
X150451155Y-88057650D01*
X150451155Y-88057650D02*
X150429726Y-88079078D01*
X150429726Y-88079078D02*
X150408298Y-88057650D01*
X150408298Y-88057650D02*
X150429726Y-88036221D01*
X150429726Y-88036221D02*
X150429726Y-88079078D01*
X150601155Y-87629078D02*
X150879727Y-87629078D01*
X150879727Y-87629078D02*
X150729727Y-87800507D01*
X150729727Y-87800507D02*
X150794012Y-87800507D01*
X150794012Y-87800507D02*
X150836870Y-87821935D01*
X150836870Y-87821935D02*
X150858298Y-87843364D01*
X150858298Y-87843364D02*
X150879727Y-87886221D01*
X150879727Y-87886221D02*
X150879727Y-87993364D01*
X150879727Y-87993364D02*
X150858298Y-88036221D01*
X150858298Y-88036221D02*
X150836870Y-88057650D01*
X150836870Y-88057650D02*
X150794012Y-88079078D01*
X150794012Y-88079078D02*
X150665441Y-88079078D01*
X150665441Y-88079078D02*
X150622584Y-88057650D01*
X150622584Y-88057650D02*
X150601155Y-88036221D01*
X151008298Y-87629078D02*
X151158298Y-88079078D01*
X151158298Y-88079078D02*
X151308298Y-87629078D01*
X94648298Y-58476221D02*
X94626870Y-58497650D01*
X94626870Y-58497650D02*
X94562584Y-58519078D01*
X94562584Y-58519078D02*
X94519727Y-58519078D01*
X94519727Y-58519078D02*
X94455441Y-58497650D01*
X94455441Y-58497650D02*
X94412584Y-58454792D01*
X94412584Y-58454792D02*
X94391155Y-58411935D01*
X94391155Y-58411935D02*
X94369727Y-58326221D01*
X94369727Y-58326221D02*
X94369727Y-58261935D01*
X94369727Y-58261935D02*
X94391155Y-58176221D01*
X94391155Y-58176221D02*
X94412584Y-58133364D01*
X94412584Y-58133364D02*
X94455441Y-58090507D01*
X94455441Y-58090507D02*
X94519727Y-58069078D01*
X94519727Y-58069078D02*
X94562584Y-58069078D01*
X94562584Y-58069078D02*
X94626870Y-58090507D01*
X94626870Y-58090507D02*
X94648298Y-58111935D01*
X95076870Y-58519078D02*
X94819727Y-58519078D01*
X94948298Y-58519078D02*
X94948298Y-58069078D01*
X94948298Y-58069078D02*
X94905441Y-58133364D01*
X94905441Y-58133364D02*
X94862584Y-58176221D01*
X94862584Y-58176221D02*
X94819727Y-58197650D01*
X95038298Y-48909078D02*
X94888298Y-48694792D01*
X94781155Y-48909078D02*
X94781155Y-48459078D01*
X94781155Y-48459078D02*
X94952584Y-48459078D01*
X94952584Y-48459078D02*
X94995441Y-48480507D01*
X94995441Y-48480507D02*
X95016870Y-48501935D01*
X95016870Y-48501935D02*
X95038298Y-48544792D01*
X95038298Y-48544792D02*
X95038298Y-48609078D01*
X95038298Y-48609078D02*
X95016870Y-48651935D01*
X95016870Y-48651935D02*
X94995441Y-48673364D01*
X94995441Y-48673364D02*
X94952584Y-48694792D01*
X94952584Y-48694792D02*
X94781155Y-48694792D01*
X95424013Y-48459078D02*
X95338298Y-48459078D01*
X95338298Y-48459078D02*
X95295441Y-48480507D01*
X95295441Y-48480507D02*
X95274013Y-48501935D01*
X95274013Y-48501935D02*
X95231155Y-48566221D01*
X95231155Y-48566221D02*
X95209727Y-48651935D01*
X95209727Y-48651935D02*
X95209727Y-48823364D01*
X95209727Y-48823364D02*
X95231155Y-48866221D01*
X95231155Y-48866221D02*
X95252584Y-48887650D01*
X95252584Y-48887650D02*
X95295441Y-48909078D01*
X95295441Y-48909078D02*
X95381155Y-48909078D01*
X95381155Y-48909078D02*
X95424013Y-48887650D01*
X95424013Y-48887650D02*
X95445441Y-48866221D01*
X95445441Y-48866221D02*
X95466870Y-48823364D01*
X95466870Y-48823364D02*
X95466870Y-48716221D01*
X95466870Y-48716221D02*
X95445441Y-48673364D01*
X95445441Y-48673364D02*
X95424013Y-48651935D01*
X95424013Y-48651935D02*
X95381155Y-48630507D01*
X95381155Y-48630507D02*
X95295441Y-48630507D01*
X95295441Y-48630507D02*
X95252584Y-48651935D01*
X95252584Y-48651935D02*
X95231155Y-48673364D01*
X95231155Y-48673364D02*
X95209727Y-48716221D01*
X99318298Y-63096221D02*
X99296870Y-63117650D01*
X99296870Y-63117650D02*
X99232584Y-63139078D01*
X99232584Y-63139078D02*
X99189727Y-63139078D01*
X99189727Y-63139078D02*
X99125441Y-63117650D01*
X99125441Y-63117650D02*
X99082584Y-63074792D01*
X99082584Y-63074792D02*
X99061155Y-63031935D01*
X99061155Y-63031935D02*
X99039727Y-62946221D01*
X99039727Y-62946221D02*
X99039727Y-62881935D01*
X99039727Y-62881935D02*
X99061155Y-62796221D01*
X99061155Y-62796221D02*
X99082584Y-62753364D01*
X99082584Y-62753364D02*
X99125441Y-62710507D01*
X99125441Y-62710507D02*
X99189727Y-62689078D01*
X99189727Y-62689078D02*
X99232584Y-62689078D01*
X99232584Y-62689078D02*
X99296870Y-62710507D01*
X99296870Y-62710507D02*
X99318298Y-62731935D01*
X99468298Y-62689078D02*
X99746870Y-62689078D01*
X99746870Y-62689078D02*
X99596870Y-62860507D01*
X99596870Y-62860507D02*
X99661155Y-62860507D01*
X99661155Y-62860507D02*
X99704013Y-62881935D01*
X99704013Y-62881935D02*
X99725441Y-62903364D01*
X99725441Y-62903364D02*
X99746870Y-62946221D01*
X99746870Y-62946221D02*
X99746870Y-63053364D01*
X99746870Y-63053364D02*
X99725441Y-63096221D01*
X99725441Y-63096221D02*
X99704013Y-63117650D01*
X99704013Y-63117650D02*
X99661155Y-63139078D01*
X99661155Y-63139078D02*
X99532584Y-63139078D01*
X99532584Y-63139078D02*
X99489727Y-63117650D01*
X99489727Y-63117650D02*
X99468298Y-63096221D01*
X100378298Y-48909078D02*
X100228298Y-48694792D01*
X100121155Y-48909078D02*
X100121155Y-48459078D01*
X100121155Y-48459078D02*
X100292584Y-48459078D01*
X100292584Y-48459078D02*
X100335441Y-48480507D01*
X100335441Y-48480507D02*
X100356870Y-48501935D01*
X100356870Y-48501935D02*
X100378298Y-48544792D01*
X100378298Y-48544792D02*
X100378298Y-48609078D01*
X100378298Y-48609078D02*
X100356870Y-48651935D01*
X100356870Y-48651935D02*
X100335441Y-48673364D01*
X100335441Y-48673364D02*
X100292584Y-48694792D01*
X100292584Y-48694792D02*
X100121155Y-48694792D01*
X100635441Y-48651935D02*
X100592584Y-48630507D01*
X100592584Y-48630507D02*
X100571155Y-48609078D01*
X100571155Y-48609078D02*
X100549727Y-48566221D01*
X100549727Y-48566221D02*
X100549727Y-48544792D01*
X100549727Y-48544792D02*
X100571155Y-48501935D01*
X100571155Y-48501935D02*
X100592584Y-48480507D01*
X100592584Y-48480507D02*
X100635441Y-48459078D01*
X100635441Y-48459078D02*
X100721155Y-48459078D01*
X100721155Y-48459078D02*
X100764013Y-48480507D01*
X100764013Y-48480507D02*
X100785441Y-48501935D01*
X100785441Y-48501935D02*
X100806870Y-48544792D01*
X100806870Y-48544792D02*
X100806870Y-48566221D01*
X100806870Y-48566221D02*
X100785441Y-48609078D01*
X100785441Y-48609078D02*
X100764013Y-48630507D01*
X100764013Y-48630507D02*
X100721155Y-48651935D01*
X100721155Y-48651935D02*
X100635441Y-48651935D01*
X100635441Y-48651935D02*
X100592584Y-48673364D01*
X100592584Y-48673364D02*
X100571155Y-48694792D01*
X100571155Y-48694792D02*
X100549727Y-48737650D01*
X100549727Y-48737650D02*
X100549727Y-48823364D01*
X100549727Y-48823364D02*
X100571155Y-48866221D01*
X100571155Y-48866221D02*
X100592584Y-48887650D01*
X100592584Y-48887650D02*
X100635441Y-48909078D01*
X100635441Y-48909078D02*
X100721155Y-48909078D01*
X100721155Y-48909078D02*
X100764013Y-48887650D01*
X100764013Y-48887650D02*
X100785441Y-48866221D01*
X100785441Y-48866221D02*
X100806870Y-48823364D01*
X100806870Y-48823364D02*
X100806870Y-48737650D01*
X100806870Y-48737650D02*
X100785441Y-48694792D01*
X100785441Y-48694792D02*
X100764013Y-48673364D01*
X100764013Y-48673364D02*
X100721155Y-48651935D01*
X147766870Y-87650507D02*
X147724013Y-87629078D01*
X147724013Y-87629078D02*
X147659727Y-87629078D01*
X147659727Y-87629078D02*
X147595441Y-87650507D01*
X147595441Y-87650507D02*
X147552584Y-87693364D01*
X147552584Y-87693364D02*
X147531155Y-87736221D01*
X147531155Y-87736221D02*
X147509727Y-87821935D01*
X147509727Y-87821935D02*
X147509727Y-87886221D01*
X147509727Y-87886221D02*
X147531155Y-87971935D01*
X147531155Y-87971935D02*
X147552584Y-88014792D01*
X147552584Y-88014792D02*
X147595441Y-88057650D01*
X147595441Y-88057650D02*
X147659727Y-88079078D01*
X147659727Y-88079078D02*
X147702584Y-88079078D01*
X147702584Y-88079078D02*
X147766870Y-88057650D01*
X147766870Y-88057650D02*
X147788298Y-88036221D01*
X147788298Y-88036221D02*
X147788298Y-87886221D01*
X147788298Y-87886221D02*
X147702584Y-87886221D01*
X147981155Y-88079078D02*
X147981155Y-87629078D01*
X147981155Y-87629078D02*
X148238298Y-88079078D01*
X148238298Y-88079078D02*
X148238298Y-87629078D01*
X148452584Y-88079078D02*
X148452584Y-87629078D01*
X148452584Y-87629078D02*
X148559727Y-87629078D01*
X148559727Y-87629078D02*
X148624013Y-87650507D01*
X148624013Y-87650507D02*
X148666870Y-87693364D01*
X148666870Y-87693364D02*
X148688299Y-87736221D01*
X148688299Y-87736221D02*
X148709727Y-87821935D01*
X148709727Y-87821935D02*
X148709727Y-87886221D01*
X148709727Y-87886221D02*
X148688299Y-87971935D01*
X148688299Y-87971935D02*
X148666870Y-88014792D01*
X148666870Y-88014792D02*
X148624013Y-88057650D01*
X148624013Y-88057650D02*
X148559727Y-88079078D01*
X148559727Y-88079078D02*
X148452584Y-88079078D01*
X128263364Y-42488844D02*
X128284792Y-42424558D01*
X128284792Y-42424558D02*
X128306221Y-42403129D01*
X128306221Y-42403129D02*
X128349078Y-42381701D01*
X128349078Y-42381701D02*
X128413364Y-42381701D01*
X128413364Y-42381701D02*
X128456221Y-42403129D01*
X128456221Y-42403129D02*
X128477650Y-42424558D01*
X128477650Y-42424558D02*
X128499078Y-42467415D01*
X128499078Y-42467415D02*
X128499078Y-42638844D01*
X128499078Y-42638844D02*
X128049078Y-42638844D01*
X128049078Y-42638844D02*
X128049078Y-42488844D01*
X128049078Y-42488844D02*
X128070507Y-42445987D01*
X128070507Y-42445987D02*
X128091935Y-42424558D01*
X128091935Y-42424558D02*
X128134792Y-42403129D01*
X128134792Y-42403129D02*
X128177650Y-42403129D01*
X128177650Y-42403129D02*
X128220507Y-42424558D01*
X128220507Y-42424558D02*
X128241935Y-42445987D01*
X128241935Y-42445987D02*
X128263364Y-42488844D01*
X128263364Y-42488844D02*
X128263364Y-42638844D01*
X128199078Y-41995987D02*
X128499078Y-41995987D01*
X128027650Y-42103129D02*
X128349078Y-42210272D01*
X128349078Y-42210272D02*
X128349078Y-41931701D01*
X95061155Y-81333364D02*
X95125441Y-81354792D01*
X95125441Y-81354792D02*
X95146870Y-81376221D01*
X95146870Y-81376221D02*
X95168298Y-81419078D01*
X95168298Y-81419078D02*
X95168298Y-81483364D01*
X95168298Y-81483364D02*
X95146870Y-81526221D01*
X95146870Y-81526221D02*
X95125441Y-81547650D01*
X95125441Y-81547650D02*
X95082584Y-81569078D01*
X95082584Y-81569078D02*
X94911155Y-81569078D01*
X94911155Y-81569078D02*
X94911155Y-81119078D01*
X94911155Y-81119078D02*
X95061155Y-81119078D01*
X95061155Y-81119078D02*
X95104013Y-81140507D01*
X95104013Y-81140507D02*
X95125441Y-81161935D01*
X95125441Y-81161935D02*
X95146870Y-81204792D01*
X95146870Y-81204792D02*
X95146870Y-81247650D01*
X95146870Y-81247650D02*
X95125441Y-81290507D01*
X95125441Y-81290507D02*
X95104013Y-81311935D01*
X95104013Y-81311935D02*
X95061155Y-81333364D01*
X95061155Y-81333364D02*
X94911155Y-81333364D01*
X95596870Y-81569078D02*
X95339727Y-81569078D01*
X95468298Y-81569078D02*
X95468298Y-81119078D01*
X95468298Y-81119078D02*
X95425441Y-81183364D01*
X95425441Y-81183364D02*
X95382584Y-81226221D01*
X95382584Y-81226221D02*
X95339727Y-81247650D01*
X161957650Y-68340272D02*
X161979078Y-68275987D01*
X161979078Y-68275987D02*
X161979078Y-68168844D01*
X161979078Y-68168844D02*
X161957650Y-68125987D01*
X161957650Y-68125987D02*
X161936221Y-68104558D01*
X161936221Y-68104558D02*
X161893364Y-68083129D01*
X161893364Y-68083129D02*
X161850507Y-68083129D01*
X161850507Y-68083129D02*
X161807650Y-68104558D01*
X161807650Y-68104558D02*
X161786221Y-68125987D01*
X161786221Y-68125987D02*
X161764792Y-68168844D01*
X161764792Y-68168844D02*
X161743364Y-68254558D01*
X161743364Y-68254558D02*
X161721935Y-68297415D01*
X161721935Y-68297415D02*
X161700507Y-68318844D01*
X161700507Y-68318844D02*
X161657650Y-68340272D01*
X161657650Y-68340272D02*
X161614792Y-68340272D01*
X161614792Y-68340272D02*
X161571935Y-68318844D01*
X161571935Y-68318844D02*
X161550507Y-68297415D01*
X161550507Y-68297415D02*
X161529078Y-68254558D01*
X161529078Y-68254558D02*
X161529078Y-68147415D01*
X161529078Y-68147415D02*
X161550507Y-68083129D01*
X161936221Y-67633130D02*
X161957650Y-67654558D01*
X161957650Y-67654558D02*
X161979078Y-67718844D01*
X161979078Y-67718844D02*
X161979078Y-67761701D01*
X161979078Y-67761701D02*
X161957650Y-67825987D01*
X161957650Y-67825987D02*
X161914792Y-67868844D01*
X161914792Y-67868844D02*
X161871935Y-67890273D01*
X161871935Y-67890273D02*
X161786221Y-67911701D01*
X161786221Y-67911701D02*
X161721935Y-67911701D01*
X161721935Y-67911701D02*
X161636221Y-67890273D01*
X161636221Y-67890273D02*
X161593364Y-67868844D01*
X161593364Y-67868844D02*
X161550507Y-67825987D01*
X161550507Y-67825987D02*
X161529078Y-67761701D01*
X161529078Y-67761701D02*
X161529078Y-67718844D01*
X161529078Y-67718844D02*
X161550507Y-67654558D01*
X161550507Y-67654558D02*
X161571935Y-67633130D01*
X161979078Y-67440273D02*
X161529078Y-67440273D01*
X161979078Y-67183130D02*
X161721935Y-67375987D01*
X161529078Y-67183130D02*
X161786221Y-67440273D01*
X88268298Y-48866221D02*
X88246870Y-48887650D01*
X88246870Y-48887650D02*
X88182584Y-48909078D01*
X88182584Y-48909078D02*
X88139727Y-48909078D01*
X88139727Y-48909078D02*
X88075441Y-48887650D01*
X88075441Y-48887650D02*
X88032584Y-48844792D01*
X88032584Y-48844792D02*
X88011155Y-48801935D01*
X88011155Y-48801935D02*
X87989727Y-48716221D01*
X87989727Y-48716221D02*
X87989727Y-48651935D01*
X87989727Y-48651935D02*
X88011155Y-48566221D01*
X88011155Y-48566221D02*
X88032584Y-48523364D01*
X88032584Y-48523364D02*
X88075441Y-48480507D01*
X88075441Y-48480507D02*
X88139727Y-48459078D01*
X88139727Y-48459078D02*
X88182584Y-48459078D01*
X88182584Y-48459078D02*
X88246870Y-48480507D01*
X88246870Y-48480507D02*
X88268298Y-48501935D01*
X88675441Y-48459078D02*
X88461155Y-48459078D01*
X88461155Y-48459078D02*
X88439727Y-48673364D01*
X88439727Y-48673364D02*
X88461155Y-48651935D01*
X88461155Y-48651935D02*
X88504013Y-48630507D01*
X88504013Y-48630507D02*
X88611155Y-48630507D01*
X88611155Y-48630507D02*
X88654013Y-48651935D01*
X88654013Y-48651935D02*
X88675441Y-48673364D01*
X88675441Y-48673364D02*
X88696870Y-48716221D01*
X88696870Y-48716221D02*
X88696870Y-48823364D01*
X88696870Y-48823364D02*
X88675441Y-48866221D01*
X88675441Y-48866221D02*
X88654013Y-48887650D01*
X88654013Y-48887650D02*
X88611155Y-48909078D01*
X88611155Y-48909078D02*
X88504013Y-48909078D01*
X88504013Y-48909078D02*
X88461155Y-48887650D01*
X88461155Y-48887650D02*
X88439727Y-48866221D01*
X137649078Y-76521701D02*
X137434792Y-76671701D01*
X137649078Y-76778844D02*
X137199078Y-76778844D01*
X137199078Y-76778844D02*
X137199078Y-76607415D01*
X137199078Y-76607415D02*
X137220507Y-76564558D01*
X137220507Y-76564558D02*
X137241935Y-76543129D01*
X137241935Y-76543129D02*
X137284792Y-76521701D01*
X137284792Y-76521701D02*
X137349078Y-76521701D01*
X137349078Y-76521701D02*
X137391935Y-76543129D01*
X137391935Y-76543129D02*
X137413364Y-76564558D01*
X137413364Y-76564558D02*
X137434792Y-76607415D01*
X137434792Y-76607415D02*
X137434792Y-76778844D01*
X137241935Y-76350272D02*
X137220507Y-76328844D01*
X137220507Y-76328844D02*
X137199078Y-76285987D01*
X137199078Y-76285987D02*
X137199078Y-76178844D01*
X137199078Y-76178844D02*
X137220507Y-76135987D01*
X137220507Y-76135987D02*
X137241935Y-76114558D01*
X137241935Y-76114558D02*
X137284792Y-76093129D01*
X137284792Y-76093129D02*
X137327650Y-76093129D01*
X137327650Y-76093129D02*
X137391935Y-76114558D01*
X137391935Y-76114558D02*
X137649078Y-76371701D01*
X137649078Y-76371701D02*
X137649078Y-76093129D01*
X137649078Y-75664558D02*
X137649078Y-75921701D01*
X137649078Y-75793130D02*
X137199078Y-75793130D01*
X137199078Y-75793130D02*
X137263364Y-75835987D01*
X137263364Y-75835987D02*
X137306221Y-75878844D01*
X137306221Y-75878844D02*
X137327650Y-75921701D01*
X92628298Y-82209078D02*
X92478298Y-81994792D01*
X92371155Y-82209078D02*
X92371155Y-81759078D01*
X92371155Y-81759078D02*
X92542584Y-81759078D01*
X92542584Y-81759078D02*
X92585441Y-81780507D01*
X92585441Y-81780507D02*
X92606870Y-81801935D01*
X92606870Y-81801935D02*
X92628298Y-81844792D01*
X92628298Y-81844792D02*
X92628298Y-81909078D01*
X92628298Y-81909078D02*
X92606870Y-81951935D01*
X92606870Y-81951935D02*
X92585441Y-81973364D01*
X92585441Y-81973364D02*
X92542584Y-81994792D01*
X92542584Y-81994792D02*
X92371155Y-81994792D01*
X92799727Y-81801935D02*
X92821155Y-81780507D01*
X92821155Y-81780507D02*
X92864013Y-81759078D01*
X92864013Y-81759078D02*
X92971155Y-81759078D01*
X92971155Y-81759078D02*
X93014013Y-81780507D01*
X93014013Y-81780507D02*
X93035441Y-81801935D01*
X93035441Y-81801935D02*
X93056870Y-81844792D01*
X93056870Y-81844792D02*
X93056870Y-81887650D01*
X93056870Y-81887650D02*
X93035441Y-81951935D01*
X93035441Y-81951935D02*
X92778298Y-82209078D01*
X92778298Y-82209078D02*
X93056870Y-82209078D01*
X93464012Y-81759078D02*
X93249726Y-81759078D01*
X93249726Y-81759078D02*
X93228298Y-81973364D01*
X93228298Y-81973364D02*
X93249726Y-81951935D01*
X93249726Y-81951935D02*
X93292584Y-81930507D01*
X93292584Y-81930507D02*
X93399726Y-81930507D01*
X93399726Y-81930507D02*
X93442584Y-81951935D01*
X93442584Y-81951935D02*
X93464012Y-81973364D01*
X93464012Y-81973364D02*
X93485441Y-82016221D01*
X93485441Y-82016221D02*
X93485441Y-82123364D01*
X93485441Y-82123364D02*
X93464012Y-82166221D01*
X93464012Y-82166221D02*
X93442584Y-82187650D01*
X93442584Y-82187650D02*
X93399726Y-82209078D01*
X93399726Y-82209078D02*
X93292584Y-82209078D01*
X93292584Y-82209078D02*
X93249726Y-82187650D01*
X93249726Y-82187650D02*
X93228298Y-82166221D01*
X157506870Y-40454792D02*
X157506870Y-40669078D01*
X157356870Y-40219078D02*
X157506870Y-40454792D01*
X157506870Y-40454792D02*
X157656870Y-40219078D01*
X158042584Y-40669078D02*
X157785441Y-40669078D01*
X157914012Y-40669078D02*
X157914012Y-40219078D01*
X157914012Y-40219078D02*
X157871155Y-40283364D01*
X157871155Y-40283364D02*
X157828298Y-40326221D01*
X157828298Y-40326221D02*
X157785441Y-40347650D01*
X120351155Y-66309078D02*
X120351155Y-65859078D01*
X120351155Y-65859078D02*
X120458298Y-65859078D01*
X120458298Y-65859078D02*
X120522584Y-65880507D01*
X120522584Y-65880507D02*
X120565441Y-65923364D01*
X120565441Y-65923364D02*
X120586870Y-65966221D01*
X120586870Y-65966221D02*
X120608298Y-66051935D01*
X120608298Y-66051935D02*
X120608298Y-66116221D01*
X120608298Y-66116221D02*
X120586870Y-66201935D01*
X120586870Y-66201935D02*
X120565441Y-66244792D01*
X120565441Y-66244792D02*
X120522584Y-66287650D01*
X120522584Y-66287650D02*
X120458298Y-66309078D01*
X120458298Y-66309078D02*
X120351155Y-66309078D01*
X121036870Y-66309078D02*
X120779727Y-66309078D01*
X120908298Y-66309078D02*
X120908298Y-65859078D01*
X120908298Y-65859078D02*
X120865441Y-65923364D01*
X120865441Y-65923364D02*
X120822584Y-65966221D01*
X120822584Y-65966221D02*
X120779727Y-65987650D01*
X105198298Y-54389078D02*
X105048298Y-54174792D01*
X104941155Y-54389078D02*
X104941155Y-53939078D01*
X104941155Y-53939078D02*
X105112584Y-53939078D01*
X105112584Y-53939078D02*
X105155441Y-53960507D01*
X105155441Y-53960507D02*
X105176870Y-53981935D01*
X105176870Y-53981935D02*
X105198298Y-54024792D01*
X105198298Y-54024792D02*
X105198298Y-54089078D01*
X105198298Y-54089078D02*
X105176870Y-54131935D01*
X105176870Y-54131935D02*
X105155441Y-54153364D01*
X105155441Y-54153364D02*
X105112584Y-54174792D01*
X105112584Y-54174792D02*
X104941155Y-54174792D01*
X105626870Y-54389078D02*
X105369727Y-54389078D01*
X105498298Y-54389078D02*
X105498298Y-53939078D01*
X105498298Y-53939078D02*
X105455441Y-54003364D01*
X105455441Y-54003364D02*
X105412584Y-54046221D01*
X105412584Y-54046221D02*
X105369727Y-54067650D01*
X105798298Y-53981935D02*
X105819726Y-53960507D01*
X105819726Y-53960507D02*
X105862584Y-53939078D01*
X105862584Y-53939078D02*
X105969726Y-53939078D01*
X105969726Y-53939078D02*
X106012584Y-53960507D01*
X106012584Y-53960507D02*
X106034012Y-53981935D01*
X106034012Y-53981935D02*
X106055441Y-54024792D01*
X106055441Y-54024792D02*
X106055441Y-54067650D01*
X106055441Y-54067650D02*
X106034012Y-54131935D01*
X106034012Y-54131935D02*
X105776869Y-54389078D01*
X105776869Y-54389078D02*
X106055441Y-54389078D01*
X156769078Y-64194558D02*
X156769078Y-64408844D01*
X156769078Y-64408844D02*
X156319078Y-64408844D01*
X156533364Y-64044558D02*
X156533364Y-63894558D01*
X156769078Y-63830272D02*
X156769078Y-64044558D01*
X156769078Y-64044558D02*
X156319078Y-64044558D01*
X156319078Y-64044558D02*
X156319078Y-63830272D01*
X156769078Y-63637415D02*
X156319078Y-63637415D01*
X156319078Y-63637415D02*
X156319078Y-63530272D01*
X156319078Y-63530272D02*
X156340507Y-63465986D01*
X156340507Y-63465986D02*
X156383364Y-63423129D01*
X156383364Y-63423129D02*
X156426221Y-63401700D01*
X156426221Y-63401700D02*
X156511935Y-63380272D01*
X156511935Y-63380272D02*
X156576221Y-63380272D01*
X156576221Y-63380272D02*
X156661935Y-63401700D01*
X156661935Y-63401700D02*
X156704792Y-63423129D01*
X156704792Y-63423129D02*
X156747650Y-63465986D01*
X156747650Y-63465986D02*
X156769078Y-63530272D01*
X156769078Y-63530272D02*
X156769078Y-63637415D01*
X107779078Y-61781701D02*
X107564792Y-61931701D01*
X107779078Y-62038844D02*
X107329078Y-62038844D01*
X107329078Y-62038844D02*
X107329078Y-61867415D01*
X107329078Y-61867415D02*
X107350507Y-61824558D01*
X107350507Y-61824558D02*
X107371935Y-61803129D01*
X107371935Y-61803129D02*
X107414792Y-61781701D01*
X107414792Y-61781701D02*
X107479078Y-61781701D01*
X107479078Y-61781701D02*
X107521935Y-61803129D01*
X107521935Y-61803129D02*
X107543364Y-61824558D01*
X107543364Y-61824558D02*
X107564792Y-61867415D01*
X107564792Y-61867415D02*
X107564792Y-62038844D01*
X107779078Y-61353129D02*
X107779078Y-61610272D01*
X107779078Y-61481701D02*
X107329078Y-61481701D01*
X107329078Y-61481701D02*
X107393364Y-61524558D01*
X107393364Y-61524558D02*
X107436221Y-61567415D01*
X107436221Y-61567415D02*
X107457650Y-61610272D01*
X107479078Y-60967416D02*
X107779078Y-60967416D01*
X107307650Y-61074558D02*
X107629078Y-61181701D01*
X107629078Y-61181701D02*
X107629078Y-60903130D01*
X150371155Y-80689078D02*
X150371155Y-80239078D01*
X150371155Y-80239078D02*
X150478298Y-80239078D01*
X150478298Y-80239078D02*
X150542584Y-80260507D01*
X150542584Y-80260507D02*
X150585441Y-80303364D01*
X150585441Y-80303364D02*
X150606870Y-80346221D01*
X150606870Y-80346221D02*
X150628298Y-80431935D01*
X150628298Y-80431935D02*
X150628298Y-80496221D01*
X150628298Y-80496221D02*
X150606870Y-80581935D01*
X150606870Y-80581935D02*
X150585441Y-80624792D01*
X150585441Y-80624792D02*
X150542584Y-80667650D01*
X150542584Y-80667650D02*
X150478298Y-80689078D01*
X150478298Y-80689078D02*
X150371155Y-80689078D01*
X151014013Y-80389078D02*
X151014013Y-80689078D01*
X150906870Y-80217650D02*
X150799727Y-80539078D01*
X150799727Y-80539078D02*
X151078298Y-80539078D01*
X151314012Y-80431935D02*
X151271155Y-80410507D01*
X151271155Y-80410507D02*
X151249726Y-80389078D01*
X151249726Y-80389078D02*
X151228298Y-80346221D01*
X151228298Y-80346221D02*
X151228298Y-80324792D01*
X151228298Y-80324792D02*
X151249726Y-80281935D01*
X151249726Y-80281935D02*
X151271155Y-80260507D01*
X151271155Y-80260507D02*
X151314012Y-80239078D01*
X151314012Y-80239078D02*
X151399726Y-80239078D01*
X151399726Y-80239078D02*
X151442584Y-80260507D01*
X151442584Y-80260507D02*
X151464012Y-80281935D01*
X151464012Y-80281935D02*
X151485441Y-80324792D01*
X151485441Y-80324792D02*
X151485441Y-80346221D01*
X151485441Y-80346221D02*
X151464012Y-80389078D01*
X151464012Y-80389078D02*
X151442584Y-80410507D01*
X151442584Y-80410507D02*
X151399726Y-80431935D01*
X151399726Y-80431935D02*
X151314012Y-80431935D01*
X151314012Y-80431935D02*
X151271155Y-80453364D01*
X151271155Y-80453364D02*
X151249726Y-80474792D01*
X151249726Y-80474792D02*
X151228298Y-80517650D01*
X151228298Y-80517650D02*
X151228298Y-80603364D01*
X151228298Y-80603364D02*
X151249726Y-80646221D01*
X151249726Y-80646221D02*
X151271155Y-80667650D01*
X151271155Y-80667650D02*
X151314012Y-80689078D01*
X151314012Y-80689078D02*
X151399726Y-80689078D01*
X151399726Y-80689078D02*
X151442584Y-80667650D01*
X151442584Y-80667650D02*
X151464012Y-80646221D01*
X151464012Y-80646221D02*
X151485441Y-80603364D01*
X151485441Y-80603364D02*
X151485441Y-80517650D01*
X151485441Y-80517650D02*
X151464012Y-80474792D01*
X151464012Y-80474792D02*
X151442584Y-80453364D01*
X151442584Y-80453364D02*
X151399726Y-80431935D01*
X114395441Y-50129078D02*
X114181155Y-50129078D01*
X114181155Y-50129078D02*
X114181155Y-49679078D01*
X114781156Y-50129078D02*
X114524013Y-50129078D01*
X114652584Y-50129078D02*
X114652584Y-49679078D01*
X114652584Y-49679078D02*
X114609727Y-49743364D01*
X114609727Y-49743364D02*
X114566870Y-49786221D01*
X114566870Y-49786221D02*
X114524013Y-49807650D01*
X126366870Y-43919078D02*
X126516870Y-44369078D01*
X126516870Y-44369078D02*
X126666870Y-43919078D01*
X126774012Y-43919078D02*
X127052584Y-43919078D01*
X127052584Y-43919078D02*
X126902584Y-44090507D01*
X126902584Y-44090507D02*
X126966869Y-44090507D01*
X126966869Y-44090507D02*
X127009727Y-44111935D01*
X127009727Y-44111935D02*
X127031155Y-44133364D01*
X127031155Y-44133364D02*
X127052584Y-44176221D01*
X127052584Y-44176221D02*
X127052584Y-44283364D01*
X127052584Y-44283364D02*
X127031155Y-44326221D01*
X127031155Y-44326221D02*
X127009727Y-44347650D01*
X127009727Y-44347650D02*
X126966869Y-44369078D01*
X126966869Y-44369078D02*
X126838298Y-44369078D01*
X126838298Y-44369078D02*
X126795441Y-44347650D01*
X126795441Y-44347650D02*
X126774012Y-44326221D01*
X152468298Y-87629078D02*
X152746870Y-87629078D01*
X152746870Y-87629078D02*
X152596870Y-87800507D01*
X152596870Y-87800507D02*
X152661155Y-87800507D01*
X152661155Y-87800507D02*
X152704013Y-87821935D01*
X152704013Y-87821935D02*
X152725441Y-87843364D01*
X152725441Y-87843364D02*
X152746870Y-87886221D01*
X152746870Y-87886221D02*
X152746870Y-87993364D01*
X152746870Y-87993364D02*
X152725441Y-88036221D01*
X152725441Y-88036221D02*
X152704013Y-88057650D01*
X152704013Y-88057650D02*
X152661155Y-88079078D01*
X152661155Y-88079078D02*
X152532584Y-88079078D01*
X152532584Y-88079078D02*
X152489727Y-88057650D01*
X152489727Y-88057650D02*
X152468298Y-88036221D01*
X152939726Y-88036221D02*
X152961155Y-88057650D01*
X152961155Y-88057650D02*
X152939726Y-88079078D01*
X152939726Y-88079078D02*
X152918298Y-88057650D01*
X152918298Y-88057650D02*
X152939726Y-88036221D01*
X152939726Y-88036221D02*
X152939726Y-88079078D01*
X153111155Y-87629078D02*
X153389727Y-87629078D01*
X153389727Y-87629078D02*
X153239727Y-87800507D01*
X153239727Y-87800507D02*
X153304012Y-87800507D01*
X153304012Y-87800507D02*
X153346870Y-87821935D01*
X153346870Y-87821935D02*
X153368298Y-87843364D01*
X153368298Y-87843364D02*
X153389727Y-87886221D01*
X153389727Y-87886221D02*
X153389727Y-87993364D01*
X153389727Y-87993364D02*
X153368298Y-88036221D01*
X153368298Y-88036221D02*
X153346870Y-88057650D01*
X153346870Y-88057650D02*
X153304012Y-88079078D01*
X153304012Y-88079078D02*
X153175441Y-88079078D01*
X153175441Y-88079078D02*
X153132584Y-88057650D01*
X153132584Y-88057650D02*
X153111155Y-88036221D01*
X153518298Y-87629078D02*
X153668298Y-88079078D01*
X153668298Y-88079078D02*
X153818298Y-87629078D01*
D12*
X91231433Y-60676797D02*
X91231433Y-61210131D01*
X90964766Y-60943464D02*
X91498100Y-60943464D01*
X90898100Y-61376798D02*
X90898100Y-61910131D01*
X90898100Y-61910131D02*
X90898100Y-62443464D01*
X90898100Y-62443464D02*
X90898100Y-62976797D01*
X91231433Y-63143463D02*
X91231433Y-63676797D01*
D11*
X156726221Y-73961701D02*
X156747650Y-73983129D01*
X156747650Y-73983129D02*
X156769078Y-74047415D01*
X156769078Y-74047415D02*
X156769078Y-74090272D01*
X156769078Y-74090272D02*
X156747650Y-74154558D01*
X156747650Y-74154558D02*
X156704792Y-74197415D01*
X156704792Y-74197415D02*
X156661935Y-74218844D01*
X156661935Y-74218844D02*
X156576221Y-74240272D01*
X156576221Y-74240272D02*
X156511935Y-74240272D01*
X156511935Y-74240272D02*
X156426221Y-74218844D01*
X156426221Y-74218844D02*
X156383364Y-74197415D01*
X156383364Y-74197415D02*
X156340507Y-74154558D01*
X156340507Y-74154558D02*
X156319078Y-74090272D01*
X156319078Y-74090272D02*
X156319078Y-74047415D01*
X156319078Y-74047415D02*
X156340507Y-73983129D01*
X156340507Y-73983129D02*
X156361935Y-73961701D01*
X156747650Y-73790272D02*
X156769078Y-73725987D01*
X156769078Y-73725987D02*
X156769078Y-73618844D01*
X156769078Y-73618844D02*
X156747650Y-73575987D01*
X156747650Y-73575987D02*
X156726221Y-73554558D01*
X156726221Y-73554558D02*
X156683364Y-73533129D01*
X156683364Y-73533129D02*
X156640507Y-73533129D01*
X156640507Y-73533129D02*
X156597650Y-73554558D01*
X156597650Y-73554558D02*
X156576221Y-73575987D01*
X156576221Y-73575987D02*
X156554792Y-73618844D01*
X156554792Y-73618844D02*
X156533364Y-73704558D01*
X156533364Y-73704558D02*
X156511935Y-73747415D01*
X156511935Y-73747415D02*
X156490507Y-73768844D01*
X156490507Y-73768844D02*
X156447650Y-73790272D01*
X156447650Y-73790272D02*
X156404792Y-73790272D01*
X156404792Y-73790272D02*
X156361935Y-73768844D01*
X156361935Y-73768844D02*
X156340507Y-73747415D01*
X156340507Y-73747415D02*
X156319078Y-73704558D01*
X156319078Y-73704558D02*
X156319078Y-73597415D01*
X156319078Y-73597415D02*
X156340507Y-73533129D01*
X97288298Y-48909078D02*
X97138298Y-48694792D01*
X97031155Y-48909078D02*
X97031155Y-48459078D01*
X97031155Y-48459078D02*
X97202584Y-48459078D01*
X97202584Y-48459078D02*
X97245441Y-48480507D01*
X97245441Y-48480507D02*
X97266870Y-48501935D01*
X97266870Y-48501935D02*
X97288298Y-48544792D01*
X97288298Y-48544792D02*
X97288298Y-48609078D01*
X97288298Y-48609078D02*
X97266870Y-48651935D01*
X97266870Y-48651935D02*
X97245441Y-48673364D01*
X97245441Y-48673364D02*
X97202584Y-48694792D01*
X97202584Y-48694792D02*
X97031155Y-48694792D01*
X97438298Y-48459078D02*
X97738298Y-48459078D01*
X97738298Y-48459078D02*
X97545441Y-48909078D01*
X161979078Y-70288844D02*
X161529078Y-70288844D01*
X161529078Y-70288844D02*
X161850507Y-70138844D01*
X161850507Y-70138844D02*
X161529078Y-69988844D01*
X161529078Y-69988844D02*
X161979078Y-69988844D01*
X161979078Y-69774558D02*
X161529078Y-69774558D01*
X161957650Y-69581700D02*
X161979078Y-69517415D01*
X161979078Y-69517415D02*
X161979078Y-69410272D01*
X161979078Y-69410272D02*
X161957650Y-69367415D01*
X161957650Y-69367415D02*
X161936221Y-69345986D01*
X161936221Y-69345986D02*
X161893364Y-69324557D01*
X161893364Y-69324557D02*
X161850507Y-69324557D01*
X161850507Y-69324557D02*
X161807650Y-69345986D01*
X161807650Y-69345986D02*
X161786221Y-69367415D01*
X161786221Y-69367415D02*
X161764792Y-69410272D01*
X161764792Y-69410272D02*
X161743364Y-69495986D01*
X161743364Y-69495986D02*
X161721935Y-69538843D01*
X161721935Y-69538843D02*
X161700507Y-69560272D01*
X161700507Y-69560272D02*
X161657650Y-69581700D01*
X161657650Y-69581700D02*
X161614792Y-69581700D01*
X161614792Y-69581700D02*
X161571935Y-69560272D01*
X161571935Y-69560272D02*
X161550507Y-69538843D01*
X161550507Y-69538843D02*
X161529078Y-69495986D01*
X161529078Y-69495986D02*
X161529078Y-69388843D01*
X161529078Y-69388843D02*
X161550507Y-69324557D01*
X161529078Y-69045986D02*
X161529078Y-68960272D01*
X161529078Y-68960272D02*
X161550507Y-68917415D01*
X161550507Y-68917415D02*
X161593364Y-68874558D01*
X161593364Y-68874558D02*
X161679078Y-68853129D01*
X161679078Y-68853129D02*
X161829078Y-68853129D01*
X161829078Y-68853129D02*
X161914792Y-68874558D01*
X161914792Y-68874558D02*
X161957650Y-68917415D01*
X161957650Y-68917415D02*
X161979078Y-68960272D01*
X161979078Y-68960272D02*
X161979078Y-69045986D01*
X161979078Y-69045986D02*
X161957650Y-69088844D01*
X161957650Y-69088844D02*
X161914792Y-69131701D01*
X161914792Y-69131701D02*
X161829078Y-69153129D01*
X161829078Y-69153129D02*
X161679078Y-69153129D01*
X161679078Y-69153129D02*
X161593364Y-69131701D01*
X161593364Y-69131701D02*
X161550507Y-69088844D01*
X161550507Y-69088844D02*
X161529078Y-69045986D01*
X109521155Y-49893364D02*
X109585441Y-49914792D01*
X109585441Y-49914792D02*
X109606870Y-49936221D01*
X109606870Y-49936221D02*
X109628298Y-49979078D01*
X109628298Y-49979078D02*
X109628298Y-50043364D01*
X109628298Y-50043364D02*
X109606870Y-50086221D01*
X109606870Y-50086221D02*
X109585441Y-50107650D01*
X109585441Y-50107650D02*
X109542584Y-50129078D01*
X109542584Y-50129078D02*
X109371155Y-50129078D01*
X109371155Y-50129078D02*
X109371155Y-49679078D01*
X109371155Y-49679078D02*
X109521155Y-49679078D01*
X109521155Y-49679078D02*
X109564013Y-49700507D01*
X109564013Y-49700507D02*
X109585441Y-49721935D01*
X109585441Y-49721935D02*
X109606870Y-49764792D01*
X109606870Y-49764792D02*
X109606870Y-49807650D01*
X109606870Y-49807650D02*
X109585441Y-49850507D01*
X109585441Y-49850507D02*
X109564013Y-49871935D01*
X109564013Y-49871935D02*
X109521155Y-49893364D01*
X109521155Y-49893364D02*
X109371155Y-49893364D01*
X109971155Y-49893364D02*
X110035441Y-49914792D01*
X110035441Y-49914792D02*
X110056870Y-49936221D01*
X110056870Y-49936221D02*
X110078298Y-49979078D01*
X110078298Y-49979078D02*
X110078298Y-50043364D01*
X110078298Y-50043364D02*
X110056870Y-50086221D01*
X110056870Y-50086221D02*
X110035441Y-50107650D01*
X110035441Y-50107650D02*
X109992584Y-50129078D01*
X109992584Y-50129078D02*
X109821155Y-50129078D01*
X109821155Y-50129078D02*
X109821155Y-49679078D01*
X109821155Y-49679078D02*
X109971155Y-49679078D01*
X109971155Y-49679078D02*
X110014013Y-49700507D01*
X110014013Y-49700507D02*
X110035441Y-49721935D01*
X110035441Y-49721935D02*
X110056870Y-49764792D01*
X110056870Y-49764792D02*
X110056870Y-49807650D01*
X110056870Y-49807650D02*
X110035441Y-49850507D01*
X110035441Y-49850507D02*
X110014013Y-49871935D01*
X110014013Y-49871935D02*
X109971155Y-49893364D01*
X109971155Y-49893364D02*
X109821155Y-49893364D01*
X110506870Y-50129078D02*
X110249727Y-50129078D01*
X110378298Y-50129078D02*
X110378298Y-49679078D01*
X110378298Y-49679078D02*
X110335441Y-49743364D01*
X110335441Y-49743364D02*
X110292584Y-49786221D01*
X110292584Y-49786221D02*
X110249727Y-49807650D01*
X102608298Y-48909078D02*
X102458298Y-48694792D01*
X102351155Y-48909078D02*
X102351155Y-48459078D01*
X102351155Y-48459078D02*
X102522584Y-48459078D01*
X102522584Y-48459078D02*
X102565441Y-48480507D01*
X102565441Y-48480507D02*
X102586870Y-48501935D01*
X102586870Y-48501935D02*
X102608298Y-48544792D01*
X102608298Y-48544792D02*
X102608298Y-48609078D01*
X102608298Y-48609078D02*
X102586870Y-48651935D01*
X102586870Y-48651935D02*
X102565441Y-48673364D01*
X102565441Y-48673364D02*
X102522584Y-48694792D01*
X102522584Y-48694792D02*
X102351155Y-48694792D01*
X102822584Y-48909078D02*
X102908298Y-48909078D01*
X102908298Y-48909078D02*
X102951155Y-48887650D01*
X102951155Y-48887650D02*
X102972584Y-48866221D01*
X102972584Y-48866221D02*
X103015441Y-48801935D01*
X103015441Y-48801935D02*
X103036870Y-48716221D01*
X103036870Y-48716221D02*
X103036870Y-48544792D01*
X103036870Y-48544792D02*
X103015441Y-48501935D01*
X103015441Y-48501935D02*
X102994013Y-48480507D01*
X102994013Y-48480507D02*
X102951155Y-48459078D01*
X102951155Y-48459078D02*
X102865441Y-48459078D01*
X102865441Y-48459078D02*
X102822584Y-48480507D01*
X102822584Y-48480507D02*
X102801155Y-48501935D01*
X102801155Y-48501935D02*
X102779727Y-48544792D01*
X102779727Y-48544792D02*
X102779727Y-48651935D01*
X102779727Y-48651935D02*
X102801155Y-48694792D01*
X102801155Y-48694792D02*
X102822584Y-48716221D01*
X102822584Y-48716221D02*
X102865441Y-48737650D01*
X102865441Y-48737650D02*
X102951155Y-48737650D01*
X102951155Y-48737650D02*
X102994013Y-48716221D01*
X102994013Y-48716221D02*
X103015441Y-48694792D01*
X103015441Y-48694792D02*
X103036870Y-48651935D01*
X162499727Y-65447650D02*
X162564013Y-65469078D01*
X162564013Y-65469078D02*
X162671155Y-65469078D01*
X162671155Y-65469078D02*
X162714013Y-65447650D01*
X162714013Y-65447650D02*
X162735441Y-65426221D01*
X162735441Y-65426221D02*
X162756870Y-65383364D01*
X162756870Y-65383364D02*
X162756870Y-65340507D01*
X162756870Y-65340507D02*
X162735441Y-65297650D01*
X162735441Y-65297650D02*
X162714013Y-65276221D01*
X162714013Y-65276221D02*
X162671155Y-65254792D01*
X162671155Y-65254792D02*
X162585441Y-65233364D01*
X162585441Y-65233364D02*
X162542584Y-65211935D01*
X162542584Y-65211935D02*
X162521155Y-65190507D01*
X162521155Y-65190507D02*
X162499727Y-65147650D01*
X162499727Y-65147650D02*
X162499727Y-65104792D01*
X162499727Y-65104792D02*
X162521155Y-65061935D01*
X162521155Y-65061935D02*
X162542584Y-65040507D01*
X162542584Y-65040507D02*
X162585441Y-65019078D01*
X162585441Y-65019078D02*
X162692584Y-65019078D01*
X162692584Y-65019078D02*
X162756870Y-65040507D01*
X162949726Y-65469078D02*
X162949726Y-65019078D01*
X162949726Y-65019078D02*
X163056869Y-65019078D01*
X163056869Y-65019078D02*
X163121155Y-65040507D01*
X163121155Y-65040507D02*
X163164012Y-65083364D01*
X163164012Y-65083364D02*
X163185441Y-65126221D01*
X163185441Y-65126221D02*
X163206869Y-65211935D01*
X163206869Y-65211935D02*
X163206869Y-65276221D01*
X163206869Y-65276221D02*
X163185441Y-65361935D01*
X163185441Y-65361935D02*
X163164012Y-65404792D01*
X163164012Y-65404792D02*
X163121155Y-65447650D01*
X163121155Y-65447650D02*
X163056869Y-65469078D01*
X163056869Y-65469078D02*
X162949726Y-65469078D01*
X163292584Y-65511935D02*
X163635441Y-65511935D01*
X163999726Y-65426221D02*
X163978298Y-65447650D01*
X163978298Y-65447650D02*
X163914012Y-65469078D01*
X163914012Y-65469078D02*
X163871155Y-65469078D01*
X163871155Y-65469078D02*
X163806869Y-65447650D01*
X163806869Y-65447650D02*
X163764012Y-65404792D01*
X163764012Y-65404792D02*
X163742583Y-65361935D01*
X163742583Y-65361935D02*
X163721155Y-65276221D01*
X163721155Y-65276221D02*
X163721155Y-65211935D01*
X163721155Y-65211935D02*
X163742583Y-65126221D01*
X163742583Y-65126221D02*
X163764012Y-65083364D01*
X163764012Y-65083364D02*
X163806869Y-65040507D01*
X163806869Y-65040507D02*
X163871155Y-65019078D01*
X163871155Y-65019078D02*
X163914012Y-65019078D01*
X163914012Y-65019078D02*
X163978298Y-65040507D01*
X163978298Y-65040507D02*
X163999726Y-65061935D01*
X164171155Y-65340507D02*
X164385441Y-65340507D01*
X164128298Y-65469078D02*
X164278298Y-65019078D01*
X164278298Y-65019078D02*
X164428298Y-65469078D01*
X164835440Y-65469078D02*
X164685440Y-65254792D01*
X164578297Y-65469078D02*
X164578297Y-65019078D01*
X164578297Y-65019078D02*
X164749726Y-65019078D01*
X164749726Y-65019078D02*
X164792583Y-65040507D01*
X164792583Y-65040507D02*
X164814012Y-65061935D01*
X164814012Y-65061935D02*
X164835440Y-65104792D01*
X164835440Y-65104792D02*
X164835440Y-65169078D01*
X164835440Y-65169078D02*
X164814012Y-65211935D01*
X164814012Y-65211935D02*
X164792583Y-65233364D01*
X164792583Y-65233364D02*
X164749726Y-65254792D01*
X164749726Y-65254792D02*
X164578297Y-65254792D01*
X165028297Y-65469078D02*
X165028297Y-65019078D01*
X165028297Y-65019078D02*
X165135440Y-65019078D01*
X165135440Y-65019078D02*
X165199726Y-65040507D01*
X165199726Y-65040507D02*
X165242583Y-65083364D01*
X165242583Y-65083364D02*
X165264012Y-65126221D01*
X165264012Y-65126221D02*
X165285440Y-65211935D01*
X165285440Y-65211935D02*
X165285440Y-65276221D01*
X165285440Y-65276221D02*
X165264012Y-65361935D01*
X165264012Y-65361935D02*
X165242583Y-65404792D01*
X165242583Y-65404792D02*
X165199726Y-65447650D01*
X165199726Y-65447650D02*
X165135440Y-65469078D01*
X165135440Y-65469078D02*
X165028297Y-65469078D01*
X92448298Y-58519078D02*
X92298298Y-58304792D01*
X92191155Y-58519078D02*
X92191155Y-58069078D01*
X92191155Y-58069078D02*
X92362584Y-58069078D01*
X92362584Y-58069078D02*
X92405441Y-58090507D01*
X92405441Y-58090507D02*
X92426870Y-58111935D01*
X92426870Y-58111935D02*
X92448298Y-58154792D01*
X92448298Y-58154792D02*
X92448298Y-58219078D01*
X92448298Y-58219078D02*
X92426870Y-58261935D01*
X92426870Y-58261935D02*
X92405441Y-58283364D01*
X92405441Y-58283364D02*
X92362584Y-58304792D01*
X92362584Y-58304792D02*
X92191155Y-58304792D01*
X92876870Y-58519078D02*
X92619727Y-58519078D01*
X92748298Y-58519078D02*
X92748298Y-58069078D01*
X92748298Y-58069078D02*
X92705441Y-58133364D01*
X92705441Y-58133364D02*
X92662584Y-58176221D01*
X92662584Y-58176221D02*
X92619727Y-58197650D01*
X156769078Y-62628844D02*
X156319078Y-62628844D01*
X156319078Y-62628844D02*
X156640507Y-62478844D01*
X156640507Y-62478844D02*
X156319078Y-62328844D01*
X156319078Y-62328844D02*
X156769078Y-62328844D01*
X156769078Y-62114558D02*
X156319078Y-62114558D01*
X156747650Y-61921700D02*
X156769078Y-61857415D01*
X156769078Y-61857415D02*
X156769078Y-61750272D01*
X156769078Y-61750272D02*
X156747650Y-61707415D01*
X156747650Y-61707415D02*
X156726221Y-61685986D01*
X156726221Y-61685986D02*
X156683364Y-61664557D01*
X156683364Y-61664557D02*
X156640507Y-61664557D01*
X156640507Y-61664557D02*
X156597650Y-61685986D01*
X156597650Y-61685986D02*
X156576221Y-61707415D01*
X156576221Y-61707415D02*
X156554792Y-61750272D01*
X156554792Y-61750272D02*
X156533364Y-61835986D01*
X156533364Y-61835986D02*
X156511935Y-61878843D01*
X156511935Y-61878843D02*
X156490507Y-61900272D01*
X156490507Y-61900272D02*
X156447650Y-61921700D01*
X156447650Y-61921700D02*
X156404792Y-61921700D01*
X156404792Y-61921700D02*
X156361935Y-61900272D01*
X156361935Y-61900272D02*
X156340507Y-61878843D01*
X156340507Y-61878843D02*
X156319078Y-61835986D01*
X156319078Y-61835986D02*
X156319078Y-61728843D01*
X156319078Y-61728843D02*
X156340507Y-61664557D01*
X156319078Y-61385986D02*
X156319078Y-61300272D01*
X156319078Y-61300272D02*
X156340507Y-61257415D01*
X156340507Y-61257415D02*
X156383364Y-61214558D01*
X156383364Y-61214558D02*
X156469078Y-61193129D01*
X156469078Y-61193129D02*
X156619078Y-61193129D01*
X156619078Y-61193129D02*
X156704792Y-61214558D01*
X156704792Y-61214558D02*
X156747650Y-61257415D01*
X156747650Y-61257415D02*
X156769078Y-61300272D01*
X156769078Y-61300272D02*
X156769078Y-61385986D01*
X156769078Y-61385986D02*
X156747650Y-61428844D01*
X156747650Y-61428844D02*
X156704792Y-61471701D01*
X156704792Y-61471701D02*
X156619078Y-61493129D01*
X156619078Y-61493129D02*
X156469078Y-61493129D01*
X156469078Y-61493129D02*
X156383364Y-61471701D01*
X156383364Y-61471701D02*
X156340507Y-61428844D01*
X156340507Y-61428844D02*
X156319078Y-61385986D01*
X91200921Y-64208298D02*
X90750921Y-64508298D01*
X91200921Y-64508298D02*
X90750921Y-64208298D01*
X90750921Y-64915441D02*
X90750921Y-64658298D01*
X90750921Y-64786869D02*
X91200921Y-64786869D01*
X91200921Y-64786869D02*
X91136635Y-64744012D01*
X91136635Y-64744012D02*
X91093778Y-64701155D01*
X91093778Y-64701155D02*
X91072350Y-64658298D01*
X118870921Y-79728298D02*
X119085207Y-79578298D01*
X118870921Y-79471155D02*
X119320921Y-79471155D01*
X119320921Y-79471155D02*
X119320921Y-79642584D01*
X119320921Y-79642584D02*
X119299492Y-79685441D01*
X119299492Y-79685441D02*
X119278064Y-79706870D01*
X119278064Y-79706870D02*
X119235207Y-79728298D01*
X119235207Y-79728298D02*
X119170921Y-79728298D01*
X119170921Y-79728298D02*
X119128064Y-79706870D01*
X119128064Y-79706870D02*
X119106635Y-79685441D01*
X119106635Y-79685441D02*
X119085207Y-79642584D01*
X119085207Y-79642584D02*
X119085207Y-79471155D01*
X118870921Y-80135441D02*
X118870921Y-79921155D01*
X118870921Y-79921155D02*
X119320921Y-79921155D01*
X107028298Y-50129078D02*
X106878298Y-49914792D01*
X106771155Y-50129078D02*
X106771155Y-49679078D01*
X106771155Y-49679078D02*
X106942584Y-49679078D01*
X106942584Y-49679078D02*
X106985441Y-49700507D01*
X106985441Y-49700507D02*
X107006870Y-49721935D01*
X107006870Y-49721935D02*
X107028298Y-49764792D01*
X107028298Y-49764792D02*
X107028298Y-49829078D01*
X107028298Y-49829078D02*
X107006870Y-49871935D01*
X107006870Y-49871935D02*
X106985441Y-49893364D01*
X106985441Y-49893364D02*
X106942584Y-49914792D01*
X106942584Y-49914792D02*
X106771155Y-49914792D01*
X107456870Y-50129078D02*
X107199727Y-50129078D01*
X107328298Y-50129078D02*
X107328298Y-49679078D01*
X107328298Y-49679078D02*
X107285441Y-49743364D01*
X107285441Y-49743364D02*
X107242584Y-49786221D01*
X107242584Y-49786221D02*
X107199727Y-49807650D01*
X107885441Y-50129078D02*
X107628298Y-50129078D01*
X107756869Y-50129078D02*
X107756869Y-49679078D01*
X107756869Y-49679078D02*
X107714012Y-49743364D01*
X107714012Y-49743364D02*
X107671155Y-49786221D01*
X107671155Y-49786221D02*
X107628298Y-49807650D01*
X134648298Y-68209078D02*
X134498298Y-67994792D01*
X134391155Y-68209078D02*
X134391155Y-67759078D01*
X134391155Y-67759078D02*
X134562584Y-67759078D01*
X134562584Y-67759078D02*
X134605441Y-67780507D01*
X134605441Y-67780507D02*
X134626870Y-67801935D01*
X134626870Y-67801935D02*
X134648298Y-67844792D01*
X134648298Y-67844792D02*
X134648298Y-67909078D01*
X134648298Y-67909078D02*
X134626870Y-67951935D01*
X134626870Y-67951935D02*
X134605441Y-67973364D01*
X134605441Y-67973364D02*
X134562584Y-67994792D01*
X134562584Y-67994792D02*
X134391155Y-67994792D01*
X135076870Y-68209078D02*
X134819727Y-68209078D01*
X134948298Y-68209078D02*
X134948298Y-67759078D01*
X134948298Y-67759078D02*
X134905441Y-67823364D01*
X134905441Y-67823364D02*
X134862584Y-67866221D01*
X134862584Y-67866221D02*
X134819727Y-67887650D01*
X135291155Y-68209078D02*
X135376869Y-68209078D01*
X135376869Y-68209078D02*
X135419726Y-68187650D01*
X135419726Y-68187650D02*
X135441155Y-68166221D01*
X135441155Y-68166221D02*
X135484012Y-68101935D01*
X135484012Y-68101935D02*
X135505441Y-68016221D01*
X135505441Y-68016221D02*
X135505441Y-67844792D01*
X135505441Y-67844792D02*
X135484012Y-67801935D01*
X135484012Y-67801935D02*
X135462584Y-67780507D01*
X135462584Y-67780507D02*
X135419726Y-67759078D01*
X135419726Y-67759078D02*
X135334012Y-67759078D01*
X135334012Y-67759078D02*
X135291155Y-67780507D01*
X135291155Y-67780507D02*
X135269726Y-67801935D01*
X135269726Y-67801935D02*
X135248298Y-67844792D01*
X135248298Y-67844792D02*
X135248298Y-67951935D01*
X135248298Y-67951935D02*
X135269726Y-67994792D01*
X135269726Y-67994792D02*
X135291155Y-68016221D01*
X135291155Y-68016221D02*
X135334012Y-68037650D01*
X135334012Y-68037650D02*
X135419726Y-68037650D01*
X135419726Y-68037650D02*
X135462584Y-68016221D01*
X135462584Y-68016221D02*
X135484012Y-67994792D01*
X135484012Y-67994792D02*
X135505441Y-67951935D01*
X106191155Y-81363364D02*
X106255441Y-81384792D01*
X106255441Y-81384792D02*
X106276870Y-81406221D01*
X106276870Y-81406221D02*
X106298298Y-81449078D01*
X106298298Y-81449078D02*
X106298298Y-81513364D01*
X106298298Y-81513364D02*
X106276870Y-81556221D01*
X106276870Y-81556221D02*
X106255441Y-81577650D01*
X106255441Y-81577650D02*
X106212584Y-81599078D01*
X106212584Y-81599078D02*
X106041155Y-81599078D01*
X106041155Y-81599078D02*
X106041155Y-81149078D01*
X106041155Y-81149078D02*
X106191155Y-81149078D01*
X106191155Y-81149078D02*
X106234013Y-81170507D01*
X106234013Y-81170507D02*
X106255441Y-81191935D01*
X106255441Y-81191935D02*
X106276870Y-81234792D01*
X106276870Y-81234792D02*
X106276870Y-81277650D01*
X106276870Y-81277650D02*
X106255441Y-81320507D01*
X106255441Y-81320507D02*
X106234013Y-81341935D01*
X106234013Y-81341935D02*
X106191155Y-81363364D01*
X106191155Y-81363364D02*
X106041155Y-81363364D01*
X106469727Y-81191935D02*
X106491155Y-81170507D01*
X106491155Y-81170507D02*
X106534013Y-81149078D01*
X106534013Y-81149078D02*
X106641155Y-81149078D01*
X106641155Y-81149078D02*
X106684013Y-81170507D01*
X106684013Y-81170507D02*
X106705441Y-81191935D01*
X106705441Y-81191935D02*
X106726870Y-81234792D01*
X106726870Y-81234792D02*
X106726870Y-81277650D01*
X106726870Y-81277650D02*
X106705441Y-81341935D01*
X106705441Y-81341935D02*
X106448298Y-81599078D01*
X106448298Y-81599078D02*
X106726870Y-81599078D01*
X163368298Y-75589078D02*
X163668298Y-76039078D01*
X163668298Y-75589078D02*
X163368298Y-76039078D01*
X164032584Y-75739078D02*
X164032584Y-76039078D01*
X163925441Y-75567650D02*
X163818298Y-75889078D01*
X163818298Y-75889078D02*
X164096869Y-75889078D01*
X145171155Y-88079078D02*
X145171155Y-87629078D01*
X145171155Y-87629078D02*
X145278298Y-87629078D01*
X145278298Y-87629078D02*
X145342584Y-87650507D01*
X145342584Y-87650507D02*
X145385441Y-87693364D01*
X145385441Y-87693364D02*
X145406870Y-87736221D01*
X145406870Y-87736221D02*
X145428298Y-87821935D01*
X145428298Y-87821935D02*
X145428298Y-87886221D01*
X145428298Y-87886221D02*
X145406870Y-87971935D01*
X145406870Y-87971935D02*
X145385441Y-88014792D01*
X145385441Y-88014792D02*
X145342584Y-88057650D01*
X145342584Y-88057650D02*
X145278298Y-88079078D01*
X145278298Y-88079078D02*
X145171155Y-88079078D01*
X145578298Y-87629078D02*
X145878298Y-87629078D01*
X145878298Y-87629078D02*
X145685441Y-88079078D01*
X164688298Y-47679078D02*
X164966870Y-47679078D01*
X164966870Y-47679078D02*
X164816870Y-47850507D01*
X164816870Y-47850507D02*
X164881155Y-47850507D01*
X164881155Y-47850507D02*
X164924013Y-47871935D01*
X164924013Y-47871935D02*
X164945441Y-47893364D01*
X164945441Y-47893364D02*
X164966870Y-47936221D01*
X164966870Y-47936221D02*
X164966870Y-48043364D01*
X164966870Y-48043364D02*
X164945441Y-48086221D01*
X164945441Y-48086221D02*
X164924013Y-48107650D01*
X164924013Y-48107650D02*
X164881155Y-48129078D01*
X164881155Y-48129078D02*
X164752584Y-48129078D01*
X164752584Y-48129078D02*
X164709727Y-48107650D01*
X164709727Y-48107650D02*
X164688298Y-48086221D01*
X165159726Y-48086221D02*
X165181155Y-48107650D01*
X165181155Y-48107650D02*
X165159726Y-48129078D01*
X165159726Y-48129078D02*
X165138298Y-48107650D01*
X165138298Y-48107650D02*
X165159726Y-48086221D01*
X165159726Y-48086221D02*
X165159726Y-48129078D01*
X165331155Y-47679078D02*
X165609727Y-47679078D01*
X165609727Y-47679078D02*
X165459727Y-47850507D01*
X165459727Y-47850507D02*
X165524012Y-47850507D01*
X165524012Y-47850507D02*
X165566870Y-47871935D01*
X165566870Y-47871935D02*
X165588298Y-47893364D01*
X165588298Y-47893364D02*
X165609727Y-47936221D01*
X165609727Y-47936221D02*
X165609727Y-48043364D01*
X165609727Y-48043364D02*
X165588298Y-48086221D01*
X165588298Y-48086221D02*
X165566870Y-48107650D01*
X165566870Y-48107650D02*
X165524012Y-48129078D01*
X165524012Y-48129078D02*
X165395441Y-48129078D01*
X165395441Y-48129078D02*
X165352584Y-48107650D01*
X165352584Y-48107650D02*
X165331155Y-48086221D01*
X165738298Y-47679078D02*
X165888298Y-48129078D01*
X165888298Y-48129078D02*
X166038298Y-47679078D01*
X96146870Y-42749078D02*
X96296870Y-43199078D01*
X96296870Y-43199078D02*
X96446870Y-42749078D01*
X96832584Y-43199078D02*
X96575441Y-43199078D01*
X96704012Y-43199078D02*
X96704012Y-42749078D01*
X96704012Y-42749078D02*
X96661155Y-42813364D01*
X96661155Y-42813364D02*
X96618298Y-42856221D01*
X96618298Y-42856221D02*
X96575441Y-42877650D01*
X99049078Y-54511701D02*
X98834792Y-54661701D01*
X99049078Y-54768844D02*
X98599078Y-54768844D01*
X98599078Y-54768844D02*
X98599078Y-54597415D01*
X98599078Y-54597415D02*
X98620507Y-54554558D01*
X98620507Y-54554558D02*
X98641935Y-54533129D01*
X98641935Y-54533129D02*
X98684792Y-54511701D01*
X98684792Y-54511701D02*
X98749078Y-54511701D01*
X98749078Y-54511701D02*
X98791935Y-54533129D01*
X98791935Y-54533129D02*
X98813364Y-54554558D01*
X98813364Y-54554558D02*
X98834792Y-54597415D01*
X98834792Y-54597415D02*
X98834792Y-54768844D01*
X99049078Y-54083129D02*
X99049078Y-54340272D01*
X99049078Y-54211701D02*
X98599078Y-54211701D01*
X98599078Y-54211701D02*
X98663364Y-54254558D01*
X98663364Y-54254558D02*
X98706221Y-54297415D01*
X98706221Y-54297415D02*
X98727650Y-54340272D01*
X98599078Y-53804558D02*
X98599078Y-53761701D01*
X98599078Y-53761701D02*
X98620507Y-53718844D01*
X98620507Y-53718844D02*
X98641935Y-53697416D01*
X98641935Y-53697416D02*
X98684792Y-53675987D01*
X98684792Y-53675987D02*
X98770507Y-53654558D01*
X98770507Y-53654558D02*
X98877650Y-53654558D01*
X98877650Y-53654558D02*
X98963364Y-53675987D01*
X98963364Y-53675987D02*
X99006221Y-53697416D01*
X99006221Y-53697416D02*
X99027650Y-53718844D01*
X99027650Y-53718844D02*
X99049078Y-53761701D01*
X99049078Y-53761701D02*
X99049078Y-53804558D01*
X99049078Y-53804558D02*
X99027650Y-53847416D01*
X99027650Y-53847416D02*
X99006221Y-53868844D01*
X99006221Y-53868844D02*
X98963364Y-53890273D01*
X98963364Y-53890273D02*
X98877650Y-53911701D01*
X98877650Y-53911701D02*
X98770507Y-53911701D01*
X98770507Y-53911701D02*
X98684792Y-53890273D01*
X98684792Y-53890273D02*
X98641935Y-53868844D01*
X98641935Y-53868844D02*
X98620507Y-53847416D01*
X98620507Y-53847416D02*
X98599078Y-53804558D01*
X147521155Y-80689078D02*
X147521155Y-80239078D01*
X147521155Y-80239078D02*
X147628298Y-80239078D01*
X147628298Y-80239078D02*
X147692584Y-80260507D01*
X147692584Y-80260507D02*
X147735441Y-80303364D01*
X147735441Y-80303364D02*
X147756870Y-80346221D01*
X147756870Y-80346221D02*
X147778298Y-80431935D01*
X147778298Y-80431935D02*
X147778298Y-80496221D01*
X147778298Y-80496221D02*
X147756870Y-80581935D01*
X147756870Y-80581935D02*
X147735441Y-80624792D01*
X147735441Y-80624792D02*
X147692584Y-80667650D01*
X147692584Y-80667650D02*
X147628298Y-80689078D01*
X147628298Y-80689078D02*
X147521155Y-80689078D01*
X148164013Y-80389078D02*
X148164013Y-80689078D01*
X148056870Y-80217650D02*
X147949727Y-80539078D01*
X147949727Y-80539078D02*
X148228298Y-80539078D01*
X148356869Y-80239078D02*
X148656869Y-80239078D01*
X148656869Y-80239078D02*
X148464012Y-80689078D01*
X128456870Y-65749078D02*
X128542584Y-65749078D01*
X128542584Y-65749078D02*
X128585441Y-65770507D01*
X128585441Y-65770507D02*
X128628298Y-65813364D01*
X128628298Y-65813364D02*
X128649727Y-65899078D01*
X128649727Y-65899078D02*
X128649727Y-66049078D01*
X128649727Y-66049078D02*
X128628298Y-66134792D01*
X128628298Y-66134792D02*
X128585441Y-66177650D01*
X128585441Y-66177650D02*
X128542584Y-66199078D01*
X128542584Y-66199078D02*
X128456870Y-66199078D01*
X128456870Y-66199078D02*
X128414013Y-66177650D01*
X128414013Y-66177650D02*
X128371155Y-66134792D01*
X128371155Y-66134792D02*
X128349727Y-66049078D01*
X128349727Y-66049078D02*
X128349727Y-65899078D01*
X128349727Y-65899078D02*
X128371155Y-65813364D01*
X128371155Y-65813364D02*
X128414013Y-65770507D01*
X128414013Y-65770507D02*
X128456870Y-65749078D01*
X128842584Y-66199078D02*
X128842584Y-65749078D01*
X128842584Y-65749078D02*
X129014013Y-65749078D01*
X129014013Y-65749078D02*
X129056870Y-65770507D01*
X129056870Y-65770507D02*
X129078299Y-65791935D01*
X129078299Y-65791935D02*
X129099727Y-65834792D01*
X129099727Y-65834792D02*
X129099727Y-65899078D01*
X129099727Y-65899078D02*
X129078299Y-65941935D01*
X129078299Y-65941935D02*
X129056870Y-65963364D01*
X129056870Y-65963364D02*
X129014013Y-65984792D01*
X129014013Y-65984792D02*
X128842584Y-65984792D01*
X129528299Y-66199078D02*
X129271156Y-66199078D01*
X129399727Y-66199078D02*
X129399727Y-65749078D01*
X129399727Y-65749078D02*
X129356870Y-65813364D01*
X129356870Y-65813364D02*
X129314013Y-65856221D01*
X129314013Y-65856221D02*
X129271156Y-65877650D01*
X157458298Y-53409078D02*
X157308298Y-53194792D01*
X157201155Y-53409078D02*
X157201155Y-52959078D01*
X157201155Y-52959078D02*
X157372584Y-52959078D01*
X157372584Y-52959078D02*
X157415441Y-52980507D01*
X157415441Y-52980507D02*
X157436870Y-53001935D01*
X157436870Y-53001935D02*
X157458298Y-53044792D01*
X157458298Y-53044792D02*
X157458298Y-53109078D01*
X157458298Y-53109078D02*
X157436870Y-53151935D01*
X157436870Y-53151935D02*
X157415441Y-53173364D01*
X157415441Y-53173364D02*
X157372584Y-53194792D01*
X157372584Y-53194792D02*
X157201155Y-53194792D01*
X157608298Y-52959078D02*
X157908298Y-53409078D01*
X157908298Y-52959078D02*
X157608298Y-53409078D01*
X142471155Y-88079078D02*
X142471155Y-87629078D01*
X142471155Y-87629078D02*
X142578298Y-87629078D01*
X142578298Y-87629078D02*
X142642584Y-87650507D01*
X142642584Y-87650507D02*
X142685441Y-87693364D01*
X142685441Y-87693364D02*
X142706870Y-87736221D01*
X142706870Y-87736221D02*
X142728298Y-87821935D01*
X142728298Y-87821935D02*
X142728298Y-87886221D01*
X142728298Y-87886221D02*
X142706870Y-87971935D01*
X142706870Y-87971935D02*
X142685441Y-88014792D01*
X142685441Y-88014792D02*
X142642584Y-88057650D01*
X142642584Y-88057650D02*
X142578298Y-88079078D01*
X142578298Y-88079078D02*
X142471155Y-88079078D01*
X143114013Y-87779078D02*
X143114013Y-88079078D01*
X143006870Y-87607650D02*
X142899727Y-87929078D01*
X142899727Y-87929078D02*
X143178298Y-87929078D01*
X143542584Y-87629078D02*
X143456869Y-87629078D01*
X143456869Y-87629078D02*
X143414012Y-87650507D01*
X143414012Y-87650507D02*
X143392584Y-87671935D01*
X143392584Y-87671935D02*
X143349726Y-87736221D01*
X143349726Y-87736221D02*
X143328298Y-87821935D01*
X143328298Y-87821935D02*
X143328298Y-87993364D01*
X143328298Y-87993364D02*
X143349726Y-88036221D01*
X143349726Y-88036221D02*
X143371155Y-88057650D01*
X143371155Y-88057650D02*
X143414012Y-88079078D01*
X143414012Y-88079078D02*
X143499726Y-88079078D01*
X143499726Y-88079078D02*
X143542584Y-88057650D01*
X143542584Y-88057650D02*
X143564012Y-88036221D01*
X143564012Y-88036221D02*
X143585441Y-87993364D01*
X143585441Y-87993364D02*
X143585441Y-87886221D01*
X143585441Y-87886221D02*
X143564012Y-87843364D01*
X143564012Y-87843364D02*
X143542584Y-87821935D01*
X143542584Y-87821935D02*
X143499726Y-87800507D01*
X143499726Y-87800507D02*
X143414012Y-87800507D01*
X143414012Y-87800507D02*
X143371155Y-87821935D01*
X143371155Y-87821935D02*
X143349726Y-87843364D01*
X143349726Y-87843364D02*
X143328298Y-87886221D01*
X121938298Y-57726221D02*
X121916870Y-57747650D01*
X121916870Y-57747650D02*
X121852584Y-57769078D01*
X121852584Y-57769078D02*
X121809727Y-57769078D01*
X121809727Y-57769078D02*
X121745441Y-57747650D01*
X121745441Y-57747650D02*
X121702584Y-57704792D01*
X121702584Y-57704792D02*
X121681155Y-57661935D01*
X121681155Y-57661935D02*
X121659727Y-57576221D01*
X121659727Y-57576221D02*
X121659727Y-57511935D01*
X121659727Y-57511935D02*
X121681155Y-57426221D01*
X121681155Y-57426221D02*
X121702584Y-57383364D01*
X121702584Y-57383364D02*
X121745441Y-57340507D01*
X121745441Y-57340507D02*
X121809727Y-57319078D01*
X121809727Y-57319078D02*
X121852584Y-57319078D01*
X121852584Y-57319078D02*
X121916870Y-57340507D01*
X121916870Y-57340507D02*
X121938298Y-57361935D01*
X122088298Y-57319078D02*
X122388298Y-57319078D01*
X122388298Y-57319078D02*
X122195441Y-57769078D01*
X155208298Y-81649078D02*
X155508298Y-82099078D01*
X155508298Y-81649078D02*
X155208298Y-82099078D01*
X155894012Y-81649078D02*
X155679726Y-81649078D01*
X155679726Y-81649078D02*
X155658298Y-81863364D01*
X155658298Y-81863364D02*
X155679726Y-81841935D01*
X155679726Y-81841935D02*
X155722584Y-81820507D01*
X155722584Y-81820507D02*
X155829726Y-81820507D01*
X155829726Y-81820507D02*
X155872584Y-81841935D01*
X155872584Y-81841935D02*
X155894012Y-81863364D01*
X155894012Y-81863364D02*
X155915441Y-81906221D01*
X155915441Y-81906221D02*
X155915441Y-82013364D01*
X155915441Y-82013364D02*
X155894012Y-82056221D01*
X155894012Y-82056221D02*
X155872584Y-82077650D01*
X155872584Y-82077650D02*
X155829726Y-82099078D01*
X155829726Y-82099078D02*
X155722584Y-82099078D01*
X155722584Y-82099078D02*
X155679726Y-82077650D01*
X155679726Y-82077650D02*
X155658298Y-82056221D01*
X157244013Y-50329078D02*
X157501156Y-50329078D01*
X157372584Y-50779078D02*
X157372584Y-50329078D01*
X157608298Y-50329078D02*
X157908298Y-50779078D01*
X157908298Y-50329078D02*
X157608298Y-50779078D01*
X89348298Y-43309078D02*
X89198298Y-43094792D01*
X89091155Y-43309078D02*
X89091155Y-42859078D01*
X89091155Y-42859078D02*
X89262584Y-42859078D01*
X89262584Y-42859078D02*
X89305441Y-42880507D01*
X89305441Y-42880507D02*
X89326870Y-42901935D01*
X89326870Y-42901935D02*
X89348298Y-42944792D01*
X89348298Y-42944792D02*
X89348298Y-43009078D01*
X89348298Y-43009078D02*
X89326870Y-43051935D01*
X89326870Y-43051935D02*
X89305441Y-43073364D01*
X89305441Y-43073364D02*
X89262584Y-43094792D01*
X89262584Y-43094792D02*
X89091155Y-43094792D01*
X89498298Y-42859078D02*
X89776870Y-42859078D01*
X89776870Y-42859078D02*
X89626870Y-43030507D01*
X89626870Y-43030507D02*
X89691155Y-43030507D01*
X89691155Y-43030507D02*
X89734013Y-43051935D01*
X89734013Y-43051935D02*
X89755441Y-43073364D01*
X89755441Y-43073364D02*
X89776870Y-43116221D01*
X89776870Y-43116221D02*
X89776870Y-43223364D01*
X89776870Y-43223364D02*
X89755441Y-43266221D01*
X89755441Y-43266221D02*
X89734013Y-43287650D01*
X89734013Y-43287650D02*
X89691155Y-43309078D01*
X89691155Y-43309078D02*
X89562584Y-43309078D01*
X89562584Y-43309078D02*
X89519727Y-43287650D01*
X89519727Y-43287650D02*
X89498298Y-43266221D01*
X93870921Y-63468298D02*
X94085207Y-63318298D01*
X93870921Y-63211155D02*
X94320921Y-63211155D01*
X94320921Y-63211155D02*
X94320921Y-63382584D01*
X94320921Y-63382584D02*
X94299492Y-63425441D01*
X94299492Y-63425441D02*
X94278064Y-63446870D01*
X94278064Y-63446870D02*
X94235207Y-63468298D01*
X94235207Y-63468298D02*
X94170921Y-63468298D01*
X94170921Y-63468298D02*
X94128064Y-63446870D01*
X94128064Y-63446870D02*
X94106635Y-63425441D01*
X94106635Y-63425441D02*
X94085207Y-63382584D01*
X94085207Y-63382584D02*
X94085207Y-63211155D01*
X94278064Y-63639727D02*
X94299492Y-63661155D01*
X94299492Y-63661155D02*
X94320921Y-63704013D01*
X94320921Y-63704013D02*
X94320921Y-63811155D01*
X94320921Y-63811155D02*
X94299492Y-63854013D01*
X94299492Y-63854013D02*
X94278064Y-63875441D01*
X94278064Y-63875441D02*
X94235207Y-63896870D01*
X94235207Y-63896870D02*
X94192350Y-63896870D01*
X94192350Y-63896870D02*
X94128064Y-63875441D01*
X94128064Y-63875441D02*
X93870921Y-63618298D01*
X93870921Y-63618298D02*
X93870921Y-63896870D01*
X138346870Y-60679078D02*
X138496870Y-61129078D01*
X138496870Y-61129078D02*
X138646870Y-60679078D01*
X139011155Y-60679078D02*
X138796869Y-60679078D01*
X138796869Y-60679078D02*
X138775441Y-60893364D01*
X138775441Y-60893364D02*
X138796869Y-60871935D01*
X138796869Y-60871935D02*
X138839727Y-60850507D01*
X138839727Y-60850507D02*
X138946869Y-60850507D01*
X138946869Y-60850507D02*
X138989727Y-60871935D01*
X138989727Y-60871935D02*
X139011155Y-60893364D01*
X139011155Y-60893364D02*
X139032584Y-60936221D01*
X139032584Y-60936221D02*
X139032584Y-61043364D01*
X139032584Y-61043364D02*
X139011155Y-61086221D01*
X139011155Y-61086221D02*
X138989727Y-61107650D01*
X138989727Y-61107650D02*
X138946869Y-61129078D01*
X138946869Y-61129078D02*
X138839727Y-61129078D01*
X138839727Y-61129078D02*
X138796869Y-61107650D01*
X138796869Y-61107650D02*
X138775441Y-61086221D01*
X139971155Y-80689078D02*
X139971155Y-80239078D01*
X139971155Y-80239078D02*
X140078298Y-80239078D01*
X140078298Y-80239078D02*
X140142584Y-80260507D01*
X140142584Y-80260507D02*
X140185441Y-80303364D01*
X140185441Y-80303364D02*
X140206870Y-80346221D01*
X140206870Y-80346221D02*
X140228298Y-80431935D01*
X140228298Y-80431935D02*
X140228298Y-80496221D01*
X140228298Y-80496221D02*
X140206870Y-80581935D01*
X140206870Y-80581935D02*
X140185441Y-80624792D01*
X140185441Y-80624792D02*
X140142584Y-80667650D01*
X140142584Y-80667650D02*
X140078298Y-80689078D01*
X140078298Y-80689078D02*
X139971155Y-80689078D01*
X140656870Y-80689078D02*
X140399727Y-80689078D01*
X140528298Y-80689078D02*
X140528298Y-80239078D01*
X140528298Y-80239078D02*
X140485441Y-80303364D01*
X140485441Y-80303364D02*
X140442584Y-80346221D01*
X140442584Y-80346221D02*
X140399727Y-80367650D01*
X141085441Y-80689078D02*
X140828298Y-80689078D01*
X140956869Y-80689078D02*
X140956869Y-80239078D01*
X140956869Y-80239078D02*
X140914012Y-80303364D01*
X140914012Y-80303364D02*
X140871155Y-80346221D01*
X140871155Y-80346221D02*
X140828298Y-80367650D01*
X116888298Y-59889078D02*
X116738298Y-59674792D01*
X116631155Y-59889078D02*
X116631155Y-59439078D01*
X116631155Y-59439078D02*
X116802584Y-59439078D01*
X116802584Y-59439078D02*
X116845441Y-59460507D01*
X116845441Y-59460507D02*
X116866870Y-59481935D01*
X116866870Y-59481935D02*
X116888298Y-59524792D01*
X116888298Y-59524792D02*
X116888298Y-59589078D01*
X116888298Y-59589078D02*
X116866870Y-59631935D01*
X116866870Y-59631935D02*
X116845441Y-59653364D01*
X116845441Y-59653364D02*
X116802584Y-59674792D01*
X116802584Y-59674792D02*
X116631155Y-59674792D01*
X117316870Y-59889078D02*
X117059727Y-59889078D01*
X117188298Y-59889078D02*
X117188298Y-59439078D01*
X117188298Y-59439078D02*
X117145441Y-59503364D01*
X117145441Y-59503364D02*
X117102584Y-59546221D01*
X117102584Y-59546221D02*
X117059727Y-59567650D01*
X117702584Y-59439078D02*
X117616869Y-59439078D01*
X117616869Y-59439078D02*
X117574012Y-59460507D01*
X117574012Y-59460507D02*
X117552584Y-59481935D01*
X117552584Y-59481935D02*
X117509726Y-59546221D01*
X117509726Y-59546221D02*
X117488298Y-59631935D01*
X117488298Y-59631935D02*
X117488298Y-59803364D01*
X117488298Y-59803364D02*
X117509726Y-59846221D01*
X117509726Y-59846221D02*
X117531155Y-59867650D01*
X117531155Y-59867650D02*
X117574012Y-59889078D01*
X117574012Y-59889078D02*
X117659726Y-59889078D01*
X117659726Y-59889078D02*
X117702584Y-59867650D01*
X117702584Y-59867650D02*
X117724012Y-59846221D01*
X117724012Y-59846221D02*
X117745441Y-59803364D01*
X117745441Y-59803364D02*
X117745441Y-59696221D01*
X117745441Y-59696221D02*
X117724012Y-59653364D01*
X117724012Y-59653364D02*
X117702584Y-59631935D01*
X117702584Y-59631935D02*
X117659726Y-59610507D01*
X117659726Y-59610507D02*
X117574012Y-59610507D01*
X117574012Y-59610507D02*
X117531155Y-59631935D01*
X117531155Y-59631935D02*
X117509726Y-59653364D01*
X117509726Y-59653364D02*
X117488298Y-59696221D01*
X127951155Y-88263364D02*
X128015441Y-88284792D01*
X128015441Y-88284792D02*
X128036870Y-88306221D01*
X128036870Y-88306221D02*
X128058298Y-88349078D01*
X128058298Y-88349078D02*
X128058298Y-88413364D01*
X128058298Y-88413364D02*
X128036870Y-88456221D01*
X128036870Y-88456221D02*
X128015441Y-88477650D01*
X128015441Y-88477650D02*
X127972584Y-88499078D01*
X127972584Y-88499078D02*
X127801155Y-88499078D01*
X127801155Y-88499078D02*
X127801155Y-88049078D01*
X127801155Y-88049078D02*
X127951155Y-88049078D01*
X127951155Y-88049078D02*
X127994013Y-88070507D01*
X127994013Y-88070507D02*
X128015441Y-88091935D01*
X128015441Y-88091935D02*
X128036870Y-88134792D01*
X128036870Y-88134792D02*
X128036870Y-88177650D01*
X128036870Y-88177650D02*
X128015441Y-88220507D01*
X128015441Y-88220507D02*
X127994013Y-88241935D01*
X127994013Y-88241935D02*
X127951155Y-88263364D01*
X127951155Y-88263364D02*
X127801155Y-88263364D01*
X128486870Y-88499078D02*
X128229727Y-88499078D01*
X128358298Y-88499078D02*
X128358298Y-88049078D01*
X128358298Y-88049078D02*
X128315441Y-88113364D01*
X128315441Y-88113364D02*
X128272584Y-88156221D01*
X128272584Y-88156221D02*
X128229727Y-88177650D01*
X106316870Y-44649078D02*
X106466870Y-45099078D01*
X106466870Y-45099078D02*
X106616870Y-44649078D01*
X106745441Y-44691935D02*
X106766869Y-44670507D01*
X106766869Y-44670507D02*
X106809727Y-44649078D01*
X106809727Y-44649078D02*
X106916869Y-44649078D01*
X106916869Y-44649078D02*
X106959727Y-44670507D01*
X106959727Y-44670507D02*
X106981155Y-44691935D01*
X106981155Y-44691935D02*
X107002584Y-44734792D01*
X107002584Y-44734792D02*
X107002584Y-44777650D01*
X107002584Y-44777650D02*
X106981155Y-44841935D01*
X106981155Y-44841935D02*
X106724012Y-45099078D01*
X106724012Y-45099078D02*
X107002584Y-45099078D01*
X85510921Y-69691155D02*
X85960921Y-69691155D01*
X85960921Y-69691155D02*
X85510921Y-69948298D01*
X85510921Y-69948298D02*
X85960921Y-69948298D01*
X85960921Y-70248299D02*
X85960921Y-70334013D01*
X85960921Y-70334013D02*
X85939492Y-70376870D01*
X85939492Y-70376870D02*
X85896635Y-70419727D01*
X85896635Y-70419727D02*
X85810921Y-70441156D01*
X85810921Y-70441156D02*
X85660921Y-70441156D01*
X85660921Y-70441156D02*
X85575207Y-70419727D01*
X85575207Y-70419727D02*
X85532350Y-70376870D01*
X85532350Y-70376870D02*
X85510921Y-70334013D01*
X85510921Y-70334013D02*
X85510921Y-70248299D01*
X85510921Y-70248299D02*
X85532350Y-70205442D01*
X85532350Y-70205442D02*
X85575207Y-70162584D01*
X85575207Y-70162584D02*
X85660921Y-70141156D01*
X85660921Y-70141156D02*
X85810921Y-70141156D01*
X85810921Y-70141156D02*
X85896635Y-70162584D01*
X85896635Y-70162584D02*
X85939492Y-70205442D01*
X85939492Y-70205442D02*
X85960921Y-70248299D01*
X85468064Y-70526871D02*
X85468064Y-70869728D01*
X85468064Y-70869728D02*
X85468064Y-71212585D01*
X85553778Y-71576870D02*
X85532350Y-71555442D01*
X85532350Y-71555442D02*
X85510921Y-71491156D01*
X85510921Y-71491156D02*
X85510921Y-71448299D01*
X85510921Y-71448299D02*
X85532350Y-71384013D01*
X85532350Y-71384013D02*
X85575207Y-71341156D01*
X85575207Y-71341156D02*
X85618064Y-71319727D01*
X85618064Y-71319727D02*
X85703778Y-71298299D01*
X85703778Y-71298299D02*
X85768064Y-71298299D01*
X85768064Y-71298299D02*
X85853778Y-71319727D01*
X85853778Y-71319727D02*
X85896635Y-71341156D01*
X85896635Y-71341156D02*
X85939492Y-71384013D01*
X85939492Y-71384013D02*
X85960921Y-71448299D01*
X85960921Y-71448299D02*
X85960921Y-71491156D01*
X85960921Y-71491156D02*
X85939492Y-71555442D01*
X85939492Y-71555442D02*
X85918064Y-71576870D01*
X85960921Y-71855442D02*
X85960921Y-71941156D01*
X85960921Y-71941156D02*
X85939492Y-71984013D01*
X85939492Y-71984013D02*
X85896635Y-72026870D01*
X85896635Y-72026870D02*
X85810921Y-72048299D01*
X85810921Y-72048299D02*
X85660921Y-72048299D01*
X85660921Y-72048299D02*
X85575207Y-72026870D01*
X85575207Y-72026870D02*
X85532350Y-71984013D01*
X85532350Y-71984013D02*
X85510921Y-71941156D01*
X85510921Y-71941156D02*
X85510921Y-71855442D01*
X85510921Y-71855442D02*
X85532350Y-71812585D01*
X85532350Y-71812585D02*
X85575207Y-71769727D01*
X85575207Y-71769727D02*
X85660921Y-71748299D01*
X85660921Y-71748299D02*
X85810921Y-71748299D01*
X85810921Y-71748299D02*
X85896635Y-71769727D01*
X85896635Y-71769727D02*
X85939492Y-71812585D01*
X85939492Y-71812585D02*
X85960921Y-71855442D01*
X85510921Y-72241156D02*
X85960921Y-72241156D01*
X85960921Y-72241156D02*
X85639492Y-72391156D01*
X85639492Y-72391156D02*
X85960921Y-72541156D01*
X85960921Y-72541156D02*
X85510921Y-72541156D01*
X85468064Y-72648300D02*
X85468064Y-72991157D01*
X85468064Y-72991157D02*
X85468064Y-73334014D01*
X85510921Y-73441156D02*
X85960921Y-73441156D01*
X85960921Y-73441156D02*
X85510921Y-73698299D01*
X85510921Y-73698299D02*
X85960921Y-73698299D01*
X85553778Y-74169728D02*
X85532350Y-74148300D01*
X85532350Y-74148300D02*
X85510921Y-74084014D01*
X85510921Y-74084014D02*
X85510921Y-74041157D01*
X85510921Y-74041157D02*
X85532350Y-73976871D01*
X85532350Y-73976871D02*
X85575207Y-73934014D01*
X85575207Y-73934014D02*
X85618064Y-73912585D01*
X85618064Y-73912585D02*
X85703778Y-73891157D01*
X85703778Y-73891157D02*
X85768064Y-73891157D01*
X85768064Y-73891157D02*
X85853778Y-73912585D01*
X85853778Y-73912585D02*
X85896635Y-73934014D01*
X85896635Y-73934014D02*
X85939492Y-73976871D01*
X85939492Y-73976871D02*
X85960921Y-74041157D01*
X85960921Y-74041157D02*
X85960921Y-74084014D01*
X85960921Y-74084014D02*
X85939492Y-74148300D01*
X85939492Y-74148300D02*
X85918064Y-74169728D01*
X118835441Y-39779078D02*
X118621155Y-39779078D01*
X118621155Y-39779078D02*
X118621155Y-39329078D01*
X119221156Y-39779078D02*
X118964013Y-39779078D01*
X119092584Y-39779078D02*
X119092584Y-39329078D01*
X119092584Y-39329078D02*
X119049727Y-39393364D01*
X119049727Y-39393364D02*
X119006870Y-39436221D01*
X119006870Y-39436221D02*
X118964013Y-39457650D01*
X152641155Y-80689078D02*
X152641155Y-80239078D01*
X152641155Y-80239078D02*
X152748298Y-80239078D01*
X152748298Y-80239078D02*
X152812584Y-80260507D01*
X152812584Y-80260507D02*
X152855441Y-80303364D01*
X152855441Y-80303364D02*
X152876870Y-80346221D01*
X152876870Y-80346221D02*
X152898298Y-80431935D01*
X152898298Y-80431935D02*
X152898298Y-80496221D01*
X152898298Y-80496221D02*
X152876870Y-80581935D01*
X152876870Y-80581935D02*
X152855441Y-80624792D01*
X152855441Y-80624792D02*
X152812584Y-80667650D01*
X152812584Y-80667650D02*
X152748298Y-80689078D01*
X152748298Y-80689078D02*
X152641155Y-80689078D01*
X153284013Y-80389078D02*
X153284013Y-80689078D01*
X153176870Y-80217650D02*
X153069727Y-80539078D01*
X153069727Y-80539078D02*
X153348298Y-80539078D01*
X153734012Y-80239078D02*
X153519726Y-80239078D01*
X153519726Y-80239078D02*
X153498298Y-80453364D01*
X153498298Y-80453364D02*
X153519726Y-80431935D01*
X153519726Y-80431935D02*
X153562584Y-80410507D01*
X153562584Y-80410507D02*
X153669726Y-80410507D01*
X153669726Y-80410507D02*
X153712584Y-80431935D01*
X153712584Y-80431935D02*
X153734012Y-80453364D01*
X153734012Y-80453364D02*
X153755441Y-80496221D01*
X153755441Y-80496221D02*
X153755441Y-80603364D01*
X153755441Y-80603364D02*
X153734012Y-80646221D01*
X153734012Y-80646221D02*
X153712584Y-80667650D01*
X153712584Y-80667650D02*
X153669726Y-80689078D01*
X153669726Y-80689078D02*
X153562584Y-80689078D01*
X153562584Y-80689078D02*
X153519726Y-80667650D01*
X153519726Y-80667650D02*
X153498298Y-80646221D01*
X115018298Y-82199078D02*
X114868298Y-81984792D01*
X114761155Y-82199078D02*
X114761155Y-81749078D01*
X114761155Y-81749078D02*
X114932584Y-81749078D01*
X114932584Y-81749078D02*
X114975441Y-81770507D01*
X114975441Y-81770507D02*
X114996870Y-81791935D01*
X114996870Y-81791935D02*
X115018298Y-81834792D01*
X115018298Y-81834792D02*
X115018298Y-81899078D01*
X115018298Y-81899078D02*
X114996870Y-81941935D01*
X114996870Y-81941935D02*
X114975441Y-81963364D01*
X114975441Y-81963364D02*
X114932584Y-81984792D01*
X114932584Y-81984792D02*
X114761155Y-81984792D01*
X115189727Y-81791935D02*
X115211155Y-81770507D01*
X115211155Y-81770507D02*
X115254013Y-81749078D01*
X115254013Y-81749078D02*
X115361155Y-81749078D01*
X115361155Y-81749078D02*
X115404013Y-81770507D01*
X115404013Y-81770507D02*
X115425441Y-81791935D01*
X115425441Y-81791935D02*
X115446870Y-81834792D01*
X115446870Y-81834792D02*
X115446870Y-81877650D01*
X115446870Y-81877650D02*
X115425441Y-81941935D01*
X115425441Y-81941935D02*
X115168298Y-82199078D01*
X115168298Y-82199078D02*
X115446870Y-82199078D01*
X115596869Y-81749078D02*
X115875441Y-81749078D01*
X115875441Y-81749078D02*
X115725441Y-81920507D01*
X115725441Y-81920507D02*
X115789726Y-81920507D01*
X115789726Y-81920507D02*
X115832584Y-81941935D01*
X115832584Y-81941935D02*
X115854012Y-81963364D01*
X115854012Y-81963364D02*
X115875441Y-82006221D01*
X115875441Y-82006221D02*
X115875441Y-82113364D01*
X115875441Y-82113364D02*
X115854012Y-82156221D01*
X115854012Y-82156221D02*
X115832584Y-82177650D01*
X115832584Y-82177650D02*
X115789726Y-82199078D01*
X115789726Y-82199078D02*
X115661155Y-82199078D01*
X115661155Y-82199078D02*
X115618298Y-82177650D01*
X115618298Y-82177650D02*
X115596869Y-82156221D01*
X156747650Y-66480272D02*
X156769078Y-66415987D01*
X156769078Y-66415987D02*
X156769078Y-66308844D01*
X156769078Y-66308844D02*
X156747650Y-66265987D01*
X156747650Y-66265987D02*
X156726221Y-66244558D01*
X156726221Y-66244558D02*
X156683364Y-66223129D01*
X156683364Y-66223129D02*
X156640507Y-66223129D01*
X156640507Y-66223129D02*
X156597650Y-66244558D01*
X156597650Y-66244558D02*
X156576221Y-66265987D01*
X156576221Y-66265987D02*
X156554792Y-66308844D01*
X156554792Y-66308844D02*
X156533364Y-66394558D01*
X156533364Y-66394558D02*
X156511935Y-66437415D01*
X156511935Y-66437415D02*
X156490507Y-66458844D01*
X156490507Y-66458844D02*
X156447650Y-66480272D01*
X156447650Y-66480272D02*
X156404792Y-66480272D01*
X156404792Y-66480272D02*
X156361935Y-66458844D01*
X156361935Y-66458844D02*
X156340507Y-66437415D01*
X156340507Y-66437415D02*
X156319078Y-66394558D01*
X156319078Y-66394558D02*
X156319078Y-66287415D01*
X156319078Y-66287415D02*
X156340507Y-66223129D01*
X156726221Y-65773130D02*
X156747650Y-65794558D01*
X156747650Y-65794558D02*
X156769078Y-65858844D01*
X156769078Y-65858844D02*
X156769078Y-65901701D01*
X156769078Y-65901701D02*
X156747650Y-65965987D01*
X156747650Y-65965987D02*
X156704792Y-66008844D01*
X156704792Y-66008844D02*
X156661935Y-66030273D01*
X156661935Y-66030273D02*
X156576221Y-66051701D01*
X156576221Y-66051701D02*
X156511935Y-66051701D01*
X156511935Y-66051701D02*
X156426221Y-66030273D01*
X156426221Y-66030273D02*
X156383364Y-66008844D01*
X156383364Y-66008844D02*
X156340507Y-65965987D01*
X156340507Y-65965987D02*
X156319078Y-65901701D01*
X156319078Y-65901701D02*
X156319078Y-65858844D01*
X156319078Y-65858844D02*
X156340507Y-65794558D01*
X156340507Y-65794558D02*
X156361935Y-65773130D01*
X156769078Y-65580273D02*
X156319078Y-65580273D01*
X156769078Y-65323130D02*
X156511935Y-65515987D01*
X156319078Y-65323130D02*
X156576221Y-65580273D01*
X128786870Y-59199078D02*
X128936870Y-59649078D01*
X128936870Y-59649078D02*
X129086870Y-59199078D01*
X129429727Y-59349078D02*
X129429727Y-59649078D01*
X129322584Y-59177650D02*
X129215441Y-59499078D01*
X129215441Y-59499078D02*
X129494012Y-59499078D01*
X156340507Y-76243129D02*
X156319078Y-76285987D01*
X156319078Y-76285987D02*
X156319078Y-76350272D01*
X156319078Y-76350272D02*
X156340507Y-76414558D01*
X156340507Y-76414558D02*
X156383364Y-76457415D01*
X156383364Y-76457415D02*
X156426221Y-76478844D01*
X156426221Y-76478844D02*
X156511935Y-76500272D01*
X156511935Y-76500272D02*
X156576221Y-76500272D01*
X156576221Y-76500272D02*
X156661935Y-76478844D01*
X156661935Y-76478844D02*
X156704792Y-76457415D01*
X156704792Y-76457415D02*
X156747650Y-76414558D01*
X156747650Y-76414558D02*
X156769078Y-76350272D01*
X156769078Y-76350272D02*
X156769078Y-76307415D01*
X156769078Y-76307415D02*
X156747650Y-76243129D01*
X156747650Y-76243129D02*
X156726221Y-76221701D01*
X156726221Y-76221701D02*
X156576221Y-76221701D01*
X156576221Y-76221701D02*
X156576221Y-76307415D01*
X156769078Y-76028844D02*
X156319078Y-76028844D01*
X156319078Y-76028844D02*
X156769078Y-75771701D01*
X156769078Y-75771701D02*
X156319078Y-75771701D01*
X156769078Y-75557415D02*
X156319078Y-75557415D01*
X156319078Y-75557415D02*
X156319078Y-75450272D01*
X156319078Y-75450272D02*
X156340507Y-75385986D01*
X156340507Y-75385986D02*
X156383364Y-75343129D01*
X156383364Y-75343129D02*
X156426221Y-75321700D01*
X156426221Y-75321700D02*
X156511935Y-75300272D01*
X156511935Y-75300272D02*
X156576221Y-75300272D01*
X156576221Y-75300272D02*
X156661935Y-75321700D01*
X156661935Y-75321700D02*
X156704792Y-75343129D01*
X156704792Y-75343129D02*
X156747650Y-75385986D01*
X156747650Y-75385986D02*
X156769078Y-75450272D01*
X156769078Y-75450272D02*
X156769078Y-75557415D01*
X156769078Y-72331701D02*
X156554792Y-72481701D01*
X156769078Y-72588844D02*
X156319078Y-72588844D01*
X156319078Y-72588844D02*
X156319078Y-72417415D01*
X156319078Y-72417415D02*
X156340507Y-72374558D01*
X156340507Y-72374558D02*
X156361935Y-72353129D01*
X156361935Y-72353129D02*
X156404792Y-72331701D01*
X156404792Y-72331701D02*
X156469078Y-72331701D01*
X156469078Y-72331701D02*
X156511935Y-72353129D01*
X156511935Y-72353129D02*
X156533364Y-72374558D01*
X156533364Y-72374558D02*
X156554792Y-72417415D01*
X156554792Y-72417415D02*
X156554792Y-72588844D01*
X156533364Y-72138844D02*
X156533364Y-71988844D01*
X156769078Y-71924558D02*
X156769078Y-72138844D01*
X156769078Y-72138844D02*
X156319078Y-72138844D01*
X156319078Y-72138844D02*
X156319078Y-71924558D01*
X156747650Y-71753129D02*
X156769078Y-71688844D01*
X156769078Y-71688844D02*
X156769078Y-71581701D01*
X156769078Y-71581701D02*
X156747650Y-71538844D01*
X156747650Y-71538844D02*
X156726221Y-71517415D01*
X156726221Y-71517415D02*
X156683364Y-71495986D01*
X156683364Y-71495986D02*
X156640507Y-71495986D01*
X156640507Y-71495986D02*
X156597650Y-71517415D01*
X156597650Y-71517415D02*
X156576221Y-71538844D01*
X156576221Y-71538844D02*
X156554792Y-71581701D01*
X156554792Y-71581701D02*
X156533364Y-71667415D01*
X156533364Y-71667415D02*
X156511935Y-71710272D01*
X156511935Y-71710272D02*
X156490507Y-71731701D01*
X156490507Y-71731701D02*
X156447650Y-71753129D01*
X156447650Y-71753129D02*
X156404792Y-71753129D01*
X156404792Y-71753129D02*
X156361935Y-71731701D01*
X156361935Y-71731701D02*
X156340507Y-71710272D01*
X156340507Y-71710272D02*
X156319078Y-71667415D01*
X156319078Y-71667415D02*
X156319078Y-71560272D01*
X156319078Y-71560272D02*
X156340507Y-71495986D01*
X156319078Y-71367415D02*
X156319078Y-71110273D01*
X156769078Y-71238844D02*
X156319078Y-71238844D01*
X103409078Y-40963844D02*
X103409078Y-40878130D01*
X103409078Y-40878130D02*
X103430507Y-40835273D01*
X103430507Y-40835273D02*
X103473364Y-40792416D01*
X103473364Y-40792416D02*
X103559078Y-40770987D01*
X103559078Y-40770987D02*
X103709078Y-40770987D01*
X103709078Y-40770987D02*
X103794792Y-40792416D01*
X103794792Y-40792416D02*
X103837650Y-40835273D01*
X103837650Y-40835273D02*
X103859078Y-40878130D01*
X103859078Y-40878130D02*
X103859078Y-40963844D01*
X103859078Y-40963844D02*
X103837650Y-41006702D01*
X103837650Y-41006702D02*
X103794792Y-41049559D01*
X103794792Y-41049559D02*
X103709078Y-41070987D01*
X103709078Y-41070987D02*
X103559078Y-41070987D01*
X103559078Y-41070987D02*
X103473364Y-41049559D01*
X103473364Y-41049559D02*
X103430507Y-41006702D01*
X103430507Y-41006702D02*
X103409078Y-40963844D01*
X103623364Y-40428130D02*
X103623364Y-40578130D01*
X103859078Y-40578130D02*
X103409078Y-40578130D01*
X103409078Y-40578130D02*
X103409078Y-40363844D01*
X103623364Y-40042416D02*
X103623364Y-40192416D01*
X103859078Y-40192416D02*
X103409078Y-40192416D01*
X103409078Y-40192416D02*
X103409078Y-39978130D01*
X103687650Y-39806702D02*
X103687650Y-39463845D01*
X116879078Y-40813845D02*
X116879078Y-40728131D01*
X116879078Y-40728131D02*
X116900507Y-40685274D01*
X116900507Y-40685274D02*
X116943364Y-40642417D01*
X116943364Y-40642417D02*
X117029078Y-40620988D01*
X117029078Y-40620988D02*
X117179078Y-40620988D01*
X117179078Y-40620988D02*
X117264792Y-40642417D01*
X117264792Y-40642417D02*
X117307650Y-40685274D01*
X117307650Y-40685274D02*
X117329078Y-40728131D01*
X117329078Y-40728131D02*
X117329078Y-40813845D01*
X117329078Y-40813845D02*
X117307650Y-40856703D01*
X117307650Y-40856703D02*
X117264792Y-40899560D01*
X117264792Y-40899560D02*
X117179078Y-40920988D01*
X117179078Y-40920988D02*
X117029078Y-40920988D01*
X117029078Y-40920988D02*
X116943364Y-40899560D01*
X116943364Y-40899560D02*
X116900507Y-40856703D01*
X116900507Y-40856703D02*
X116879078Y-40813845D01*
X117329078Y-40428131D02*
X116879078Y-40428131D01*
X116879078Y-40428131D02*
X117329078Y-40170988D01*
X117329078Y-40170988D02*
X116879078Y-40170988D01*
X117157650Y-39956702D02*
X117157650Y-39613845D01*
X156769078Y-68708844D02*
X156319078Y-68708844D01*
X156319078Y-68708844D02*
X156640507Y-68558844D01*
X156640507Y-68558844D02*
X156319078Y-68408844D01*
X156319078Y-68408844D02*
X156769078Y-68408844D01*
X156319078Y-68108843D02*
X156319078Y-68023129D01*
X156319078Y-68023129D02*
X156340507Y-67980272D01*
X156340507Y-67980272D02*
X156383364Y-67937415D01*
X156383364Y-67937415D02*
X156469078Y-67915986D01*
X156469078Y-67915986D02*
X156619078Y-67915986D01*
X156619078Y-67915986D02*
X156704792Y-67937415D01*
X156704792Y-67937415D02*
X156747650Y-67980272D01*
X156747650Y-67980272D02*
X156769078Y-68023129D01*
X156769078Y-68023129D02*
X156769078Y-68108843D01*
X156769078Y-68108843D02*
X156747650Y-68151701D01*
X156747650Y-68151701D02*
X156704792Y-68194558D01*
X156704792Y-68194558D02*
X156619078Y-68215986D01*
X156619078Y-68215986D02*
X156469078Y-68215986D01*
X156469078Y-68215986D02*
X156383364Y-68194558D01*
X156383364Y-68194558D02*
X156340507Y-68151701D01*
X156340507Y-68151701D02*
X156319078Y-68108843D01*
X156747650Y-67744557D02*
X156769078Y-67680272D01*
X156769078Y-67680272D02*
X156769078Y-67573129D01*
X156769078Y-67573129D02*
X156747650Y-67530272D01*
X156747650Y-67530272D02*
X156726221Y-67508843D01*
X156726221Y-67508843D02*
X156683364Y-67487414D01*
X156683364Y-67487414D02*
X156640507Y-67487414D01*
X156640507Y-67487414D02*
X156597650Y-67508843D01*
X156597650Y-67508843D02*
X156576221Y-67530272D01*
X156576221Y-67530272D02*
X156554792Y-67573129D01*
X156554792Y-67573129D02*
X156533364Y-67658843D01*
X156533364Y-67658843D02*
X156511935Y-67701700D01*
X156511935Y-67701700D02*
X156490507Y-67723129D01*
X156490507Y-67723129D02*
X156447650Y-67744557D01*
X156447650Y-67744557D02*
X156404792Y-67744557D01*
X156404792Y-67744557D02*
X156361935Y-67723129D01*
X156361935Y-67723129D02*
X156340507Y-67701700D01*
X156340507Y-67701700D02*
X156319078Y-67658843D01*
X156319078Y-67658843D02*
X156319078Y-67551700D01*
X156319078Y-67551700D02*
X156340507Y-67487414D01*
X156769078Y-67294558D02*
X156319078Y-67294558D01*
X135788298Y-69129078D02*
X135638298Y-68914792D01*
X135531155Y-69129078D02*
X135531155Y-68679078D01*
X135531155Y-68679078D02*
X135702584Y-68679078D01*
X135702584Y-68679078D02*
X135745441Y-68700507D01*
X135745441Y-68700507D02*
X135766870Y-68721935D01*
X135766870Y-68721935D02*
X135788298Y-68764792D01*
X135788298Y-68764792D02*
X135788298Y-68829078D01*
X135788298Y-68829078D02*
X135766870Y-68871935D01*
X135766870Y-68871935D02*
X135745441Y-68893364D01*
X135745441Y-68893364D02*
X135702584Y-68914792D01*
X135702584Y-68914792D02*
X135531155Y-68914792D01*
X135959727Y-68721935D02*
X135981155Y-68700507D01*
X135981155Y-68700507D02*
X136024013Y-68679078D01*
X136024013Y-68679078D02*
X136131155Y-68679078D01*
X136131155Y-68679078D02*
X136174013Y-68700507D01*
X136174013Y-68700507D02*
X136195441Y-68721935D01*
X136195441Y-68721935D02*
X136216870Y-68764792D01*
X136216870Y-68764792D02*
X136216870Y-68807650D01*
X136216870Y-68807650D02*
X136195441Y-68871935D01*
X136195441Y-68871935D02*
X135938298Y-69129078D01*
X135938298Y-69129078D02*
X136216870Y-69129078D01*
X136495441Y-68679078D02*
X136538298Y-68679078D01*
X136538298Y-68679078D02*
X136581155Y-68700507D01*
X136581155Y-68700507D02*
X136602584Y-68721935D01*
X136602584Y-68721935D02*
X136624012Y-68764792D01*
X136624012Y-68764792D02*
X136645441Y-68850507D01*
X136645441Y-68850507D02*
X136645441Y-68957650D01*
X136645441Y-68957650D02*
X136624012Y-69043364D01*
X136624012Y-69043364D02*
X136602584Y-69086221D01*
X136602584Y-69086221D02*
X136581155Y-69107650D01*
X136581155Y-69107650D02*
X136538298Y-69129078D01*
X136538298Y-69129078D02*
X136495441Y-69129078D01*
X136495441Y-69129078D02*
X136452584Y-69107650D01*
X136452584Y-69107650D02*
X136431155Y-69086221D01*
X136431155Y-69086221D02*
X136409726Y-69043364D01*
X136409726Y-69043364D02*
X136388298Y-68957650D01*
X136388298Y-68957650D02*
X136388298Y-68850507D01*
X136388298Y-68850507D02*
X136409726Y-68764792D01*
X136409726Y-68764792D02*
X136431155Y-68721935D01*
X136431155Y-68721935D02*
X136452584Y-68700507D01*
X136452584Y-68700507D02*
X136495441Y-68679078D01*
X102768298Y-60119078D02*
X102618298Y-59904792D01*
X102511155Y-60119078D02*
X102511155Y-59669078D01*
X102511155Y-59669078D02*
X102682584Y-59669078D01*
X102682584Y-59669078D02*
X102725441Y-59690507D01*
X102725441Y-59690507D02*
X102746870Y-59711935D01*
X102746870Y-59711935D02*
X102768298Y-59754792D01*
X102768298Y-59754792D02*
X102768298Y-59819078D01*
X102768298Y-59819078D02*
X102746870Y-59861935D01*
X102746870Y-59861935D02*
X102725441Y-59883364D01*
X102725441Y-59883364D02*
X102682584Y-59904792D01*
X102682584Y-59904792D02*
X102511155Y-59904792D01*
X103196870Y-60119078D02*
X102939727Y-60119078D01*
X103068298Y-60119078D02*
X103068298Y-59669078D01*
X103068298Y-59669078D02*
X103025441Y-59733364D01*
X103025441Y-59733364D02*
X102982584Y-59776221D01*
X102982584Y-59776221D02*
X102939727Y-59797650D01*
X103346869Y-59669078D02*
X103625441Y-59669078D01*
X103625441Y-59669078D02*
X103475441Y-59840507D01*
X103475441Y-59840507D02*
X103539726Y-59840507D01*
X103539726Y-59840507D02*
X103582584Y-59861935D01*
X103582584Y-59861935D02*
X103604012Y-59883364D01*
X103604012Y-59883364D02*
X103625441Y-59926221D01*
X103625441Y-59926221D02*
X103625441Y-60033364D01*
X103625441Y-60033364D02*
X103604012Y-60076221D01*
X103604012Y-60076221D02*
X103582584Y-60097650D01*
X103582584Y-60097650D02*
X103539726Y-60119078D01*
X103539726Y-60119078D02*
X103411155Y-60119078D01*
X103411155Y-60119078D02*
X103368298Y-60097650D01*
X103368298Y-60097650D02*
X103346869Y-60076221D01*
X124709078Y-40971701D02*
X124494792Y-41121701D01*
X124709078Y-41228844D02*
X124259078Y-41228844D01*
X124259078Y-41228844D02*
X124259078Y-41057415D01*
X124259078Y-41057415D02*
X124280507Y-41014558D01*
X124280507Y-41014558D02*
X124301935Y-40993129D01*
X124301935Y-40993129D02*
X124344792Y-40971701D01*
X124344792Y-40971701D02*
X124409078Y-40971701D01*
X124409078Y-40971701D02*
X124451935Y-40993129D01*
X124451935Y-40993129D02*
X124473364Y-41014558D01*
X124473364Y-41014558D02*
X124494792Y-41057415D01*
X124494792Y-41057415D02*
X124494792Y-41228844D01*
X124709078Y-40543129D02*
X124709078Y-40800272D01*
X124709078Y-40671701D02*
X124259078Y-40671701D01*
X124259078Y-40671701D02*
X124323364Y-40714558D01*
X124323364Y-40714558D02*
X124366221Y-40757415D01*
X124366221Y-40757415D02*
X124387650Y-40800272D01*
X124451935Y-40285987D02*
X124430507Y-40328844D01*
X124430507Y-40328844D02*
X124409078Y-40350273D01*
X124409078Y-40350273D02*
X124366221Y-40371701D01*
X124366221Y-40371701D02*
X124344792Y-40371701D01*
X124344792Y-40371701D02*
X124301935Y-40350273D01*
X124301935Y-40350273D02*
X124280507Y-40328844D01*
X124280507Y-40328844D02*
X124259078Y-40285987D01*
X124259078Y-40285987D02*
X124259078Y-40200273D01*
X124259078Y-40200273D02*
X124280507Y-40157416D01*
X124280507Y-40157416D02*
X124301935Y-40135987D01*
X124301935Y-40135987D02*
X124344792Y-40114558D01*
X124344792Y-40114558D02*
X124366221Y-40114558D01*
X124366221Y-40114558D02*
X124409078Y-40135987D01*
X124409078Y-40135987D02*
X124430507Y-40157416D01*
X124430507Y-40157416D02*
X124451935Y-40200273D01*
X124451935Y-40200273D02*
X124451935Y-40285987D01*
X124451935Y-40285987D02*
X124473364Y-40328844D01*
X124473364Y-40328844D02*
X124494792Y-40350273D01*
X124494792Y-40350273D02*
X124537650Y-40371701D01*
X124537650Y-40371701D02*
X124623364Y-40371701D01*
X124623364Y-40371701D02*
X124666221Y-40350273D01*
X124666221Y-40350273D02*
X124687650Y-40328844D01*
X124687650Y-40328844D02*
X124709078Y-40285987D01*
X124709078Y-40285987D02*
X124709078Y-40200273D01*
X124709078Y-40200273D02*
X124687650Y-40157416D01*
X124687650Y-40157416D02*
X124666221Y-40135987D01*
X124666221Y-40135987D02*
X124623364Y-40114558D01*
X124623364Y-40114558D02*
X124537650Y-40114558D01*
X124537650Y-40114558D02*
X124494792Y-40135987D01*
X124494792Y-40135987D02*
X124473364Y-40157416D01*
X124473364Y-40157416D02*
X124451935Y-40200273D01*
X164731155Y-53389078D02*
X164731155Y-52939078D01*
X165031156Y-52939078D02*
X165116870Y-52939078D01*
X165116870Y-52939078D02*
X165159727Y-52960507D01*
X165159727Y-52960507D02*
X165202584Y-53003364D01*
X165202584Y-53003364D02*
X165224013Y-53089078D01*
X165224013Y-53089078D02*
X165224013Y-53239078D01*
X165224013Y-53239078D02*
X165202584Y-53324792D01*
X165202584Y-53324792D02*
X165159727Y-53367650D01*
X165159727Y-53367650D02*
X165116870Y-53389078D01*
X165116870Y-53389078D02*
X165031156Y-53389078D01*
X165031156Y-53389078D02*
X164988299Y-53367650D01*
X164988299Y-53367650D02*
X164945441Y-53324792D01*
X164945441Y-53324792D02*
X164924013Y-53239078D01*
X164924013Y-53239078D02*
X164924013Y-53089078D01*
X164924013Y-53089078D02*
X164945441Y-53003364D01*
X164945441Y-53003364D02*
X164988299Y-52960507D01*
X164988299Y-52960507D02*
X165031156Y-52939078D01*
X165309728Y-53431935D02*
X165652585Y-53431935D01*
X165845442Y-52939078D02*
X165888299Y-52939078D01*
X165888299Y-52939078D02*
X165931156Y-52960507D01*
X165931156Y-52960507D02*
X165952585Y-52981935D01*
X165952585Y-52981935D02*
X165974013Y-53024792D01*
X165974013Y-53024792D02*
X165995442Y-53110507D01*
X165995442Y-53110507D02*
X165995442Y-53217650D01*
X165995442Y-53217650D02*
X165974013Y-53303364D01*
X165974013Y-53303364D02*
X165952585Y-53346221D01*
X165952585Y-53346221D02*
X165931156Y-53367650D01*
X165931156Y-53367650D02*
X165888299Y-53389078D01*
X165888299Y-53389078D02*
X165845442Y-53389078D01*
X165845442Y-53389078D02*
X165802585Y-53367650D01*
X165802585Y-53367650D02*
X165781156Y-53346221D01*
X165781156Y-53346221D02*
X165759727Y-53303364D01*
X165759727Y-53303364D02*
X165738299Y-53217650D01*
X165738299Y-53217650D02*
X165738299Y-53110507D01*
X165738299Y-53110507D02*
X165759727Y-53024792D01*
X165759727Y-53024792D02*
X165781156Y-52981935D01*
X165781156Y-52981935D02*
X165802585Y-52960507D01*
X165802585Y-52960507D02*
X165845442Y-52939078D01*
X156319078Y-78701701D02*
X156319078Y-78423129D01*
X156319078Y-78423129D02*
X156490507Y-78573129D01*
X156490507Y-78573129D02*
X156490507Y-78508844D01*
X156490507Y-78508844D02*
X156511935Y-78465987D01*
X156511935Y-78465987D02*
X156533364Y-78444558D01*
X156533364Y-78444558D02*
X156576221Y-78423129D01*
X156576221Y-78423129D02*
X156683364Y-78423129D01*
X156683364Y-78423129D02*
X156726221Y-78444558D01*
X156726221Y-78444558D02*
X156747650Y-78465987D01*
X156747650Y-78465987D02*
X156769078Y-78508844D01*
X156769078Y-78508844D02*
X156769078Y-78637415D01*
X156769078Y-78637415D02*
X156747650Y-78680272D01*
X156747650Y-78680272D02*
X156726221Y-78701701D01*
X156726221Y-78230273D02*
X156747650Y-78208844D01*
X156747650Y-78208844D02*
X156769078Y-78230273D01*
X156769078Y-78230273D02*
X156747650Y-78251701D01*
X156747650Y-78251701D02*
X156726221Y-78230273D01*
X156726221Y-78230273D02*
X156769078Y-78230273D01*
X156319078Y-78058844D02*
X156319078Y-77780272D01*
X156319078Y-77780272D02*
X156490507Y-77930272D01*
X156490507Y-77930272D02*
X156490507Y-77865987D01*
X156490507Y-77865987D02*
X156511935Y-77823130D01*
X156511935Y-77823130D02*
X156533364Y-77801701D01*
X156533364Y-77801701D02*
X156576221Y-77780272D01*
X156576221Y-77780272D02*
X156683364Y-77780272D01*
X156683364Y-77780272D02*
X156726221Y-77801701D01*
X156726221Y-77801701D02*
X156747650Y-77823130D01*
X156747650Y-77823130D02*
X156769078Y-77865987D01*
X156769078Y-77865987D02*
X156769078Y-77994558D01*
X156769078Y-77994558D02*
X156747650Y-78037415D01*
X156747650Y-78037415D02*
X156726221Y-78058844D01*
X156319078Y-77651701D02*
X156769078Y-77501701D01*
X156769078Y-77501701D02*
X156319078Y-77351701D01*
D13*
X135444077Y-78521929D02*
X135444077Y-77758069D01*
X135826007Y-78139999D02*
X135062146Y-78139999D01*
X129093574Y-78525289D02*
X129093574Y-77760889D01*
D14*
%TO.C,Boot5*%
X107196000Y-81890000D02*
X107196000Y-81940000D01*
X107196000Y-81890000D02*
X112096000Y-81890000D01*
X107196000Y-83590000D02*
X107196000Y-85090000D01*
X107196000Y-86790000D02*
X107196000Y-86740000D01*
X107196000Y-86790000D02*
X112096000Y-86790000D01*
X112096000Y-81890000D02*
X112096000Y-81940000D01*
X112096000Y-83590000D02*
X112096000Y-85090000D01*
X112096000Y-86790000D02*
X112096000Y-86740000D01*
D15*
%TO.C,U5*%
X99140000Y-59070000D02*
X99140000Y-57070000D01*
X101600000Y-59070000D02*
X101600000Y-57070000D01*
D16*
X99570000Y-59970000D02*
G75*
G02*
X99370000Y-59970000I-100000J0D01*
G01*
X99370000Y-59970000D02*
G75*
G02*
X99570000Y-59970000I100000J0D01*
G01*
D14*
%TO.C,R14*%
X89357064Y-54125000D02*
X88902936Y-54125000D01*
X89357064Y-55595000D02*
X88902936Y-55595000D01*
%TO.C,L1*%
X113200000Y-53692064D02*
X113200000Y-52487936D01*
X115920000Y-53692064D02*
X115920000Y-52487936D01*
%TO.C,J4*%
X162710000Y-66540000D02*
X163820000Y-66540000D01*
X162710000Y-67650000D02*
X162710000Y-66540000D01*
X162710000Y-68650000D02*
X162710000Y-74760000D01*
X162710000Y-68650000D02*
X164930000Y-68650000D01*
X162710000Y-74760000D02*
X164930000Y-74760000D01*
X164930000Y-68650000D02*
X164930000Y-74760000D01*
D15*
%TO.C,U7*%
X138257900Y-61988750D02*
X138937900Y-61988750D01*
X138257900Y-78051250D02*
X138257900Y-61988750D01*
X138257900Y-78051250D02*
X138937900Y-78051250D01*
X154712900Y-61988750D02*
X155257900Y-61988750D01*
X155257900Y-61988750D02*
X155257900Y-78051250D01*
X155257900Y-78051250D02*
X154577900Y-78051250D01*
D16*
X153857900Y-60951000D02*
G75*
G02*
X153657900Y-60951000I-100000J0D01*
G01*
X153657900Y-60951000D02*
G75*
G02*
X153857900Y-60951000I100000J0D01*
G01*
D14*
%TO.C,R27*%
X125265000Y-41562936D02*
X125265000Y-42017064D01*
X126735000Y-41562936D02*
X126735000Y-42017064D01*
%TO.C,R34*%
X114537064Y-58965000D02*
X114082936Y-58965000D01*
X114537064Y-60435000D02*
X114082936Y-60435000D01*
%TO.C,C5*%
X100418748Y-60785000D02*
X100941252Y-60785000D01*
X100418748Y-62255000D02*
X100941252Y-62255000D01*
%TO.C,C8*%
X114078748Y-56875000D02*
X114601252Y-56875000D01*
X114078748Y-58345000D02*
X114601252Y-58345000D01*
%TO.C,R18*%
X91785000Y-65117064D02*
X91785000Y-64662936D01*
X93255000Y-65117064D02*
X93255000Y-64662936D01*
%TO.C,R9*%
X124422936Y-78145000D02*
X124877064Y-78145000D01*
X124422936Y-79615000D02*
X124877064Y-79615000D01*
%TO.C,C1*%
X87615000Y-51238748D02*
X87615000Y-51761252D01*
X89085000Y-51238748D02*
X89085000Y-51761252D01*
%TO.C,R22*%
X135215000Y-71487064D02*
X135215000Y-71032936D01*
X136685000Y-71487064D02*
X136685000Y-71032936D01*
%TO.C,R15*%
X101685000Y-51152936D02*
X101685000Y-51607064D01*
X103155000Y-51152936D02*
X103155000Y-51607064D01*
%TO.C,R11*%
X100992936Y-53585000D02*
X101447064Y-53585000D01*
X100992936Y-55055000D02*
X101447064Y-55055000D01*
%TO.C,U3*%
X94512500Y-54760000D02*
X94562500Y-54760000D01*
X94512500Y-56580000D02*
X94512500Y-54760000D01*
X94562500Y-56580000D02*
X94512500Y-56580000D01*
X97582500Y-54760000D02*
X97632500Y-54760000D01*
X97632500Y-54760000D02*
X97632500Y-56580000D01*
X97632500Y-56580000D02*
X97582500Y-56580000D01*
X97912500Y-54460000D02*
X97582500Y-54220000D01*
X97912500Y-53980000D01*
X97912500Y-54460000D01*
G36*
X97912500Y-54460000D02*
G01*
X97582500Y-54220000D01*
X97912500Y-53980000D01*
X97912500Y-54460000D01*
G37*
%TO.C,U2*%
X124330000Y-69180000D02*
X124330000Y-74480000D01*
X124330000Y-74480000D02*
X129530000Y-74480000D01*
X129530000Y-69180000D02*
X124330000Y-69180000D01*
X129530000Y-70830000D02*
X129530000Y-69180000D01*
X129530000Y-74480000D02*
X129530000Y-72830000D01*
X129590000Y-66690000D02*
X124270000Y-66690000D01*
X124270000Y-76970000D01*
X129590000Y-76970000D01*
X129590000Y-66690000D01*
X129530000Y-72830000D02*
G75*
G02*
X129530000Y-70830000I0J1000000D01*
G01*
%TO.C,J6*%
X158635000Y-46420000D02*
X160015000Y-46420000D01*
X158635000Y-47800000D02*
X158635000Y-46420000D01*
X158635000Y-49070000D02*
X158635000Y-54260000D01*
X158635000Y-49070000D02*
X161285000Y-49070000D01*
X158635000Y-54260000D02*
X163935000Y-54260000D01*
X161285000Y-46420000D02*
X163935000Y-46420000D01*
X161285000Y-49070000D02*
X161285000Y-46420000D01*
X163935000Y-46420000D02*
X163935000Y-54260000D01*
%TO.C,R17*%
X91785000Y-60877064D02*
X91785000Y-60422936D01*
X93255000Y-60877064D02*
X93255000Y-60422936D01*
%TO.C,D4*%
X117990000Y-40160000D02*
X117990000Y-43020000D01*
X119910000Y-40160000D02*
X117990000Y-40160000D01*
X119910000Y-43020000D02*
X119910000Y-40160000D01*
%TO.C,J3*%
X87440000Y-61890000D02*
X87440000Y-64490000D01*
X87440000Y-61890000D02*
X90100000Y-61890000D01*
X87440000Y-64490000D02*
X90100000Y-64490000D01*
X88770000Y-59290000D02*
X90100000Y-59290000D01*
X90100000Y-59290000D02*
X90100000Y-60620000D01*
X90100000Y-61890000D02*
X90100000Y-64490000D01*
%TO.C,Q2*%
X90230000Y-50740000D02*
X91230000Y-50740000D01*
X90230000Y-52260000D02*
X90230000Y-50740000D01*
X90280000Y-52260000D02*
X90230000Y-52260000D01*
X92180000Y-52260000D02*
X91400000Y-52260000D01*
X92350000Y-50740000D02*
X93350000Y-50740000D01*
X93350000Y-50740000D02*
X93350000Y-52260000D01*
X93350000Y-52260000D02*
X93300000Y-52260000D01*
X91740000Y-53040000D02*
X91410000Y-52800000D01*
X91740000Y-52560000D01*
X91740000Y-53040000D01*
G36*
X91740000Y-53040000D02*
G01*
X91410000Y-52800000D01*
X91740000Y-52560000D01*
X91740000Y-53040000D01*
G37*
D17*
%TO.C,U6*%
X109825300Y-54191900D02*
X111374700Y-54191900D01*
X111374700Y-51728100D02*
X109825300Y-51728100D01*
X112408100Y-53710000D02*
G75*
G02*
X112204900Y-53710000I-101600J0D01*
G01*
X112204900Y-53710000D02*
G75*
G02*
X112408100Y-53710000I101600J0D01*
G01*
D14*
%TO.C,R12*%
X104992936Y-60785000D02*
X105447064Y-60785000D01*
X104992936Y-62255000D02*
X105447064Y-62255000D01*
%TO.C,K1*%
X95810000Y-63455000D02*
X95810000Y-80155000D01*
X95810000Y-80155000D02*
X118510000Y-80155000D01*
X113060000Y-71455000D02*
X113060000Y-72155000D01*
X113060000Y-72155000D02*
X114260000Y-72155000D01*
X113460000Y-71455000D02*
X113860000Y-72155000D01*
X113660000Y-67305000D02*
X113660000Y-70455000D01*
X113660000Y-73155000D02*
X113660000Y-76305000D01*
X114260000Y-71455000D02*
X113060000Y-71455000D01*
X114260000Y-72155000D02*
X114260000Y-71455000D01*
X118510000Y-63455000D02*
X95810000Y-63455000D01*
X118510000Y-80155000D02*
X118510000Y-63455000D01*
X118770000Y-70805000D02*
X118770000Y-72805000D01*
D15*
%TO.C,S1*%
X106240000Y-39830000D02*
X106240000Y-40460000D01*
X106240000Y-43500000D02*
X106240000Y-44130000D01*
X106240000Y-44130000D02*
X114840000Y-44130000D01*
X114840000Y-39830000D02*
X106240000Y-39830000D01*
X114840000Y-39830000D02*
X114840000Y-40460000D01*
X114840000Y-44130000D02*
X114840000Y-43500000D01*
D16*
X112640000Y-44780000D02*
G75*
G02*
X112440000Y-44780000I-100000J0D01*
G01*
X112440000Y-44780000D02*
G75*
G02*
X112640000Y-44780000I100000J0D01*
G01*
D14*
%TO.C,Q3*%
X124200000Y-62710000D02*
X125720000Y-62710000D01*
X124200000Y-63710000D02*
X124200000Y-62710000D01*
X124200000Y-65830000D02*
X124200000Y-64830000D01*
X125720000Y-62710000D02*
X125720000Y-62760000D01*
X125720000Y-63880000D02*
X125720000Y-64660000D01*
X125720000Y-65780000D02*
X125720000Y-65830000D01*
X125720000Y-65830000D02*
X124200000Y-65830000D01*
X126260000Y-64650000D02*
X126020000Y-64320000D01*
X126500000Y-64320000D01*
X126260000Y-64650000D01*
G36*
X126260000Y-64650000D02*
G01*
X126020000Y-64320000D01*
X126500000Y-64320000D01*
X126260000Y-64650000D01*
G37*
%TO.C,R2*%
X88745000Y-45442936D02*
X88745000Y-45897064D01*
X90215000Y-45442936D02*
X90215000Y-45897064D01*
%TO.C,D3*%
X120440000Y-69090000D02*
X120570000Y-69090000D01*
X120440000Y-73510000D02*
X123380000Y-73510000D01*
X120440000Y-73630000D02*
X123380000Y-73630000D01*
X120440000Y-73750000D02*
X123380000Y-73750000D01*
X120440000Y-74530000D02*
X120440000Y-69090000D01*
X120570000Y-74530000D02*
X120440000Y-74530000D01*
X123250000Y-74530000D02*
X123380000Y-74530000D01*
X123380000Y-69090000D02*
X123250000Y-69090000D01*
X123380000Y-74530000D02*
X123380000Y-69090000D01*
%TO.C,C10*%
X119861252Y-56875000D02*
X119338748Y-56875000D01*
X119861252Y-58345000D02*
X119338748Y-58345000D01*
%TO.C,Boot3*%
X128830000Y-46500000D02*
X128830000Y-46550000D01*
X128830000Y-46500000D02*
X133730000Y-46500000D01*
X128830000Y-48200000D02*
X128830000Y-49700000D01*
X128830000Y-51400000D02*
X128830000Y-51350000D01*
X128830000Y-51400000D02*
X133730000Y-51400000D01*
X133730000Y-46500000D02*
X133730000Y-46550000D01*
X133730000Y-48200000D02*
X133730000Y-49700000D01*
X133730000Y-51400000D02*
X133730000Y-51350000D01*
%TO.C,R10*%
X131862936Y-67275000D02*
X132317064Y-67275000D01*
X131862936Y-68745000D02*
X132317064Y-68745000D01*
%TO.C,Boot4*%
X118360000Y-81890000D02*
X118360000Y-81940000D01*
X118360000Y-81890000D02*
X123260000Y-81890000D01*
X118360000Y-83590000D02*
X118360000Y-85090000D01*
X118360000Y-86790000D02*
X118360000Y-86740000D01*
X118360000Y-86790000D02*
X123260000Y-86790000D01*
X123260000Y-81890000D02*
X123260000Y-81940000D01*
X123260000Y-83590000D02*
X123260000Y-85090000D01*
X123260000Y-86790000D02*
X123260000Y-86740000D01*
%TO.C,C7*%
X106631252Y-57415000D02*
X106108748Y-57415000D01*
X106631252Y-58885000D02*
X106108748Y-58885000D01*
%TO.C,D1*%
X120560000Y-40160000D02*
X120560000Y-43020000D01*
X122480000Y-40160000D02*
X120560000Y-40160000D01*
X122480000Y-43020000D02*
X122480000Y-40160000D01*
%TO.C,R16*%
X99565000Y-51142936D02*
X99565000Y-51597064D01*
X101035000Y-51142936D02*
X101035000Y-51597064D01*
%TO.C,R21*%
X106555000Y-52507064D02*
X106555000Y-52052936D01*
X108025000Y-52507064D02*
X108025000Y-52052936D01*
%TO.C,Boot2*%
X128830000Y-39862500D02*
X128830000Y-39912500D01*
X128830000Y-39862500D02*
X133730000Y-39862500D01*
X128830000Y-41562500D02*
X128830000Y-43062500D01*
X128830000Y-44762500D02*
X128830000Y-44712500D01*
X128830000Y-44762500D02*
X133730000Y-44762500D01*
X133730000Y-39862500D02*
X133730000Y-39912500D01*
X133730000Y-41562500D02*
X133730000Y-43062500D01*
X133730000Y-44762500D02*
X133730000Y-44712500D01*
%TO.C,C3*%
X94055000Y-60911252D02*
X94055000Y-60388748D01*
X95525000Y-60911252D02*
X95525000Y-60388748D01*
%TO.C,Q1*%
X131490000Y-73860000D02*
X133010000Y-73860000D01*
X131490000Y-74860000D02*
X131490000Y-73860000D01*
X131490000Y-76980000D02*
X131490000Y-75980000D01*
X133010000Y-73860000D02*
X133010000Y-73910000D01*
X133010000Y-75030000D02*
X133010000Y-75810000D01*
X133010000Y-76930000D02*
X133010000Y-76980000D01*
X133010000Y-76980000D02*
X131490000Y-76980000D01*
X133550000Y-75800000D02*
X133310000Y-75470000D01*
X133790000Y-75470000D01*
X133550000Y-75800000D01*
G36*
X133550000Y-75800000D02*
G01*
X133310000Y-75470000D01*
X133790000Y-75470000D01*
X133550000Y-75800000D01*
G37*
%TO.C,U4*%
X137570000Y-32800000D02*
X137570000Y-39000000D01*
X137570000Y-32800000D02*
X155970000Y-32800000D01*
X137570000Y-57650000D02*
X137570000Y-58650000D01*
X137570000Y-58650000D02*
X139070000Y-58650000D01*
X155970000Y-32800000D02*
X155970000Y-39000000D01*
X155970000Y-58650000D02*
X154470000Y-58650000D01*
X155970000Y-58650000D02*
X155970000Y-57650000D01*
X137570000Y-39675000D02*
X137070000Y-39675000D01*
X137570000Y-39175000D01*
X137570000Y-39675000D01*
G36*
X137570000Y-39675000D02*
G01*
X137070000Y-39675000D01*
X137570000Y-39175000D01*
X137570000Y-39675000D01*
G37*
%TO.C,Q4*%
X130390000Y-70570000D02*
X130440000Y-70570000D01*
X130390000Y-72090000D02*
X130390000Y-70570000D01*
X131390000Y-72090000D02*
X130390000Y-72090000D01*
X131560000Y-70570000D02*
X132340000Y-70570000D01*
X133460000Y-70570000D02*
X133510000Y-70570000D01*
X133510000Y-70570000D02*
X133510000Y-72090000D01*
X133510000Y-72090000D02*
X132510000Y-72090000D01*
X132330000Y-70030000D02*
X132000000Y-70270000D01*
X132000000Y-69790000D01*
X132330000Y-70030000D01*
G36*
X132330000Y-70030000D02*
G01*
X132000000Y-70270000D01*
X132000000Y-69790000D01*
X132330000Y-70030000D01*
G37*
%TO.C,R29*%
X103329000Y-84567064D02*
X103329000Y-84112936D01*
X104799000Y-84567064D02*
X104799000Y-84112936D01*
%TO.C,R4*%
X94365000Y-51272936D02*
X94365000Y-51727064D01*
X95835000Y-51272936D02*
X95835000Y-51727064D01*
D15*
%TO.C,U1*%
X130190000Y-60505000D02*
X133190000Y-60505000D01*
X133190000Y-63675000D02*
X130190000Y-63675000D01*
D16*
X129535000Y-61090000D02*
G75*
G02*
X129335000Y-61090000I-100000J0D01*
G01*
X129335000Y-61090000D02*
G75*
G02*
X129535000Y-61090000I100000J0D01*
G01*
D14*
%TO.C,U8*%
X116720000Y-44760000D02*
X118695000Y-44760000D01*
X116720000Y-46735000D02*
X116720000Y-44760000D01*
X116720000Y-55080000D02*
X116720000Y-53105000D01*
X118695000Y-55080000D02*
X116720000Y-55080000D01*
X125065000Y-44760000D02*
X127040000Y-44760000D01*
X127040000Y-44760000D02*
X127040000Y-46735000D01*
X127040000Y-53105000D02*
X127040000Y-55080000D01*
X127040000Y-55080000D02*
X125065000Y-55080000D01*
X116520000Y-47420000D02*
X116190000Y-47660000D01*
X116190000Y-47180000D01*
X116520000Y-47420000D01*
G36*
X116520000Y-47420000D02*
G01*
X116190000Y-47660000D01*
X116190000Y-47180000D01*
X116520000Y-47420000D01*
G37*
%TO.C,C2*%
X96565000Y-60398748D02*
X96565000Y-60921252D01*
X98035000Y-60398748D02*
X98035000Y-60921252D01*
%TO.C,R33*%
X114052936Y-61265000D02*
X114507064Y-61265000D01*
X114052936Y-62735000D02*
X114507064Y-62735000D01*
%TO.C,Boot1*%
X96032000Y-81890000D02*
X96032000Y-81940000D01*
X96032000Y-81890000D02*
X100932000Y-81890000D01*
X96032000Y-83590000D02*
X96032000Y-85090000D01*
X96032000Y-86790000D02*
X96032000Y-86740000D01*
X96032000Y-86790000D02*
X100932000Y-86790000D01*
X100932000Y-81890000D02*
X100932000Y-81940000D01*
X100932000Y-83590000D02*
X100932000Y-85090000D01*
X100932000Y-86790000D02*
X100932000Y-86740000D01*
%TO.C,R20*%
X106132936Y-54925000D02*
X106587064Y-54925000D01*
X106132936Y-56395000D02*
X106587064Y-56395000D01*
%TO.C,D2*%
X127780000Y-52922500D02*
X127780000Y-58422500D01*
X127780000Y-52922500D02*
X134780000Y-52922500D01*
X127780000Y-58422500D02*
X134330000Y-58422500D01*
X128580000Y-56572500D02*
X128580000Y-54772500D01*
X133980000Y-56572500D02*
X133980000Y-54772500D01*
X134330000Y-58422500D02*
X134780000Y-57972500D01*
X134780000Y-57972500D02*
X134780000Y-52922500D01*
D15*
%TO.C,LS1*%
X128500000Y-84820000D02*
X128500000Y-81820000D01*
X130750000Y-79570000D02*
X133750000Y-79570000D01*
X130750000Y-87070000D02*
X133750000Y-87070000D01*
X136000000Y-81820000D02*
X136000000Y-84820000D01*
D14*
%TO.C,J7*%
X139045000Y-81630000D02*
X140375000Y-81630000D01*
X139045000Y-82960000D02*
X139045000Y-81630000D01*
X139045000Y-84230000D02*
X141645000Y-84230000D01*
X139045000Y-86830000D02*
X139045000Y-84230000D01*
X139045000Y-86830000D02*
X154405000Y-86830000D01*
X141645000Y-81630000D02*
X154405000Y-81630000D01*
X141645000Y-84230000D02*
X141645000Y-81630000D01*
X154405000Y-86830000D02*
X154405000Y-81630000D01*
%TO.C,R3*%
X96585000Y-51272936D02*
X96585000Y-51727064D01*
X98055000Y-51272936D02*
X98055000Y-51727064D01*
%TO.C,C4*%
X111741252Y-45875000D02*
X111218748Y-45875000D01*
X111741252Y-47345000D02*
X111218748Y-47345000D01*
%TO.C,J5*%
X157580000Y-60840000D02*
X158690000Y-60840000D01*
X157580000Y-61950000D02*
X157580000Y-60840000D01*
X157580000Y-62950000D02*
X157580000Y-79060000D01*
X157580000Y-62950000D02*
X159800000Y-62950000D01*
X157580000Y-79060000D02*
X159800000Y-79060000D01*
X159800000Y-62950000D02*
X159800000Y-79060000D01*
%TO.C,FB1*%
X92160000Y-55389758D02*
X92160000Y-56210242D01*
X93280000Y-55389758D02*
X93280000Y-56210242D01*
%TO.C,R26*%
X114493000Y-84567064D02*
X114493000Y-84112936D01*
X115963000Y-84567064D02*
X115963000Y-84112936D01*
%TO.C,J1*%
X91890000Y-39285000D02*
X101050000Y-39285000D01*
X91890000Y-40990000D02*
X91890000Y-39285000D01*
X91890000Y-43000000D02*
X91890000Y-44920000D01*
X101050000Y-39285000D02*
X101050000Y-40990000D01*
X101050000Y-44920000D02*
X101050000Y-43000000D01*
%TO.C,R5*%
X109065000Y-56332936D02*
X109065000Y-56787064D01*
X110535000Y-56332936D02*
X110535000Y-56787064D01*
%TO.C,R13*%
X102285000Y-57747064D02*
X102285000Y-57292936D01*
X103755000Y-57747064D02*
X103755000Y-57292936D01*
%TO.C,J2*%
X87255000Y-67605000D02*
X93995000Y-67605000D01*
X87255000Y-75965000D02*
X87255000Y-67605000D01*
X88975000Y-75965000D02*
X88975000Y-67605000D01*
X92075000Y-75965000D02*
X92075000Y-67605000D01*
X93075000Y-75965000D02*
X93075000Y-67605000D01*
X93995000Y-67605000D02*
X93995000Y-74025000D01*
X93995000Y-74625000D02*
X93995000Y-75965000D01*
X93995000Y-75965000D02*
X87255000Y-75965000D01*
X94605000Y-74765000D02*
X93995000Y-74325000D01*
X94605000Y-73885000D01*
X94605000Y-74765000D01*
G36*
X94605000Y-74765000D02*
G01*
X93995000Y-74325000D01*
X94605000Y-73885000D01*
X94605000Y-74765000D01*
G37*
%TO.C,R25*%
X92165000Y-84567064D02*
X92165000Y-84112936D01*
X93635000Y-84567064D02*
X93635000Y-84112936D01*
%TO.C,R1*%
X102725000Y-45442936D02*
X102725000Y-45897064D01*
X104195000Y-45442936D02*
X104195000Y-45897064D01*
%TD*%
D18*
X163820000Y-67650000D03*
X163820000Y-69650000D03*
X163820000Y-71650000D03*
X163820000Y-73650000D03*
X160015000Y-47800000D03*
X162555000Y-47800000D03*
X160015000Y-50340000D03*
X162555000Y-50340000D03*
X160015000Y-52880000D03*
X162555000Y-52880000D03*
X88770000Y-60620000D03*
X88770000Y-63160000D03*
X115860000Y-71805000D03*
X113860000Y-65805000D03*
X101660000Y-65805000D03*
X101660000Y-77805000D03*
X113860000Y-77805000D03*
X112540000Y-41980000D03*
X110540000Y-41980000D03*
X108540000Y-41980000D03*
X114640000Y-41980000D03*
X106440000Y-41980000D03*
X121910000Y-75620000D03*
X121910000Y-68000000D03*
D19*
X143870000Y-47460000D03*
X143870000Y-48860000D03*
X144570000Y-46760000D03*
X144570000Y-48160000D03*
X144570000Y-49560000D03*
X145270000Y-47460000D03*
X145270000Y-48860000D03*
X145970000Y-46760000D03*
X145970000Y-48160000D03*
X145970000Y-49560000D03*
X146670000Y-47460000D03*
X146670000Y-48860000D03*
D18*
X140375000Y-82960000D03*
X140375000Y-85500000D03*
X142915000Y-82960000D03*
X142915000Y-85500000D03*
X145455000Y-82960000D03*
X145455000Y-85500000D03*
X147995000Y-82960000D03*
X147995000Y-85500000D03*
X150535000Y-82960000D03*
X150535000Y-85500000D03*
X153075000Y-82960000D03*
X153075000Y-85500000D03*
X158690000Y-61950000D03*
X158690000Y-63950000D03*
X158690000Y-65950000D03*
X158690000Y-67950000D03*
X158690000Y-69950000D03*
X158690000Y-71950000D03*
X158690000Y-73950000D03*
X158690000Y-75950000D03*
X158690000Y-77950000D03*
X99360000Y-45675000D03*
X93580000Y-45675000D03*
D20*
X100790000Y-46195000D03*
D21*
X100790000Y-41995000D03*
D20*
X92150000Y-46195000D03*
D21*
X92150000Y-41995000D03*
D18*
X90475000Y-74325000D03*
X90475000Y-71785000D03*
X90475000Y-69245000D03*
M02*
