M48
; DRILL file {KiCad 9.0.5} date 2026-02-07T16:21:02+0530
; FORMAT={-:-/ absolute / metric / decimal}
; #@! TF.CreationDate,2026-02-07T16:21:02+05:30
; #@! TF.GenerationSoftware,Kicad,Pcbnew,9.0.5
; #@! TF.FileFunction,Plated,1,2,PTH
FMAT,2
METRIC
; #@! TA.AperFunction,Plated,PTH,ComponentDrill
T1C0.200
; #@! TA.AperFunction,Plated,PTH,ViaDrill
T2C0.300
; #@! TA.AperFunction,Plated,PTH,ComponentDrill
T3C0.600
; #@! TA.AperFunction,Plated,PTH,ComponentDrill
T4C0.800
; #@! TA.AperFunction,Plated,PTH,ComponentDrill
T5C1.000
; #@! TA.AperFunction,Plated,PTH,ComponentDrill
T6C1.100
; #@! TA.AperFunction,Plated,PTH,ComponentDrill
T7C1.200
; #@! TA.AperFunction,Plated,PTH,ComponentDrill
T8C1.300
; #@! TA.AperFunction,Plated,PTH,ComponentDrill
T9C1.600
%
G90
G05
T1
X143.87Y-47.46
X143.87Y-48.86
X144.57Y-46.76
X144.57Y-48.16
X144.57Y-49.56
X145.27Y-47.46
X145.27Y-48.86
X145.97Y-46.76
X145.97Y-48.16
X145.97Y-49.56
X146.67Y-47.46
X146.67Y-48.86
T2
X89.75Y-50.61
X89.76Y-49.97
X90.59Y-50.28
X90.74Y-59.38
X90.74Y-60.19
X90.82Y-53.66
X92.51Y-62.8
X92.74Y-53.64
X93.64Y-61.66
X94.06Y-48.44
X94.262Y-56.807
X96.21Y-49.49
X97.182Y-87.2
X97.182Y-87.89
X97.3Y-58.49
X97.93Y-57.34
X97.935Y-87.2
X97.935Y-87.89
X98.47Y-82.74
X98.688Y-87.2
X98.688Y-87.89
X98.69Y-60.08
X98.87Y-48.41
X99.44Y-87.2
X99.44Y-87.89
X99.58Y-55.55
X100.192Y-87.2
X100.192Y-87.89
X101.21Y-56.0
X103.02Y-61.58
X103.56Y-53.54
X104.1Y-59.74
X104.21Y-56.24
X105.39Y-50.35
X106.37Y-56.91
X106.58Y-54.41
X108.015Y-87.2
X108.015Y-87.89
X108.56Y-57.7
X108.74Y-46.67
X108.74Y-47.557
X108.74Y-48.443
X108.74Y-49.33
X108.767Y-87.2
X108.767Y-87.89
X109.04Y-50.99
X109.52Y-87.2
X109.52Y-87.89
X109.59Y-82.74
X110.27Y-63.53
X110.272Y-87.2
X110.272Y-87.89
X110.8Y-61.05
X110.95Y-50.99
X111.025Y-87.2
X111.025Y-87.89
X111.1Y-44.81
X111.23Y-63.95
X111.4Y-57.7
X111.45Y-43.83
X112.77Y-56.06
X113.31Y-58.63
X113.31Y-60.86
X113.78Y-44.81
X113.86Y-87.94
X114.085Y-56.06
X114.82Y-44.07
X115.4Y-56.06
X119.017Y-87.2
X119.017Y-87.89
X119.77Y-87.2
X119.77Y-87.89
X120.522Y-87.2
X120.522Y-87.89
X120.637Y-45.24
X120.637Y-46.1
X120.637Y-56.03
X120.84Y-82.74
X121.275Y-87.2
X121.275Y-87.89
X122.027Y-87.2
X122.027Y-87.89
X123.11Y-56.42
X123.84Y-42.81
X125.09Y-61.08
X125.86Y-61.06
X126.27Y-45.61
X126.29Y-56.39
X128.17Y-72.28
X128.775Y-41.935
X128.847Y-51.797
X129.23Y-63.08
X129.25Y-80.32
X129.28Y-81.61
X130.0Y-70.392
X130.23Y-75.4
X130.642Y-54.023
X132.36Y-47.35
X133.83Y-63.08
X133.97Y-52.33
X134.21Y-72.26
X134.55Y-76.37
X135.18Y-55.65
X135.2Y-81.78
X135.25Y-80.32
X135.7Y-56.95
X136.17Y-48.06
X136.31Y-41.71
X136.34Y-42.98
X136.4Y-54.41
X138.52Y-58.6
X139.11Y-51.87
X140.63Y-66.79
X140.74Y-70.27
X141.05Y-59.9
X141.7Y-46.19
X141.71Y-39.618
X142.57Y-47.41
X144.74Y-66.88
X144.74Y-70.84
X144.865Y-56.38
X145.81Y-53.19
X146.135Y-56.265
X146.79Y-59.83
X147.37Y-64.61
X147.37Y-70.18
X147.758Y-60.498
X148.73Y-73.12
X149.27Y-40.55
X149.86Y-53.68
X149.94Y-60.05
X150.74Y-53.32
X151.22Y-59.98
X152.49Y-60.1
X153.62Y-50.62
X153.81Y-60.08
X153.83Y-45.51
X154.02Y-51.87
X154.06Y-53.15
X154.11Y-54.41
X154.15Y-55.68
X154.18Y-49.37
X158.75Y-44.03
X162.15Y-82.14
X162.16Y-83.05
X163.23Y-82.14
X163.24Y-83.05
X164.31Y-82.14
X164.32Y-83.05
X164.65Y-59.03
X166.129Y-56.049
X225.38Y-39.97
T4
X108.54Y-41.98
X110.54Y-41.98
X112.54Y-41.98
X158.69Y-61.95
X158.69Y-63.95
X158.69Y-65.95
X158.69Y-67.95
X158.69Y-69.95
X158.69Y-71.95
X158.69Y-73.95
X158.69Y-75.95
X158.69Y-77.95
X163.82Y-67.65
X163.82Y-69.65
X163.82Y-71.65
X163.82Y-73.65
T5
X88.77Y-60.62
X88.77Y-63.16
X140.375Y-82.96
X140.375Y-85.5
X142.915Y-82.96
X142.915Y-85.5
X145.455Y-82.96
X145.455Y-85.5
X147.995Y-82.96
X147.995Y-85.5
X150.535Y-82.96
X150.535Y-85.5
X153.075Y-82.96
X153.075Y-85.5
X160.015Y-47.8
X160.015Y-50.34
X160.015Y-52.88
X162.555Y-47.8
X162.555Y-50.34
X162.555Y-52.88
T6
X121.91Y-68.0
X121.91Y-75.62
T7
X90.475Y-69.245
X90.475Y-71.785
X90.475Y-74.325
T8
X101.66Y-65.805
X101.66Y-77.805
X113.86Y-65.805
X113.86Y-77.805
X115.86Y-71.805
T9
X106.44Y-41.98
X114.64Y-41.98
T3
G00X92.15Y-42.395
M15
G01X92.15Y-41.595
M16
G05
G00X92.15Y-46.745
M15
G01X92.15Y-45.645
M16
G05
G00X100.79Y-42.395
M15
G01X100.79Y-41.595
M16
G05
G00X100.79Y-46.745
M15
G01X100.79Y-45.645
M16
G05
M30
